<?xml version="1.0" encoding="UTF-8" standalone="no"?>
<!-- Created with Inkscape (http://www.inkscape.org/) -->

<svg
   width="512"
   height="512"
   viewBox="0 0 512 512"
   version="1.1"
   id="svg1"
   sodipodi:docname="circle.svg"
   inkscape:version="1.3.1 (9b9bdc1480, 2023-11-25, custom)"
   xmlns:inkscape="http://www.inkscape.org/namespaces/inkscape"
   xmlns:sodipodi="http://sodipodi.sourceforge.net/DTD/sodipodi-0.dtd"
   xmlns="http://www.w3.org/2000/svg"
   xmlns:svg="http://www.w3.org/2000/svg">
  <sodipodi:namedview
     id="namedview1"
     pagecolor="#ffffff"
     bordercolor="#999999"
     borderopacity="1"
     inkscape:showpageshadow="0"
     inkscape:pageopacity="0"
     inkscape:pagecheckerboard="0"
     inkscape:deskcolor="#d1d1d1"
     inkscape:document-units="px"
     inkscape:zoom="1.1269514"
     inkscape:cx="282.17721"
     inkscape:cy="244.90852"
     inkscape:window-width="1850"
     inkscape:window-height="1016"
     inkscape:window-x="0"
     inkscape:window-y="0"
     inkscape:window-maximized="1"
     inkscape:current-layer="layer1" />
  <defs
     id="defs1" />
  <g
     inkscape:label="Lager 1"
     inkscape:groupmode="layer"
     id="layer1">
    <path
       style="fill:#000000"
       id="path3"
       d="m 426.98704,246.74127 c -0.66861,-5.57548 -0.31851,-11.20613 -0.0942,-16.79828 0.37045,-7.06439 0.86184,-14.1226 1.41238,-21.17501 0.38863,-5.54538 0.7454,-11.09411 0.78434,-16.65435 0.20231,-6.57187 -1.01971,-13.00498 -2.47823,-19.37504 -1.49019,-6.21628 -3.32067,-12.34418 -5.53925,-18.33852 -2.32304,-6.11389 -5.07651,-12.03679 -8.08086,-17.84082 -3.18873,-5.9806 -6.90976,-11.64576 -11.02096,-17.0275 -3.44918,-4.21634 -7.09661,-8.26174 -10.57347,-12.45601 -3.39397,-3.8188 -6.33772,-8.001531 -9.55374,-11.962033 -2.80055,-3.616426 -6.63298,-5.884827 -10.65642,-7.88124 -4.61432,-2.153208 -9.50604,-3.606274 -14.25003,-5.435839 -4.533,-1.918362 -8.92776,-4.136225 -13.48941,-5.987854 -4.99932,-1.856298 -10.13729,-3.279415 -15.33947,-4.431663 -5.36504,-0.953954 -10.73209,-1.853827 -16.06633,-2.973496 -4.80143,-0.980331 -9.63145,-1.805883 -14.43971,-2.751968 -4.71736,-1.040082 -9.51998,-1.516805 -14.32679,-1.897719 -23.50342,-1.03168 -47.0965,-1.367216 -70.59453,-0.235749 -5.17298,0.285475 -10.32483,0.805409 -15.41713,1.761512 -5.18257,0.958351 -10.39745,1.726919 -15.5558,2.811759 -5.57915,1.281299 -10.78779,3.678068 -16.00364,5.967884 -5.87729,2.577263 -11.84239,4.959519 -17.44294,8.10676 -5.60791,3.396761 -10.98958,7.158903 -16.39627,10.865542 -4.63758,2.970765 -9.0166,6.267384 -12.9671,10.104304 -4.48642,4.49091 -8.51577,9.40473 -12.59091,14.26298 -4.53605,5.23728 -8.308584,10.98525 -11.732143,16.98976 -3.500666,6.4655 -7.716793,12.47707 -11.953006,18.46938 -3.678907,5.1111 -6.262241,10.79882 -8.289113,16.72863 -2.15649,6.69826 -3.38873,13.64261 -4.965257,20.4905 -1.67208,6.52294 -3.144235,13.08106 -4.38621,19.6992 -1.385065,7.87748 -2.544225,15.78502 -3.556156,23.71773 -1.044055,7.25552 -1.772566,14.52203 -1.90577,21.8515 -0.350453,8.06099 -0.01166,16.09626 0.605226,24.13162 0.808775,8.82569 2.573528,17.4923 4.793297,26.05787 2.390784,9.61482 5.009315,19.16055 8.025803,28.59728 3.177696,8.62715 6.583652,17.21307 11.028741,25.28089 0.920847,1.67133 1.940783,3.28613 2.911175,4.92919 5.384841,9.24398 12.203415,17.50311 18.914053,25.79169 4.92134,6.11059 10.24291,11.85383 15.97778,17.20275 4.1431,3.86801 8.67704,7.26687 13.30014,10.53125 4.11887,3.00582 8.55748,5.3823 13.26645,7.30525 5.15692,1.95378 10.49578,3.35201 15.8347,4.70255 6.24167,1.50284 12.4904,2.95682 18.67949,4.66666 5.58471,1.67069 11.15604,3.33086 16.88519,4.42845 8.66049,1.54217 17.44339,1.99181 26.21593,2.3392 27.44916,1.15841 54.94187,1.18224 82.40763,0.52596 9.78568,-0.43098 19.43077,-2.33639 28.8355,-4.99341 8.20356,-2.53336 16.16823,-5.75229 24.06481,-9.10397 5.32483,-2.38326 10.78254,-4.4815 15.9998,-7.10327 2.34168,-1.17674 5.05717,-2.74721 7.34451,-4.04026 5.86596,-3.42913 11.11626,-7.72456 15.96528,-12.45665 3.86079,-3.81849 7.56807,-7.787 11.3761,-11.65709 4.36186,-4.24887 8.67121,-8.52715 12.73759,-13.06274 4.45129,-5.00639 7.85634,-10.7777 11.20572,-16.54397 3.28649,-6.04525 6.67096,-12.03401 10.05989,-18.02213 2.59947,-4.25859 4.58893,-8.80788 6.3793,-13.44968 1.88525,-5.19438 3.74516,-10.39444 5.55147,-15.61719 1.85374,-5.55062 4.08308,-10.94629 5.57636,-16.60995 1.23367,-4.80181 1.682,-9.72157 1.80556,-14.66135 0.22094,-5.56201 0.34495,-11.12665 0.53234,-16.68986 0.25463,-4.4796 0.38821,-8.93283 0.0742,-13.40924 -0.0704,-4.94305 -0.47445,-9.83566 -1.32977,-14.70321 -1.41375,-6.44978 -3.92246,-12.6029 -6.25522,-18.7629 -2.13424,-6.05822 -4.49568,-11.99459 -7.54859,-17.65006 -2.77737,-4.87069 -5.97337,-9.49122 -9.23707,-14.04559 -3.35496,-4.22584 -7.04695,-8.12215 -10.15848,-12.54033 -2.65269,-3.92515 -4.77274,-8.13261 -6.64388,-12.47162 0,0 -54.64066,2.30445 -54.64066,2.30445 v 0 c 2.08488,4.49103 4.29943,8.92497 6.70286,13.25513 0.93538,1.63811 2.29556,4.10359 3.37818,5.69004 1.82063,2.66791 4.11644,4.94961 6.20601,7.39563 3.4896,4.19002 6.67194,8.62785 9.62096,13.21418 3.13259,5.36378 5.61368,11.02469 7.65401,16.8939 2.33239,5.73567 4.60004,11.53936 5.75043,17.64892 0.76078,4.61811 1.13699,9.28417 1.22076,13.96453 -0.008,4.37128 0.0559,8.7386 0.13486,13.1092 -0.0276,5.52794 -0.246,11.04829 -0.68778,16.55956 -0.28197,4.54126 -0.61067,9.09988 -1.7762,13.51892 -1.35135,5.49523 -3.27108,10.82788 -5.24184,16.12742 -1.86135,5.16794 -3.93611,10.25132 -5.92103,15.37235 -1.81633,4.3548 -3.84746,8.6145 -5.97933,12.82342 -3.12704,5.99593 -6.2555,11.99634 -9.72702,17.80289 -3.38848,5.44532 -7.01348,10.75704 -11.41172,15.45071 -4.12744,4.46691 -8.65822,8.50602 -12.9124,12.848 -3.74506,3.84486 -7.49985,7.68312 -11.32639,11.44662 -4.64889,4.24508 -9.57735,8.1693 -15.15036,11.15728 -7.43442,4.04346 -15.22364,7.33514 -23.05409,10.53096 -7.83083,3.08594 -15.65897,6.2665 -23.81384,8.40945 -9.33837,2.22165 -18.84562,3.74829 -28.47293,3.74175 -21.34954,0.14419 -4.29411,0.0167 43.46814,0.067 1.6059,0.002 -3.2119,0.0313 -4.81769,0.0125 -2.00365,-0.0235 -7.92204,-0.22193 -9.88769,-0.29233 -1.68808,-0.0605 -3.37583,-0.12969 -5.06374,-0.19454 -8.31397,-0.23015 -16.66259,-0.4515 -24.8807,-1.84884 -5.74391,-0.73523 -11.36968,-1.98272 -16.87003,-3.82083 -6.13456,-1.69288 -12.25448,-3.42221 -18.47294,-4.78814 -5.24426,-1.37863 -10.53872,-2.56893 -15.72066,-4.17591 -2.34601,-0.75037 -4.79843,-1.47922 -7.03159,-2.53563 -2.05951,-0.97425 -3.924,-2.357 -5.89023,-3.49335 -4.8049,-3.00435 -9.53077,-6.15907 -13.95702,-9.70412 -5.96344,-5.02287 -11.38511,-10.62907 -16.62662,-16.39553 -7.00651,-7.81875 -13.76376,-15.91005 -19.32837,-24.83989 -1.93105,-3.27125 -3.578,-5.95115 -5.31555,-9.32546 -3.26377,-6.33821 -6.00369,-12.95672 -8.32869,-19.69111 -2.94607,-9.29951 -5.43054,-18.72999 -7.62223,-28.23524 -1.89383,-8.32429 -4.02485,-16.64082 -4.59968,-25.19177 -0.62542,-7.82918 -0.61808,-15.66238 -0.26431,-23.50818 0.39859,-7.14673 0.81073,-14.29609 1.60151,-21.41278 0.85498,-7.8549 2.42685,-15.58442 4.04533,-23.31328 1.29804,-6.54123 2.70173,-13.06082 4.25007,-19.54778 1.42933,-6.65913 2.84342,-13.34036 5.19531,-19.75026 2.16096,-5.43549 4.80806,-10.63001 8.20856,-15.40979 3.96804,-6.16454 7.73557,-12.4463 11.53643,-18.71473 3.73428,-5.59184 7.62416,-11.08427 12.03323,-16.17265 3.99948,-4.73989 8.16243,-9.37186 12.83751,-13.46136 4.11909,-3.37085 8.45905,-6.43061 12.83896,-9.452084 5.16535,-3.667922 10.35872,-7.341776 16.04692,-10.170692 5.82032,-2.739351 11.75425,-5.216668 17.7079,-7.650729 5.12167,-2.075349 10.31469,-3.998352 15.81134,-4.820059 5.2741,-0.89683 10.55467,-1.7584 15.84009,-2.585318 5.00228,-0.613264 10.03038,-1.027611 15.07192,-1.103867 19.88313,-0.128598 5.64673,-0.02997 -48.8728,-0.04972 -0.92092,-3.34e-4 1.84183,0.0073 2.76273,0.01408 1.54351,0.01132 3.67051,0.03382 5.22266,0.06469 0.8294,0.01649 1.65862,0.04086 2.48793,0.06129 4.72336,0.187925 9.47246,0.42261 14.13663,1.223831 4.88601,0.867607 9.73964,1.90879 14.6503,2.638251 5.36017,1.050411 10.66699,2.38714 16.09955,3.033836 5.09434,0.810519 10.13688,1.919737 15.01988,3.608575 4.72798,1.469646 9.20582,3.498291 13.65684,5.661169 4.54283,2.079725 9.22622,3.733352 13.95295,5.342062 3.64342,1.461759 7.46044,2.864895 10.37272,5.588491 3.64082,3.640864 6.64605,7.824654 9.98977,11.730694 3.49742,4.15911 6.72907,8.545 10.5609,12.41493 4.32186,4.88151 8.31459,10.03933 11.29994,15.86887 2.92458,5.58415 5.53798,11.30461 7.76152,17.20675 2.23642,5.77102 4.33065,11.59807 5.78708,17.62405 1.45539,5.91264 2.39029,11.88872 2.02412,18.00375 -0.15737,5.48782 -0.195,10.98008 -0.50446,16.46308 -0.19271,7.05857 -0.55714,14.11117 -1.15422,21.14771 -0.43245,5.70712 -0.66431,11.44151 -1.44291,17.11461 z" />
  </g>
</svg>
