<?xml version="1.0" encoding="UTF-8" standalone="no"?>
<!-- Created with Inkscape (http://www.inkscape.org/) -->

<svg
   width="210mm"
   height="297mm"
   viewBox="0 0 210 297"
   version="1.1"
   id="svg1"
   sodipodi:docname="circle.svg"
   inkscape:version="1.3.1 (9b9bdc1480, 2023-11-25, custom)"
   xmlns:inkscape="http://www.inkscape.org/namespaces/inkscape"
   xmlns:sodipodi="http://sodipodi.sourceforge.net/DTD/sodipodi-0.dtd"
   xmlns="http://www.w3.org/2000/svg"
   xmlns:svg="http://www.w3.org/2000/svg">
  <sodipodi:namedview
     id="namedview1"
     pagecolor="#ffffff"
     bordercolor="#999999"
     borderopacity="1"
     inkscape:showpageshadow="0"
     inkscape:pageopacity="0"
     inkscape:pagecheckerboard="0"
     inkscape:deskcolor="#d1d1d1"
     inkscape:document-units="mm"
     inkscape:zoom="1"
     inkscape:cx="385"
     inkscape:cy="547"
     inkscape:window-width="1850"
     inkscape:window-height="1016"
     inkscape:window-x="0"
     inkscape:window-y="0"
     inkscape:window-maximized="1"
     inkscape:current-layer="layer1" />
  <defs
     id="defs1" />
  <g
     inkscape:label="Lager 1"
     inkscape:groupmode="layer"
     id="layer1">
    <path
       style="fill:#000000;stroke-width:0.264583"
       id="path3"
       d="m 131.16126,150.71669 c 0.56773,-3.30144 0.97759,-6.62893 1.38993,-9.95274 0.58716,-4.72276 1.16524,-9.44585 1.42684,-14.19924 0.0328,-2.80406 0.0745,-5.83573 -1.25253,-8.40317 -0.21437,-0.41476 -0.50517,-0.78531 -0.75776,-1.17797 -1.03311,-1.05958 -0.94979,-1.11814 -2.31144,-1.88053 -2.14761,-1.20245 -4.29021,-2.41886 -6.49739,-3.50808 -0.54817,-0.27052 -1.15868,-0.39136 -1.74623,-0.56005 -1.36975,-0.39327 -2.75885,-0.68797 -4.14745,-1.00401 -4.82866,-1.0584 -9.71047,-1.83163 -14.62904,-2.31144 -3.380122,-0.22991 -6.886814,-0.43614 -10.210557,0.39776 -0.539155,0.13527 -1.060908,0.33229 -1.591361,0.49844 -2.547424,1.00252 -4.69529,2.67655 -6.51824,4.69682 -0.384969,0.42664 -0.739066,0.88015 -1.108599,1.32022 -1.471089,1.82278 -2.611207,3.87182 -3.338248,6.10085 -0.433816,1.33004 -0.607412,2.29468 -0.904311,3.65937 -0.505722,2.53657 -0.833173,5.11098 -0.873448,7.69917 -0.02701,1.73567 0.03441,2.24218 0.134625,3.98237 0.180245,2.63951 0.49462,5.27162 1.07805,7.85469 0.342009,1.51421 0.60932,2.36924 1.034788,3.85492 0.723326,2.41296 1.695694,4.73551 2.963786,6.91256 0.712605,1.22339 1.233495,1.97197 2.017824,3.15606 1.363027,1.99221 2.7711,3.96697 4.424772,5.73249 1.077746,1.15063 1.41696,1.40277 2.587784,2.43919 0.481819,0.36133 0.952114,0.73855 1.445453,1.08398 0.490149,0.3432 0.988055,0.6768 1.503434,0.98079 3.220961,1.89988 6.280978,3.91144 9.811108,5.12161 0.60093,0.20601 1.21611,0.36783 1.82416,0.55174 3.32161,0.93356 6.75385,1.30427 10.18807,1.48189 2.48156,0.15531 4.95554,-0.0123 7.39968,-0.44346 1.98792,-0.34615 3.69384,-1.04297 5.4169,-2.06815 1.71781,-1.01509 3.02263,-2.51535 4.32733,-3.99243 1.70515,-1.81024 3.07165,-3.86998 4.31479,-6.01238 1.07902,-1.80765 2.00874,-3.69279 2.83232,-5.62835 0.71091,-1.69403 1.36575,-3.40923 1.86663,-5.17729 0.55997,-2.07294 0.70138,-4.22527 0.84424,-6.35866 0.14284,-1.7753 0.008,-3.54336 -0.26734,-5.29716 -0.32168,-1.97417 -0.82797,-3.91244 -1.40495,-5.82566 -0.51117,-1.69644 -1.26694,-3.08299 -2.44959,-4.39219 -1.52915,-1.4074 -3.16139,-2.69956 -4.74577,-4.04447 -1.89941,-1.61271 -3.79353,-3.23443 -5.79827,-4.71586 -0.24387,-0.16796 -0.48773,-0.33593 -0.7316,-0.5039 0,0 -5.45971,-2.13696 -5.45971,-2.13696 v 0 c 0.25333,0.16433 0.50665,0.32866 0.75997,0.49299 2.04524,1.43633 3.94552,3.06199 5.84529,4.68314 1.55576,1.33454 3.12899,2.64781 4.70014,3.96406 1.26769,1.23108 2.03495,2.46423 2.58962,4.15612 0.60421,1.87778 1.10666,3.79113 1.42244,5.74011 0.27659,1.71999 0.47987,3.45117 0.35329,5.19735 -0.11421,2.09314 -0.25427,4.20349 -0.80324,6.23587 -0.50466,1.74219 -1.11879,3.44934 -1.82066,5.12219 -0.80321,1.91925 -1.73026,3.77877 -2.77368,5.57974 -1.20565,2.11967 -2.56556,4.13449 -4.25498,5.90599 -1.29136,1.41783 -2.58575,2.84742 -4.26771,3.81621 -1.64133,0.94631 -3.39754,1.61267 -5.27801,1.90717 -2.40235,0.39713 -4.83012,0.53195 -7.2638,0.38133 -3.39451,-0.19301 -6.78565,-0.58868 -10.056,-1.56236 -1.63487,-0.53439 -1.94825,-0.58938 -3.507719,-1.2842 -0.553051,-0.24641 -2.13374,-1.13488 -1.634374,-0.79251 1.071007,0.73429 2.224215,1.3418 3.358253,1.97441 1.04084,0.58063 -4.094281,-2.44477 -2.97412,-1.98467 -1.171575,-0.99485 -1.542788,-1.26168 -2.619589,-2.37273 -1.678618,-1.73202 -3.100099,-3.68957 -4.473004,-5.66562 -1.027517,-1.53531 -2.072113,-3.06391 -2.93525,-4.70098 -0.87779,-1.66486 -1.557081,-3.42315 -2.127756,-5.21427 -0.467807,-1.57731 -0.678484,-2.20401 -1.055076,-3.81338 -0.598591,-2.55806 -0.930584,-5.16564 -1.118949,-7.78394 -0.09653,-1.57462 -0.172919,-2.35781 -0.157687,-3.93128 0.02474,-2.55647 0.352936,-5.09729 0.842264,-7.60366 0.301086,-1.40657 0.434372,-2.20884 0.878962,-3.57649 0.704588,-2.16746 1.811705,-4.15826 3.24716,-5.92651 0.365577,-0.4264 0.716632,-0.86569 1.09673,-1.2792 1.779971,-1.93644 3.876942,-3.53978 6.361154,-4.45572 0.514694,-0.15144 1.021816,-0.33149 1.544077,-0.45431 3.276064,-0.77045 6.703594,-0.57096 10.026254,-0.33116 4.9155,0.50437 9.79608,1.28654 14.61434,2.39219 1.53896,0.36961 2.6579,0.60872 4.16007,1.08241 0.58338,0.18396 2.17935,1.02751 1.72979,0.61269 -0.97792,-0.90237 -2.27621,-1.3813 -3.37543,-2.13119 -0.42535,-0.29018 0.9273,0.45656 1.35055,0.7498 0.37303,0.25844 0.68334,0.59734 1.02501,0.89602 0.26998,0.35839 0.57995,0.68989 0.80993,1.07517 1.45994,2.44581 1.45907,5.47038 1.46553,8.21552 -0.19751,4.74828 -0.74758,9.46749 -1.36832,14.17748 -0.44887,3.25518 -0.84747,6.53392 -1.63894,9.72758 z" />
  </g>
</svg>
