<?xml version="1.0" encoding="UTF-8" standalone="no"?>
<!-- Created with Inkscape (http://www.inkscape.org/) -->

<svg
   width="512"
   height="512"
   viewBox="0 0 512 512"
   version="1.1"
   id="svg1"
   inkscape:version="1.3.1 (9b9bdc1480, 2023-11-25, custom)"
   sodipodi:docname="infinity.svg"
   xmlns:inkscape="http://www.inkscape.org/namespaces/inkscape"
   xmlns:sodipodi="http://sodipodi.sourceforge.net/DTD/sodipodi-0.dtd"
   xmlns="http://www.w3.org/2000/svg"
   xmlns:svg="http://www.w3.org/2000/svg">
  <sodipodi:namedview
     id="namedview1"
     pagecolor="#ffffff"
     bordercolor="#999999"
     borderopacity="1"
     inkscape:showpageshadow="0"
     inkscape:pageopacity="0"
     inkscape:pagecheckerboard="0"
     inkscape:deskcolor="#d1d1d1"
     inkscape:document-units="px"
     inkscape:zoom="0.796875"
     inkscape:cx="350.11765"
     inkscape:cy="320"
     inkscape:window-width="1850"
     inkscape:window-height="1016"
     inkscape:window-x="0"
     inkscape:window-y="0"
     inkscape:window-maximized="1"
     inkscape:current-layer="layer1" />
  <defs
     id="defs1" />
  <g
     inkscape:label="Lager 1"
     inkscape:groupmode="layer"
     id="layer1">
    <path
       style="fill:#000000"
       id="path1"
       d="m 401.14512,91.412972 c -7.32662,6.829162 -15.00011,13.279048 -22.5549,19.853958 -10.2811,8.64077 -19.6728,18.25765 -28.77216,28.11464 -6.51881,6.98382 -12.43607,14.48325 -18.45288,21.89314 -4.96291,5.93385 -9.66491,12.07912 -14.63897,18.00282 -4.79985,5.64735 -10.10079,10.83423 -15.18398,16.22103 -6.51303,6.66976 -13.07139,13.29487 -19.69614,19.85374 -5.20734,5.15606 -11.3734,9.12797 -17.25067,13.44339 -7.46469,5.01758 -14.81865,10.19354 -22.11069,15.4582 -7.12695,5.54897 -14.34493,10.97675 -21.59086,16.36852 -6.52947,4.72738 -12.77413,9.82602 -19.17292,14.7268 -6.4917,4.96394 -13.38455,9.35205 -20.21231,13.82799 -6.75455,4.55167 -13.24899,9.47158 -19.88504,14.19183 -6.14653,4.55702 -12.80999,8.33044 -19.16352,12.5718 -5.06645,3.25948 -9.82856,6.9792 -14.33335,10.97284 -4.53481,4.0788 -8.88747,8.34925 -13.25019,12.60913 -3.84447,3.94554 -7.44679,8.14566 -10.61712,12.65231 -2.98965,4.33189 -6.177196,8.52011 -9.419583,12.66437 -3.506577,4.63371 -7.719013,8.56696 -12.13432,12.30467 -3.710863,3.02968 -7.490707,5.97433 -11.046486,9.18756 -2.17041,2.03787 -4.376063,4.0621 -6.866765,5.70401 -2.243113,1.59842 -4.494157,3.17219 -6.676885,4.85316 -1.701812,1.43898 -3.455095,2.78526 -5.335861,3.97984 -1.441721,1.24739 -3.065356,2.23675 -4.722704,3.16705 -0.279438,0.16989 -1.634205,0.73496 -1.938799,0.1852 -0.21462,-0.38736 -0.72018,-1.30993 -0.277463,-1.29924 73.521086,1.77549 88.133996,23.5329 73.748026,2.46369 -1.46836,-4.7026 -1.60413,-9.7167 -1.70791,-14.60519 -0.0401,-6.28617 0.1899,-12.57551 0.47902,-18.85495 0.32777,-6.54398 0.0125,-13.09194 -0.19442,-19.63374 -0.16827,-6.11976 -0.14321,-12.23983 -0.12362,-18.36077 0.17217,-4.65144 0.11527,-9.30452 0.10805,-13.95754 -0.0715,-4.86061 -0.0448,-9.72227 5e-4,-14.58304 0.0146,-3.82722 0.22114,-7.64917 0.42618,-11.46975 0.35516,-3.7079 0.55621,-7.41577 0.68118,-11.13868 0.0396,-4.47287 0.77836,-8.89053 1.43837,-13.3021 0.60055,-3.7197 0.80807,-7.48565 0.90647,-11.24719 0.0954,-3.46397 0.023,-6.9288 0.0409,-10.39403 0.18508,-4.37761 0.38511,-8.75417 0.58001,-13.13135 0.13067,-4.85973 0.0878,-9.72181 0.10597,-14.583 0.09,-5.75762 0.21194,-11.51401 0.26643,-17.27212 -0.0645,-5.21507 0.10334,-10.41958 0.46476,-15.62104 0.32971,-3.90075 0.53208,-7.80398 0.64505,-11.71621 0.0696,-3.19637 0.12644,-6.40387 0.0322,-9.60156 0.0206,-3.12165 -0.0706,-6.23928 0.21652,-9.351 0.41119,-2.81829 0.71705,-5.619 0.86016,-8.46349 0.06,-3.91922 0.11026,-7.83503 -0.21503,-11.74356 -0.20747,-3.38439 -0.71011,-6.73795 -1.2227,-10.08646 -0.34111,-2.57151 -0.70813,-5.13934 -0.97295,-7.72016 -0.21972,-2.61813 -0.26093,-5.24731 -0.4518,-7.8671 -0.11482,-1.95056 -0.456,-3.87299 -0.78895,-5.79509 -0.22835,-1.27859 -0.26425,-2.57734 -0.36929,-3.86838 -0.1338,-1.24624 -0.21434,-2.497597 -0.23473,-3.75076 -0.0981,-2.033408 0.12466,-0.826314 0.54697,0.128891 1.03857,1.183028 1.69084,-1.358015 1.93942,-2.017178 0.43661,-0.701349 1.1955,-1.715639 2.12486,-1.527994 0.11586,0.08692 0.25965,0.145669 0.34759,0.260758 0.0776,0.101495 0.838,1.581228 0.63565,1.582347 -24.63799,0.136308 -49.276631,-0.243547 -73.913004,-0.556995 -0.282765,-0.0036 0.480818,-0.340251 0.76162,-0.373708 0.29679,-0.03536 0.585844,0.118843 0.878766,0.178265 3.874877,1.711573 6.624014,5.358664 9.387348,8.455914 3.666118,4.22614 6.930641,8.77243 10.342266,13.201 3.953035,4.84093 8.037007,9.57427 12.212017,14.22466 3.519207,3.97126 7.024834,7.95798 10.414349,12.04093 3.389038,4.18948 6.671768,8.46077 10.079758,12.63547 4.805,5.59777 10.18074,10.66698 15.44149,15.82803 5.06055,5.22522 10.7769,9.70731 16.54725,14.10619 7.06574,5.17495 14.05821,10.44884 21.19381,15.52827 4.57088,3.16171 9.0601,6.43421 13.35497,9.96251 4.66373,3.80691 9.36219,7.5706 14.08471,11.3045 4.23215,3.32096 8.52967,6.5555 12.75025,9.89131 3.46946,2.71177 6.62452,5.78277 9.80998,8.8131 3.37333,3.0942 7.16073,5.68479 10.74367,8.52239 3.55595,2.59925 6.69003,5.70448 10.0834,8.49862 4.54557,3.6116 8.79779,7.56653 13.17478,11.37565 6.96238,5.48281 13.81817,11.06522 20.38853,17.01546 5.57442,5.38131 11.33641,10.56157 17.36882,15.42424 5.95749,4.77562 12.17638,9.20953 18.24581,13.84017 5.31355,4.06019 10.50623,8.27328 15.93089,12.18586 5.70012,3.87213 11.20305,8.01824 16.62775,12.26456 5.23244,3.97174 10.0071,8.48164 14.76428,12.99678 4.3672,4.25684 8.70569,8.53811 13.1734,12.68991 4.35254,4.03296 8.84968,7.90415 13.36584,11.75139 3.55751,3.2411 7.37813,6.18512 10.89564,9.46772 3.12486,2.76138 5.80716,5.97269 8.50671,9.13818 2.47871,3.05753 5.06256,6.02784 7.50878,9.11187 1.53887,1.9692 3.09538,3.93336 4.44767,6.03739 1.02282,1.69682 2.02156,3.42128 2.77366,5.25723 5.7207,25.62624 0.47243,4.04361 75.23515,-3.17528 0.93138,-0.0899 -0.24887,-1.85519 -0.40559,-2.77769 -0.54177,-3.18891 -1.11519,-6.3484 -1.55697,-9.55505 -0.86407,-6.53531 -1.29029,-13.11157 -1.65094,-19.68972 -0.0796,-8.44175 0.13712,-16.87826 0.15192,-25.32081 -0.11212,-10.67955 -0.0437,-21.36004 -0.12816,-32.03972 -0.0636,-8.93319 0.20345,-17.86297 0.0409,-26.79514 -0.33569,-7.34858 -0.72585,-14.69934 -1.38682,-22.02637 -0.32641,-5.71 -1.0348,-11.37845 -1.76537,-17.04693 -0.65786,-5.42626 -1.27038,-10.85042 -2.10935,-16.25367 -0.65826,-4.86595 -1.18668,-9.74899 -1.43549,-14.6536 -0.16548,-4.10759 -0.19478,-8.21751 -0.14852,-12.32751 0.071,-4.38185 -0.13854,-8.75329 -0.44713,-13.12222 -0.43048,-4.66185 -0.65802,-9.3341 -0.73752,-14.01401 -0.0433,-3.9327 -0.25975,-7.8616 -0.40061,-11.79214 -0.13417,-4.88485 -0.28032,-9.77083 -0.32109,-14.65724 -0.0704,-5.4256 -0.0582,-10.85606 0.15406,-16.27854 0.0707,-3.717 0.18798,-7.43175 0.11746,-11.14928 -0.15279,-3.00108 -0.17475,-6.00572 -0.22359,-9.00942 -0.0543,-2.96085 -0.12874,-5.92256 -0.10133,-8.88428 -0.0268,-2.89543 0.0277,-5.79008 0.0711,-8.68512 -0.003,-2.54048 0.11278,-5.07696 0.4187,-7.599053 0.23505,-2.070169 0.55838,-4.126295 0.7626,-6.200422 0.11781,-1.568138 0.13894,-3.138645 0.24511,-4.707281 0.12444,-1.600035 0.20521,-3.203315 0.27745,-4.806472 0.006,-0.22496 0.0117,-0.44992 0.0176,-0.67488 0,0 -75.22813,-0.12589 -75.22813,-0.12589 v 0 c -0.001,0.205043 -0.003,0.410085 -0.004,0.615128 -0.003,1.471283 -0.0511,2.941475 -0.19102,4.406886 -0.1363,1.560813 -0.15871,3.122056 -0.22455,4.686517 -0.12318,2.040486 -0.38947,4.067962 -0.52793,6.107258 -0.18787,2.761209 -0.42932,5.527409 -0.41002,8.296049 0.0418,2.89741 0.0932,5.79443 0.0674,8.69218 0.0317,3.01154 -0.0466,6.02275 -0.004,9.03424 0.0755,3.02643 0.28688,6.04723 0.40103,9.0721 0.14835,3.64011 0.0863,7.28806 0.2115,10.92982 0.20957,5.4265 0.21707,10.86062 0.1544,16.2902 -0.0281,4.94595 -0.17658,9.8914 -0.10865,14.83833 0.0623,3.95582 0.25351,7.90691 0.4381,11.85856 0.24393,4.73022 0.57747,9.45481 0.91928,14.17879 0.18229,4.24352 0.2495,8.48032 0.16033,12.72785 0.0786,4.25519 0.0923,8.51527 0.38976,12.76251 0.37539,5.1148 0.85137,10.22388 1.68742,15.28741 0.76785,5.3667 1.49768,10.73632 2.02019,16.13414 0.76091,5.58734 1.65443,11.15493 2.16064,16.77507 0.72964,7.15976 1.41876,14.33113 1.79309,21.51873 0.32044,8.8865 0.30845,17.78485 0.55402,26.67435 0.13976,10.60925 0.5364,21.2241 -0.0287,31.82991 -0.29895,8.55984 -0.80096,17.11804 -0.76528,25.68619 0.0627,6.84267 0.41992,13.66958 1.36106,20.45386 0.40998,3.05902 0.9143,6.11634 1.05179,9.20411 0.0277,0.62162 -0.62324,1.86116 -0.001,1.8667 74.06895,0.65927 86.74475,-23.15234 74.50383,-0.57583 -1.36035,-1.50765 -1.90844,-3.59477 -2.99548,-5.28891 -1.42035,-2.51179 -2.96887,-4.93958 -4.88911,-7.10904 -2.56918,-3.02847 -5.0659,-6.11835 -7.65102,-9.13373 -2.78227,-3.46193 -5.67251,-6.81754 -8.68357,-10.08334 -3.6078,-3.36678 -7.28193,-6.62982 -11.11185,-9.74584 -4.49668,-3.91499 -9.28802,-7.4776 -13.71867,-11.46893 -4.44756,-4.07213 -8.72833,-8.31128 -12.99838,-12.56753 -4.8998,-4.72968 -9.96381,-9.29103 -15.18682,-13.66169 -5.41048,-4.31721 -10.80222,-8.66899 -16.40201,-12.73895 -5.59379,-3.74491 -10.97986,-7.76751 -16.31171,-11.87694 -6.03148,-4.46628 -12.01806,-8.99184 -17.91287,-13.63703 -6.12766,-4.89245 -12.52421,-9.46607 -18.25802,-14.83707 -6.35367,-5.97939 -12.67404,-12.01402 -19.53069,-17.4233 -4.39763,-3.57597 -8.34034,-7.60569 -12.48323,-11.46349 -3.39968,-2.88561 -6.87213,-5.68182 -10.16224,-8.70014 -3.51187,-2.7645 -6.96346,-5.60177 -10.66153,-8.12279 -3.4903,-2.83568 -6.50447,-6.17249 -9.91579,-9.10097 -4.26242,-3.56307 -8.80609,-6.76023 -13.28878,-10.03661 -4.68619,-3.52374 -9.1987,-7.25492 -13.60597,-11.12241 -4.57656,-3.75279 -9.1329,-7.53111 -14.25393,-10.54492 -7.26614,-4.72553 -14.45726,-9.57225 -21.08319,-15.1824 -5.63793,-4.19733 -11.25866,-8.44303 -16.39718,-13.25209 -5.17046,-4.82434 -10.27657,-9.73444 -14.99852,-15.00345 -3.43612,-4.09025 -6.59331,-8.38471 -9.79873,-12.6554 -3.4736,-4.20608 -7.04495,-8.32058 -10.74814,-12.32716 -4.09609,-4.53052 -8.22637,-9.0303 -12.11622,-13.74269 -3.53371,-4.38018 -6.7323,-9.00596 -10.17224,-13.45531 -2.86067,-3.590219 -5.9182,-7.027336 -8.69997,-10.675253 -0.29052,-0.32443 -0.60358,-0.630007 -0.87156,-0.97329 -0.29565,-0.378717 -0.33557,-1.175018 -0.81584,-1.188241 -82.034312,-2.258499 -62.745716,-22.375957 -76.678652,1.767742 -0.675037,1.155722 -1.404938,2.300001 -2.226366,3.353645 -1.509653,-0.06299 0.871631,0.09593 -0.615668,-0.212708 -0.727556,-0.150979 -1.194892,1.377117 -1.370715,1.731967 -0.511592,1.8038 -0.793772,3.644584 -0.640788,5.523069 0.07314,1.372108 0.164728,2.742209 0.296955,4.110309 0.134724,1.52469 0.143856,3.06253 0.47206,4.56583 0.321748,1.7513 0.724829,3.48663 0.916274,5.26106 0.383243,2.55343 0.483452,5.13396 0.577639,7.7115 0.197692,2.77773 0.625556,5.5283 1.116548,8.26868 0.531777,3.16543 1.006948,6.33903 1.42492,9.5215 0.299109,3.54083 0.313618,7.10156 -0.02163,10.64222 -0.222729,2.79766 -0.691558,5.57148 -0.873656,8.37379 -0.209112,3.30328 -0.09616,6.61231 -0.10025,9.92049 -0.09225,3.15646 -0.02686,6.31911 -0.04304,9.47572 -0.01581,3.81401 -0.08481,7.62989 -0.218938,11.44132 -0.205694,5.32637 -0.362746,10.65546 -0.306346,15.98663 0.0018,5.70591 0.03157,11.41378 -0.162513,17.11723 -0.230267,4.8454 -0.525417,9.68697 -0.528244,14.53981 -0.07698,4.39904 -0.35262,8.78896 -0.731064,13.17192 -0.15308,3.46372 -0.09408,6.93384 -0.148027,10.40041 -0.08146,3.48707 -0.223932,6.97319 -0.643844,10.43887 -0.552297,4.64433 -1.235665,9.27719 -1.459547,13.95433 -0.220579,3.74432 -0.713229,7.46236 -0.919131,11.20743 -0.07518,3.914 -0.239335,7.82658 -0.0769,11.7412 0.04408,4.86074 0.06845,9.72239 -0.0058,14.58293 -0.0086,4.66984 -0.06923,9.34028 0.15414,14.00719 0.100295,6.17394 0.266202,12.34815 0.46599,18.51949 0.157111,6.37488 0.330208,12.75573 -0.0077,19.12824 -0.223563,6.42803 -0.417813,12.85646 -0.214611,19.28913 0.08775,5.56345 -0.373445,11.16083 0.515592,16.67768 4.829278,26.5926 -0.05216,3.24129 75.517422,6.97621 0.47434,0.0235 0.3132,-0.90245 0.54879,-1.31481 0.41664,-0.72924 1.29679,-1.22656 1.89523,-1.77557 1.60119,-1.18766 3.14886,-2.44279 4.78618,-3.58083 1.66335,-1.38986 3.30507,-2.80416 5.07452,-4.06157 2.27401,-1.63758 4.55782,-3.25922 6.71259,-5.05572 2.22712,-2.04012 4.40236,-4.13135 6.61455,-6.1876 3.47095,-3.06845 6.98511,-6.0879 10.39423,-9.22527 4.50244,-4.1996 8.63672,-8.74975 12.38644,-13.63822 3.25849,-4.2114 6.43255,-8.48426 9.56706,-12.78871 3.24513,-4.04726 6.57453,-8.02147 10.3888,-11.55587 4.18692,-4.16134 8.43695,-8.27948 13.02798,-11.9973 4.63167,-3.58917 9.39041,-6.99615 14.28589,-10.2184 6.19665,-4.17274 12.31511,-8.45758 18.3655,-12.84015 6.72447,-4.74607 13.5031,-9.41417 20.37961,-13.93793 6.73019,-4.57164 13.25755,-9.434 19.75812,-14.32461 6.48766,-4.89629 13.04401,-9.70108 19.46229,-14.68805 7.00531,-5.40461 13.80428,-11.08198 21.02249,-16.20506 7.51554,-5.27831 15.26806,-10.19616 22.814,-15.42889 6.12807,-4.32931 11.8326,-9.15479 16.89927,-14.71264 6.50161,-6.75652 13.2201,-13.29731 19.89824,-19.87798 5.41522,-5.37731 10.77888,-10.82937 15.48243,-16.8545 4.79249,-6.05714 9.68346,-12.03512 14.44532,-18.1158 5.64349,-7.29508 11.28882,-14.59948 17.44481,-21.4754 8.68277,-9.72737 17.86243,-18.99517 28.00341,-27.22223 8.24497,-6.75841 16.62242,-13.43333 25.66208,-19.109681 z" />
  </g>
</svg>
