<?xml version="1.0" encoding="UTF-8" standalone="no"?>
<!-- Created with Inkscape (http://www.inkscape.org/) -->

<svg
   width="210mm"
   height="297mm"
   viewBox="0 0 210 297"
   version="1.1"
   id="svg1"
   inkscape:version="1.3.1 (9b9bdc1480, 2023-11-25, custom)"
   sodipodi:docname="infinity.svg"
   xmlns:inkscape="http://www.inkscape.org/namespaces/inkscape"
   xmlns:sodipodi="http://sodipodi.sourceforge.net/DTD/sodipodi-0.dtd"
   xmlns="http://www.w3.org/2000/svg"
   xmlns:svg="http://www.w3.org/2000/svg">
  <sodipodi:namedview
     id="namedview1"
     pagecolor="#ffffff"
     bordercolor="#999999"
     borderopacity="1"
     inkscape:showpageshadow="0"
     inkscape:pageopacity="0"
     inkscape:pagecheckerboard="0"
     inkscape:deskcolor="#d1d1d1"
     inkscape:document-units="mm"
     inkscape:zoom="1"
     inkscape:cx="385"
     inkscape:cy="547"
     inkscape:window-width="1850"
     inkscape:window-height="1016"
     inkscape:window-x="0"
     inkscape:window-y="0"
     inkscape:window-maximized="1"
     inkscape:current-layer="layer1" />
  <defs
     id="defs1" />
  <g
     inkscape:label="Lager 1"
     inkscape:groupmode="layer"
     id="layer1">
    <path
       style="fill:#000000;stroke-width:0.264583"
       id="path1"
       d="m 50.237418,106.77779 c -0.02566,2.56354 -0.389572,5.10782 -0.573913,7.66236 -0.174535,5.6485 0.518859,11.28663 1.012653,16.90537 0.938366,9.90295 1.23394,19.84885 1.495621,29.7877 0.152988,6.9123 0.292407,13.8249 0.315765,20.73901 0.0034,1.77027 -0.01021,3.54048 -0.03081,5.3106 -0.0042,0.47893 -0.03074,0.95739 -0.0096,1.43602 1.765453,1.02643 3.487452,2.13155 5.29636,3.07931 0.09686,0.0507 0.80391,-0.27319 0.96393,-0.35137 1.047618,-0.51181 1.944016,-1.22147 2.871597,-1.91997 2.89819,-2.38008 5.639049,-4.9439 8.614931,-7.23055 0.877729,-0.67444 1.777336,-1.31991 2.666005,-1.97987 0.994567,-0.7015 1.984746,-1.40926 2.983701,-2.10449 3.388157,-2.35801 6.808584,-4.66595 10.143599,-7.10004 3.21057,-2.34327 4.340201,-3.24519 7.512237,-5.68615 5.785803,-4.43484 11.182066,-9.35188 16.955436,-13.80211 0.89993,-0.69369 1.82174,-1.35852 2.73261,-2.03778 2.97567,-2.14418 6.05371,-4.14339 8.96329,-6.37947 1.47173,-1.13106 2.26126,-1.815 3.67905,-2.99977 3.06897,-2.57916 5.90671,-5.4057 8.59703,-8.37272 2.00377,-2.27502 3.95054,-4.59973 5.98805,-6.84484 1.24569,-1.37183 2.55415,-2.68151 3.93764,-3.9137 0.96356,-0.77746 1.81965,-1.66336 2.63307,-2.59294 0.46882,-0.5241 0.89858,-1.09662 1.48022,-1.50279 0.47338,2.01007 0.026,-0.0363 -5.04222,-2.62792 -0.0856,-0.0438 0.13118,0.15065 0.15366,0.24414 0.0453,0.18853 0.0448,0.3861 0.0445,0.58 -8e-4,0.68242 -0.0912,1.25582 -0.17137,1.9385 -0.44504,2.79517 -0.71806,5.60283 -0.74839,8.43257 0.0223,0.54687 0.0322,1.09439 0.0669,1.64061 0.12555,1.97204 0.38132,3.93792 0.58952,5.90195 0.29472,2.78016 0.25495,2.46811 0.51307,5.33007 0.5982,6.90095 0.65722,13.82848 0.57,20.7494 -0.11349,6.2092 -0.32829,12.41582 -0.43945,18.62498 -0.0385,2.54619 -0.0694,5.09249 -0.10086,7.63877 -0.005,0.57707 -0.0247,1.15404 -0.0221,1.73115 0.0219,0.43899 -0.0617,0.87107 -0.12285,1.30355 -0.0717,0.4991 -0.0939,1.0029 -0.1206,1.50577 -0.18757,2.10379 -1.68377,-0.52963 5.04267,2.91309 -0.1187,-0.0851 -0.2481,-0.15688 -0.3561,-0.25517 -0.65275,-0.59406 -1.17079,-1.36841 -1.7047,-2.0624 -1.03759,-1.34869 -0.61907,-0.81116 -1.7326,-2.2065 -2.93033,-3.70423 -6.50662,-6.79509 -10.11756,-9.80794 -6.12178,-4.99192 -12.41044,-9.77343 -18.67703,-14.58069 -6.21759,-4.77422 -12.44582,-9.53489 -18.640703,-14.33859 -5.193054,-3.98923 -10.033908,-8.39783 -14.815109,-12.86337 -2.378125,-2.21388 -4.77888,-4.40668 -7.033963,-6.74786 -1.083694,-1.12507 -1.962449,-2.10438 -3.01267,-3.25631 -2.472749,-2.68923 -4.866585,-5.45216 -7.445293,-8.04151 -1.340266,-1.32619 -2.803451,-2.51862 -4.296638,-3.66664 -0.859618,-0.62696 -1.653156,-1.33502 -2.417212,-2.07356 -0.562232,-0.56072 -1.070859,-1.17201 -1.579626,-1.78078 -0.372864,-0.46605 -0.754983,-0.92397 -1.156208,-1.36584 -0.395425,-0.39026 -0.686713,-0.86568 -1.012298,-1.31194 -0.05003,-0.0658 -0.10006,-0.13159 -0.150091,-0.19738 0,0 -5.478089,-2.3527 -5.478089,-2.3527 v 0 c 0.05133,0.0659 0.102653,0.13185 0.15398,0.19777 0.353708,0.43933 0.653089,0.91253 0.987673,1.3651 0.413793,0.42927 0.817386,0.86823 1.18686,1.33682 0.505402,0.62722 1.029399,1.23982 1.567254,1.83937 0.753163,0.77596 1.554618,1.50982 2.41839,2.16141 1.534702,1.14284 3.045764,2.32431 4.436872,3.64084 2.643984,2.56689 5.067257,5.34418 7.559386,8.05634 0.738005,0.81007 2.268255,2.49895 3.015941,3.28188 2.266024,2.37282 4.693623,4.58292 7.106438,6.80354 4.831022,4.48524 9.698067,8.9392 14.928077,12.96283 6.214843,4.81028 12.454619,9.58853 18.696349,14.36379 6.23119,4.77204 12.46989,9.5371 18.54789,14.50428 3.53329,2.95524 7.04065,5.97627 9.91549,9.60095 1.21452,1.52177 2.35966,3.09378 3.54288,4.6395 1.8011,0.9355 5.46527,4.89307 5.81928,1.98418 0.0355,-0.49002 0.0255,-0.98337 0.0928,-1.47128 0.0603,-0.45646 0.17546,-0.90862 0.17378,-1.37059 -0.001,-0.58941 -0.0327,-1.1783 -0.0447,-1.76751 -0.0657,-2.5822 -0.11879,-5.16473 -0.131,-7.74782 -0.0196,-6.24015 0.11966,-12.47868 0.24962,-18.7172 0.12052,-6.91434 0.07,-13.82995 -0.41404,-20.73204 -0.20038,-2.5229 -0.42251,-5.04305 -0.64441,-7.5641 -0.10469,-1.18938 -0.23267,-2.37696 -0.31249,-3.56826 -0.0359,-0.53536 -0.0478,-1.07206 -0.0717,-1.60808 0.0343,-2.79827 0.27354,-5.58083 0.78066,-8.33611 0.13284,-0.87963 0.2712,-1.74626 0.30363,-2.636 0.006,-0.17669 0.15941,-0.4318 0.0126,-0.53027 -4.99936,-3.35234 -3.69608,-4.23008 -5.51714,-2.86427 -0.55454,0.48708 -1.01593,1.06168 -1.49151,1.62373 -0.79542,0.9124 -1.64674,1.76597 -2.56988,2.55082 -1.37328,1.26507 -2.67767,2.60045 -3.9128,4.00134 -1.99852,2.27239 -3.89622,4.63182 -5.9168,6.88539 -2.6471,2.9619 -5.44335,5.78267 -8.4783,8.3519 -1.58005,1.32687 -2.00543,1.70948 -3.64666,2.98399 -2.88443,2.23992 -5.9193,4.27323 -8.84283,6.46027 -0.896,0.69468 -1.80171,1.37701 -2.68801,2.08402 -5.68198,4.53259 -11.049792,9.44857 -16.822246,13.87012 -3.651489,2.77949 -7.325001,5.51564 -11.095887,8.13235 -1.514719,1.05111 -5.115946,3.46603 -6.691961,4.54185 -1.013333,0.69173 -2.020908,1.39185 -3.031363,2.08777 -0.913032,0.65277 -1.838182,1.28892 -2.739101,1.95831 -3.025505,2.24799 -5.809491,4.78934 -8.788331,7.09421 -0.901999,0.62934 -1.813029,1.34968 -2.878434,1.6912 -0.163073,0.0523 -0.334362,0.0902 -0.505608,0.0911 -0.09544,5.3e-4 -0.354013,-0.13719 -0.272714,-0.0872 1.624308,0.99881 3.272329,1.95854 4.908494,2.93782 -0.05236,0.0191 -0.102904,0.0703 -0.157067,0.0572 -0.04434,-0.0107 -0.04947,-1.04696 -0.05023,-1.1445 -0.03072,-1.81075 -0.105931,-3.62032 -0.179258,-5.42974 -0.279418,-6.98417 -0.551444,-13.96876 -0.73793,-20.95617 -0.282054,-9.9149 -0.548696,-19.83531 -1.311868,-29.7276 -0.419883,-5.54307 -0.952698,-11.10952 -0.751877,-16.67287 0.212511,-2.54196 0.545137,-5.07031 0.773083,-7.61096 z" />
  </g>
</svg>
