<?xml version="1.0" encoding="UTF-8" standalone="no"?>
<!-- Created with Inkscape (http://www.inkscape.org/) -->

<svg
   width="512"
   height="512"
   viewBox="0 0 512 512"
   version="1.1"
   id="svg1"
   sodipodi:docname="parenthesis_right.svg"
   inkscape:version="1.3.1 (9b9bdc1480, 2023-11-25, custom)"
   xmlns:inkscape="http://www.inkscape.org/namespaces/inkscape"
   xmlns:sodipodi="http://sodipodi.sourceforge.net/DTD/sodipodi-0.dtd"
   xmlns="http://www.w3.org/2000/svg"
   xmlns:svg="http://www.w3.org/2000/svg">
  <sodipodi:namedview
     id="namedview1"
     pagecolor="#ffffff"
     bordercolor="#999999"
     borderopacity="1"
     inkscape:showpageshadow="0"
     inkscape:pageopacity="0"
     inkscape:pagecheckerboard="0"
     inkscape:deskcolor="#d1d1d1"
     inkscape:document-units="px"
     inkscape:zoom="0.79687498"
     inkscape:cx="294.90197"
     inkscape:cy="278.58824"
     inkscape:window-width="1850"
     inkscape:window-height="1016"
     inkscape:window-x="0"
     inkscape:window-y="0"
     inkscape:window-maximized="1"
     inkscape:current-layer="layer1" />
  <defs
     id="defs1" />
  <g
     inkscape:label="Lager 1"
     inkscape:groupmode="layer"
     id="layer1">
    <path
       style="fill:#000000"
       id="path35"
       d="m 148.37073,32.355573 c 4.95532,2.90104 9.7074,6.11905 14.45051,9.34901 6.2899,4.43269 12.83398,8.48722 19.30562,12.64579 7.56685,5.02218 15.28302,9.8129 22.84874,14.8363 9.17172,6.1102 18.11447,12.54726 26.92674,19.1624 8.65683,6.66915 16.81703,13.940907 24.34337,21.859937 5.34718,5.68327 10.10422,11.86718 14.67825,18.17682 5.11022,6.96472 9.92989,14.13811 14.34263,21.56392 3.56992,6.17783 6.53133,12.66811 8.99138,19.35816 2.04275,6.80791 4.5759,13.44124 7.13767,20.06593 2.76992,7.09359 5.41904,14.22835 7.71741,21.48914 2.21784,7.32117 2.65874,14.96526 2.94685,22.55828 0.28429,7.3268 -0.0881,14.6301 -1.07571,21.88892 -1.27554,6.37395 -2.66566,12.72108 -3.89929,19.10468 -0.87046,6.95042 -3.00204,13.58374 -5.33003,20.15546 -3.06411,8.46655 -6.01407,16.97117 -9.18857,25.39783 -2.66183,7.27298 -6.02392,14.25641 -9.27693,21.27584 -3.50894,7.36054 -6.66484,14.86964 -10.41579,22.11346 -3.69693,6.76252 -7.64898,13.38697 -11.74438,19.91532 -3.97551,6.27145 -8.70836,11.97767 -13.8243,17.33838 -6.37232,6.40589 -13.11145,12.4329 -20.02691,18.24316 -6.39428,5.40088 -13.47366,9.87331 -20.44911,14.4652 -5.93364,4.25639 -12.30407,7.81212 -18.73525,11.24306 -5.50784,3.06254 -11.22722,5.69351 -17.00377,8.20079 -5.27573,2.25453 -10.68389,4.19292 -16.11114,6.04851 -4.32803,1.29453 -8.54113,2.78982 -12.63972,4.68741 -3.60918,1.71507 -7.03068,3.78865 -10.52975,5.71186 -2.41413,1.34708 -4.95451,2.43157 -7.5519,3.35924 -0.2851,0.069 -0.5702,0.13803 -0.8553,0.20704 0,0 55.90386,6.78586 55.90386,6.78586 v 0 c 0.27524,-0.14374 0.55048,-0.28747 0.82572,-0.43121 2.48063,-1.22985 4.88524,-2.60821 7.28874,-3.9819 3.36183,-1.8857 6.74279,-3.75796 10.34885,-5.146 4.10196,-1.5917 8.33612,-2.80828 12.44009,-4.3985 5.34165,-2.03898 10.689,-4.07533 15.87596,-6.48975 5.78403,-2.6658 11.48367,-5.50514 17.01059,-8.67566 6.33064,-3.64616 12.50919,-7.53967 18.50659,-11.71431 6.97704,-4.68853 13.86223,-9.51827 20.12881,-15.14672 7.02324,-6.05678 14.00338,-12.19848 20.48103,-18.84127 5.18059,-5.68568 9.85591,-11.77123 13.83692,-18.36682 4.22095,-6.63282 8.13144,-13.4576 11.725,-20.45166 3.60247,-7.36265 6.98816,-14.82274 10.44206,-22.2559 3.40644,-7.11694 6.7725,-14.27393 9.2375,-21.78447 2.96057,-8.48576 5.88159,-16.99053 9.15074,-25.36353 2.63344,-6.83326 4.90805,-13.75278 5.82236,-21.05413 1.22684,-6.47466 2.7093,-12.89998 3.72946,-19.41246 1.0096,-7.56477 1.22673,-15.21212 0.88365,-22.83621 -0.30543,-8.05199 -0.62338,-16.18862 -2.80927,-23.99518 -2.22232,-7.42891 -5.10572,-14.63026 -7.87637,-21.86794 -2.52248,-6.55639 -4.76978,-13.20436 -6.73338,-19.95048 -2.49966,-7.12316 -5.96182,-13.83987 -9.7267,-20.37401 -4.42553,-7.49163 -8.9418,-14.94018 -13.86562,-22.11737 -4.80099,-6.53903 -9.68076,-13.03989 -15.35784,-18.85911 -7.76871,-8.080367 -15.92703,-15.781057 -24.80138,-22.650657 -8.62934,-6.80772 -17.50065,-13.31018 -26.56929,-19.52171 -7.42561,-5.15275 -14.97121,-10.11768 -22.60087,-14.96319 -6.26863,-4.14699 -12.59005,-8.2206 -18.75217,-12.52405 -4.53803,-3.24811 -9.16779,-6.36085 -13.75924,-9.53181 z" />
  </g>
</svg>
