<?xml version="1.0" encoding="UTF-8" standalone="no"?>
<!-- Created with Inkscape (http://www.inkscape.org/) -->

<svg
   width="512"
   height="512"
   viewBox="0 0 512 512"
   version="1.1"
   id="svg1"
   sodipodi:docname="square.svg"
   inkscape:version="1.3.1 (9b9bdc1480, 2023-11-25, custom)"
   xmlns:inkscape="http://www.inkscape.org/namespaces/inkscape"
   xmlns:sodipodi="http://sodipodi.sourceforge.net/DTD/sodipodi-0.dtd"
   xmlns="http://www.w3.org/2000/svg"
   xmlns:svg="http://www.w3.org/2000/svg">
  <sodipodi:namedview
     id="namedview1"
     pagecolor="#ffffff"
     bordercolor="#999999"
     borderopacity="1"
     inkscape:showpageshadow="0"
     inkscape:pageopacity="0"
     inkscape:pagecheckerboard="0"
     inkscape:deskcolor="#d1d1d1"
     inkscape:document-units="px"
     inkscape:zoom="1.1269514"
     inkscape:cx="267.09226"
     inkscape:cy="237.80972"
     inkscape:window-width="1850"
     inkscape:window-height="1016"
     inkscape:window-x="0"
     inkscape:window-y="0"
     inkscape:window-maximized="1"
     inkscape:current-layer="layer1" />
  <defs
     id="defs1" />
  <g
     inkscape:label="Lager 1"
     inkscape:groupmode="layer"
     id="layer1">
    <path
       id="path13"
       style="fill:#000000"
       d="M 392.16016 66.669922 C 385.81873 66.831714 379.17672 68.152764 371.95312 71.632812 C 371.3635 71.740912 370.79979 71.936244 370.22852 72.099609 C 363.59239 72.146983 361.11192 72.207864 344.08008 72.199219 C 340.14192 72.197219 336.19392 72.456418 332.29883 73.039062 C 329.5022 73.54165 326.72721 73.889303 323.88477 73.863281 C 321.08448 74.145032 318.29091 74.486108 315.47461 74.578125 C 308.50336 75.108453 301.54342 75.783493 294.56055 76.148438 C 290.39127 76.326137 286.21807 76.434642 282.04688 76.564453 C 277.90444 76.224429 273.76029 75.894407 269.60742 75.695312 C 259.65145 75.326964 249.69397 74.95617 239.74609 74.410156 C 231.24145 73.96088 222.73031 73.836475 214.2207 73.519531 C 208.88117 73.246719 203.51835 72.750174 198.16992 72.726562 C 192.66023 72.702238 187.15035 72.707763 181.64062 72.693359 C 173.17367 72.660383 155.19683 72.590587 145.00391 72.417969 C 134.53249 72.241705 124.05074 72.070832 113.58789 71.564453 C 113.58383 70.620909 113.55782 69.676564 113.58984 68.732422 L 57.376953 68.732422 C 57.437293 70.516023 57.412802 72.29811 57.382812 74.082031 C 57.344005 75.513607 57.343428 76.94411 57.410156 78.375 L 49.488281 79.615234 C 52.137486 79.635309 54.786394 79.711533 57.435547 79.744141 C 57.489487 81.634596 57.530315 83.524892 57.548828 85.416016 C 57.604718 88.293903 57.538952 91.174699 57.513672 94.052734 C 57.446862 97.19028 57.315888 100.32627 57.304688 103.46484 C 57.226178 107.15115 56.966314 110.83032 56.414062 114.47852 C 55.858853 118.28817 55.339789 122.11213 55.115234 125.95703 C 54.909479 129.98478 54.96452 134.02328 54.695312 138.04883 C 54.372752 142.56983 54.216143 147.10859 53.638672 151.60742 C 53.233569 155.45658 52.6211 159.28313 52.308594 163.14258 C 51.985152 167.81501 51.90662 172.49771 51.578125 177.16992 C 51.359211 182.22894 51.228743 187.29093 50.955078 192.34766 C 50.583173 197.57949 50.046438 202.79864 49.707031 208.0332 C 49.474628 212.79111 49.159105 217.5442 48.871094 222.29883 C 48.605786 227.10875 48.520175 231.92617 48.355469 236.74023 C 48.127181 241.98029 48.05779 247.22783 48.25 252.4707 C 48.478363 258.61256 48.599607 264.75874 48.916016 270.89648 C 49.224614 277.00353 49.091731 283.10338 48.986328 289.21484 C 49.008498 295.73424 48.98923 302.25234 48.9375 308.77148 C 48.85916 314.75286 48.777643 320.73404 48.662109 326.71484 C 48.585269 331.83634 48.384626 336.95359 48.308594 342.07422 C 48.357774 345.59657 48.52798 349.1061 49.140625 352.58398 C 49.734763 355.98414 50.262362 359.39962 50.986328 362.77539 C 51.814774 366.6839 52.728318 370.56921 53.638672 374.45898 C 54.865167 380.05269 55.655615 385.71237 56.568359 391.36328 C 57.523255 397.29546 58.268511 403.26192 58.851562 409.24219 C 59.418862 414.38127 59.891989 419.53337 59.738281 424.71094 C 59.743481 427.52245 59.905067 430.33014 59.890625 433.14258 C 59.90985 437.22115 59.777769 441.34254 58.916016 445.3418 C 58.796174 445.48441 58.688906 445.64075 58.591797 445.80664 C 58.508257 445.97966 58.519966 445.95557 58.566406 445.86133 C 58.542833 445.90528 58.524323 445.94866 58.503906 445.99219 C 57.058696 446.19029 57.870739 447.00854 58.203125 449.70898 C 58.216735 449.81954 58.419184 449.76826 58.529297 449.78516 C 58.659572 449.80516 58.790591 449.80861 58.921875 449.82031 C 59.267024 449.82001 59.595779 449.75339 59.912109 449.65039 C 60.061606 449.64005 60.211365 449.62735 60.361328 449.62305 C 60.595685 449.61155 60.829896 449.62244 61.064453 449.61914 L 61.621094 449.61914 C 61.816843 449.61915 62.013236 449.61906 62.208984 449.61914 C 62.452265 449.61925 62.694219 449.62091 62.9375 449.62109 C 63.182846 449.62115 63.428524 449.62082 63.673828 449.61523 C 63.85056 449.60997 64.027037 449.59946 64.203125 449.58398 C 65.11847 449.58279 65.914324 449.59166 67.330078 449.58594 C 67.374942 449.58989 67.420019 449.59113 67.464844 449.5957 C 67.902091 449.6352 68.339827 449.68269 68.779297 449.67969 C 69.103827 449.6797 69.427423 449.67962 69.751953 449.67969 C 70.152245 449.67978 70.552833 449.67975 70.953125 449.67969 C 71.30096 449.6795 71.650257 449.68024 71.998047 449.67383 C 72.235499 449.66783 72.472356 449.65822 72.708984 449.63672 C 72.907146 449.60272 73.118632 449.65481 73.318359 449.63281 C 73.594506 449.63277 73.870338 449.63301 74.146484 449.63281 C 74.493158 449.63257 74.840827 449.63197 75.1875 449.63281 C 75.23184 449.63296 75.275967 449.63457 75.320312 449.63477 C 75.488027 449.65106 75.6566 449.65853 75.824219 449.67578 C 76.239346 449.72713 76.653608 449.78188 77.068359 449.83594 C 77.406635 449.9626 77.747174 450.08304 78.105469 450.14062 C 78.64393 450.22842 79.186992 450.26226 79.732422 450.27148 C 80.175826 450.28933 80.62006 450.31265 81.0625 450.34766 C 81.268963 450.37245 81.47701 450.38265 81.683594 450.40625 C 81.725247 450.41099 81.766973 450.41485 81.808594 450.41992 C 81.905525 450.43189 81.998805 450.43801 82.089844 450.43945 C 83.627705 450.60827 85.166982 450.76559 86.71875 450.80469 C 91.729058 451.13173 96.746138 450.97676 101.76367 451.02539 C 126.71326 451.4378 151.04735 457.16733 176.40625 452.01562 C 181.58378 451.76437 186.73067 451.26298 191.74023 449.84766 C 195.89387 448.98245 200.09709 448.61474 204.28711 447.98242 C 209.64661 446.91851 214.90126 445.38944 220.29492 444.49023 C 225.82998 443.5613 231.39462 442.81758 237.01562 442.70898 C 242.56097 442.50315 248.1033 442.27719 253.64062 441.9043 C 258.41676 441.60024 263.19071 441.26118 267.96484 440.92969 C 273.58154 441.37051 279.18953 441.91205 284.78906 442.5625 C 293.38211 443.21515 301.98141 443.75168 310.57617 444.37109 C 319.90998 445.32188 329.1876 446.76633 338.55469 447.39648 C 348.31862 448.0197 358.12093 448.4001 367.79102 449.99609 C 373.79523 450.98024 369.50409 450.2636 375.27539 451.26562 C 378.18961 451.7716 381.17377 452.17757 384.03906 452.93164 C 384.65315 453.09325 385.24653 453.33052 385.84961 453.5293 L 415.50391 449.87305 L 443.62695 449.73047 C 443.54855 448.68557 443.45397 447.64152 443.39062 446.5957 C 443.30813 444.68985 443.33955 442.78384 443.31445 440.87695 C 443.28765 438.52279 443.27391 436.16952 443.18555 433.81641 C 443.03591 430.63959 442.9396 427.45933 442.74219 424.28516 C 442.60947 422.26782 442.45405 420.24525 442.54883 418.22266 C 442.56383 416.93886 442.55134 415.65478 442.52734 414.37109 C 442.52034 412.69248 442.45144 411.01448 442.43164 409.33594 C 442.40184 406.87056 442.33415 404.40663 442.29688 401.94141 C 442.26758 399.11493 442.23994 396.28078 441.97852 393.46484 C 441.73543 391.2657 441.35357 389.0795 440.95117 386.9043 C 440.59926 385.01955 440.33086 383.12034 439.98242 381.23438 C 439.88562 379.7749 439.94937 378.31516 439.95117 376.85352 C 439.94317 375.69721 439.98248 374.54334 440.02148 373.38867 C 440.01148 372.35469 439.98706 371.32119 440.00586 370.28711 C 440.06926 367.85145 440.24322 365.41956 440.23633 362.98242 C 440.24977 361.29686 440.21547 359.60875 440.19531 357.92188 L 440.3418 357.92188 C 440.2942 356.46897 440.29195 355.01601 440.31445 353.5625 C 440.30975 352.99077 440.30114 352.41942 440.29883 351.84766 C 440.33436 351.18249 440.35785 350.51765 440.42188 349.85352 L 440.28125 349.85352 C 440.27562 349.24208 440.27998 348.63084 440.26562 348.01953 C 440.23273 345.91122 440.20423 343.80199 440.06836 341.69727 C 439.89502 339.3512 439.64447 337.00932 439.57031 334.65625 C 439.46975 331.3303 439.55589 328.00032 439.58789 324.67383 C 439.68994 320.28947 439.87938 315.9075 440.16602 311.53125 C 440.43461 307.55005 440.71974 303.56587 440.6582 299.57227 C 440.6942 296.08611 440.63666 292.6012 440.59766 289.11523 C 440.54876 285.0203 440.54092 280.92526 440.54102 276.83008 C 440.59352 272.90834 440.61 268.98647 440.5957 265.06445 C 440.5717 260.80637 440.44816 256.55199 440.37109 252.29492 C 440.39359 245.5416 440.59759 238.77384 441.33008 232.05664 C 442.2225 224.53052 443.46088 217.04449 444.04102 209.48242 C 444.75352 202.13911 445.57745 194.80162 446.07812 187.44141 C 446.19849 183.53546 446.11777 179.62429 445.89453 175.72266 C 445.545 172.31237 445.0816 168.9198 444.69922 165.51367 C 444.42575 161.60341 444.41615 157.68527 444.52734 153.76758 C 444.63431 150.98661 444.66506 148.20471 444.63086 145.42188 C 444.64146 142.82304 444.66908 140.22526 444.58398 137.62695 C 444.53938 134.5026 444.55403 131.37838 444.54883 128.25391 C 444.56413 125.44865 444.67284 122.64348 444.67188 119.83789 C 444.67787 117.6644 444.63418 115.49809 444.4375 113.33203 C 444.26075 110.87935 444.16738 108.42475 444.0918 105.9668 C 444.0489 103.77943 443.99387 101.59388 443.78711 99.414062 C 443.62113 97.612662 443.55469 95.805304 443.59766 93.996094 C 443.62096 92.727712 443.58356 91.45424 443.43555 90.193359 C 443.33945 88.849122 443.41893 87.500345 443.36523 86.154297 C 443.37833 84.753196 443.44018 83.35328 443.53125 81.955078 C 443.77565 79.426546 444.11604 76.8823 444.99414 74.484375 C 445.60603 73.375731 445.04342 71.687474 443.26367 71.654297 C 443.15041 71.652297 443.20769 71.653397 443.0918 71.650391 C 442.82613 71.641191 442.56218 71.623542 442.29688 71.607422 C 441.96716 71.595742 441.63655 71.598809 441.30664 71.599609 C 441.05761 71.599837 440.80955 71.600164 440.56055 71.595703 C 440.27111 71.589303 439.98126 71.579155 439.69336 71.546875 C 439.22096 71.491755 438.74807 71.440648 438.27148 71.460938 C 437.82112 71.462637 437.37001 71.463829 436.91992 71.480469 C 436.50381 71.497239 436.08822 71.529046 435.67188 71.535156 C 435.26822 71.542556 434.8643 71.557526 434.46289 71.603516 C 434.13142 71.640406 433.79934 71.686441 433.46484 71.675781 C 433.09479 71.675775 432.72553 71.675851 432.35547 71.675781 C 431.93377 71.675693 431.51154 71.675822 431.08984 71.675781 C 430.96613 71.675804 430.84247 71.677667 430.71875 71.677734 C 417.47611 71.073794 405.47944 66.330099 392.16016 66.669922 z M 378.25977 71.734375 C 379.23895 71.733879 378.65575 71.734716 379.62891 71.734375 C 379.3408 71.762436 379.05285 71.806827 378.76562 71.792969 C 378.59602 71.784769 378.08996 71.734465 378.25977 71.734375 z M 363.60547 72.613281 C 367.09207 72.614811 365.13095 72.622501 368.28516 72.625 C 368.22843 72.641064 368.17212 72.656128 368.11523 72.671875 C 366.60788 72.731665 365.11274 72.626431 363.60547 72.613281 z M 113.51758 80.705078 C 138.47254 81.06865 163.42733 80.981496 188.39258 80.984375 C 212.03629 81.039815 173.34092 80.94214 144.82617 81.0625 C 143.48308 81.0682 147.51127 81.137852 148.85352 81.185547 C 152.73071 81.323329 156.60476 81.532088 160.47852 81.742188 C 169.17202 82.211644 177.87757 82.329959 186.57812 82.603516 C 196.46527 83.05769 206.35558 83.452461 216.24219 83.917969 C 224.12181 84.166157 231.96639 84.959004 239.81836 85.611328 C 263.54106 87.378231 287.49769 86.351541 311.18945 86.361328 C 315.95338 86.183924 320.68814 85.605043 325.44141 85.287109 C 332.93327 84.995806 340.4231 84.785671 347.90625 84.306641 C 355.29126 83.678132 362.68803 83.181776 370.0957 82.929688 C 373.15633 82.734351 376.18918 82.356097 379.25781 82.296875 C 380.11574 82.265733 380.95759 82.135317 381.79492 81.980469 C 379.92018 82.021593 377.72677 82.090465 376.125 82.111328 C 376.1572 82.103764 376.18836 82.092517 376.2207 82.085938 C 376.38462 82.083238 376.54915 82.076929 376.71289 82.068359 C 377.00844 82.043199 377.29974 81.992846 377.5957 81.972656 C 377.79481 81.960656 377.99593 81.961597 378.19531 81.960938 C 378.42923 81.960596 378.66256 81.960716 378.89648 81.960938 C 379.13537 81.961142 379.37439 81.960906 379.61328 81.960938 C 379.8177 81.960955 380.02213 81.960939 380.22656 81.960938 C 380.4427 81.963637 380.65718 81.961601 380.87305 81.951172 C 381.06663 81.945672 381.27772 81.891892 381.45898 81.888672 C 381.58901 81.919532 381.83758 81.927255 382.04102 81.931641 C 381.95886 81.947525 381.87717 81.965258 381.79492 81.980469 C 382.9795 81.954484 384.53755 81.898062 385.83594 81.863281 C 385.95179 81.869728 386.06776 81.876561 386.18359 81.882812 C 386.5715 81.90582 386.95987 81.930349 387.34766 81.957031 C 387.16086 83.336139 387.13747 84.727907 387.13281 86.119141 C 387.10911 87.560894 387.09637 89.003633 387.13477 90.445312 C 387.18947 91.670111 387.25799 92.89571 387.33984 94.119141 C 387.34684 96.055621 387.56612 97.979095 387.72852 99.90625 C 387.9355 102.00904 387.95039 104.12202 388.10156 106.22852 C 388.28742 108.70383 388.31769 111.18746 388.43555 113.66602 C 388.52305 115.74747 388.58713 117.82762 388.64844 119.91016 C 388.69654 122.69083 388.79596 125.47085 388.81055 128.25195 C 388.80355 131.37632 388.81523 134.50077 388.76953 137.625 C 388.68363 140.22359 388.71206 142.82275 388.72266 145.42188 C 388.68846 148.20472 388.71883 150.98659 388.82617 153.76758 C 388.85917 157.80055 389.03116 161.83062 389.25 165.85742 C 389.51311 169.32 389.81926 172.77946 390.10742 176.24023 C 390.54745 179.98016 390.57421 183.74822 390.77734 187.50391 C 391.03127 194.67438 390.49529 201.83726 389.84375 208.97266 C 388.64282 216.43353 387.81453 223.93379 387.00781 231.44531 C 386.21782 238.33092 385.74012 245.2335 385.41602 252.1543 C 385.15586 256.45647 385.03509 260.76105 385.02148 265.07031 C 385.02248 268.99125 385.04807 272.91145 385.10547 276.83203 C 385.10947 280.92612 385.10289 285.0214 385.05469 289.11523 C 385.01569 292.60114 384.95629 296.08617 384.99219 299.57227 C 385.07439 303.45201 384.98088 307.32997 384.78516 311.20508 C 384.56826 315.61843 384.37322 320.03051 384.10742 324.44141 C 383.90113 327.87462 383.7731 331.3104 383.78906 334.75 C 383.78006 337.19458 383.84515 339.63454 383.99414 342.07422 C 384.12793 344.07188 384.16106 346.07465 384.16992 348.07617 C 384.15432 349.90434 384.15958 351.73235 384.14258 353.56055 C 384.16318 355.01442 384.15993 356.46671 384.11133 357.91992 L 384.9043 357.91992 C 384.85761 359.5284 384.77066 361.13632 384.64062 362.73828 C 384.44335 365.13502 384.08148 367.51247 383.82227 369.90234 C 383.68954 371.04497 383.60652 372.19203 383.57812 373.3418 C 383.60772 374.51433 383.65599 375.68527 383.65039 376.85938 C 383.63609 378.47949 383.68249 380.09456 383.83984 381.70703 C 384.07766 383.78075 384.54949 385.81832 384.88672 387.87695 C 385.30804 389.98069 385.63536 392.09991 385.98047 394.2168 C 386.36761 396.80043 386.41612 399.41456 386.46484 402.02148 C 386.47944 404.45804 386.40569 406.89392 386.37109 409.33008 C 386.34669 411.00951 386.27238 412.6876 386.26367 414.36719 C 386.23827 415.65188 386.22719 416.93784 386.24219 418.22266 C 386.23219 420.43551 386.66073 422.61511 386.92773 424.80469 C 387.28011 427.82963 387.35332 430.87741 387.32031 433.91992 C 387.30619 435.62503 387.29082 437.33003 387.27344 439.03516 C 379.48154 438.42444 371.73173 437.37665 363.9668 436.5 C 355.52539 435.64856 347.05569 435.12299 338.59766 434.46289 C 330.84565 433.81748 323.12096 432.89727 315.36328 432.31445 C 308.18117 431.8128 300.98404 431.64328 293.78711 431.54297 C 269.22496 431.39933 244.63132 430.46059 220.12891 432.31445 C 213.23816 432.92208 206.33105 433.30105 199.42188 433.62109 C 193.82442 433.98442 188.2143 434.03355 182.61523 434.35742 C 176.97019 434.64254 171.41431 435.77358 165.88672 436.88867 C 160.49385 438.30301 155.09553 439.57146 149.54492 440.14648 C 145.58366 440.19511 141.77605 441.16535 137.97852 442.16992 C 135.60621 442.05464 133.2351 441.91028 130.875 441.63281 C 128.61883 441.33136 126.36181 441.04453 124.10156 440.77539 C 119.42085 440.21964 116.95694 439.92972 115.00391 439.79297 C 115.15347 437.65956 115.35902 435.52822 115.56445 433.40234 C 115.98668 430.40827 115.67242 427.41269 115.36719 424.42578 C 115.02334 419.14345 114.37853 413.8914 113.78906 408.63281 C 113.14245 402.56412 112.38542 396.51606 111.41992 390.49023 C 110.47165 384.8226 109.72382 379.12488 108.85352 373.44531 C 108.17146 369.50962 107.3578 365.59848 106.61719 361.67383 C 105.99911 358.35405 105.32654 355.04409 104.84375 351.70117 C 104.29018 348.4605 104.05569 345.17441 103.88672 341.89453 C 103.53454 336.86895 103.6338 331.83677 103.7207 326.80469 C 103.7921 320.79806 103.74285 314.7898 103.68945 308.7832 C 103.57536 302.28797 103.68218 295.79908 103.92383 289.30859 C 104.17876 283.0893 103.91477 276.87443 103.69141 270.66016 C 103.39266 264.57448 103.24283 258.48737 103.30273 252.39453 C 103.31073 247.23321 103.32942 242.07459 103.42578 236.91406 C 103.64795 232.12056 104.0246 227.33775 104.18164 222.54102 C 104.38261 217.81956 104.68332 213.10445 105.06836 208.39453 C 105.38631 203.16785 105.5775 197.93586 105.89258 192.70898 C 106.30368 187.61172 106.62789 182.51469 106.8418 177.40625 C 107.00481 172.80818 107.26945 168.21638 107.78906 163.64453 C 108.36959 159.8366 108.73124 156.00282 109.11328 152.17188 C 109.45496 147.57714 109.75084 142.98098 109.97266 138.37891 C 110.1807 134.36004 110.46386 130.34671 110.8125 126.33789 C 110.94872 122.62875 111.35988 118.95843 111.9043 115.28906 C 112.55252 111.44145 112.74204 107.54655 112.92578 103.65625 C 113.06465 100.49896 113.22904 97.345089 113.3125 94.185547 C 113.4086 91.266766 113.35528 88.344731 113.42188 85.425781 C 113.44054 83.851714 113.48073 82.278814 113.51758 80.705078 z M 59.259766 449.70508 C 59.203262 449.76726 59.026936 449.72041 58.925781 449.74219 C 58.909391 449.74619 59.024702 449.72563 58.976562 449.73633 C 59.071548 449.72941 59.165062 449.71484 59.259766 449.70508 z " />
  </g>
</svg>
