<?xml version="1.0" encoding="UTF-8" standalone="no"?>
<!-- Created with Inkscape (http://www.inkscape.org/) -->

<svg
   width="512"
   height="512"
   viewBox="0 0 512 512"
   version="1.1"
   id="svg1"
   sodipodi:docname="triangle.svg"
   inkscape:version="1.3.1 (9b9bdc1480, 2023-11-25, custom)"
   xmlns:inkscape="http://www.inkscape.org/namespaces/inkscape"
   xmlns:sodipodi="http://sodipodi.sourceforge.net/DTD/sodipodi-0.dtd"
   xmlns="http://www.w3.org/2000/svg"
   xmlns:svg="http://www.w3.org/2000/svg">
  <sodipodi:namedview
     id="namedview1"
     pagecolor="#ffffff"
     bordercolor="#999999"
     borderopacity="1"
     inkscape:showpageshadow="0"
     inkscape:pageopacity="0"
     inkscape:pagecheckerboard="0"
     inkscape:deskcolor="#d1d1d1"
     inkscape:document-units="px"
     inkscape:zoom="1.1269514"
     inkscape:cx="267.09226"
     inkscape:cy="237.80972"
     inkscape:window-width="1850"
     inkscape:window-height="1016"
     inkscape:window-x="0"
     inkscape:window-y="0"
     inkscape:window-maximized="1"
     inkscape:current-layer="layer1" />
  <defs
     id="defs1" />
  <g
     inkscape:label="Lager 1"
     inkscape:groupmode="layer"
     id="layer1">
    <path
       id="path28"
       style="fill:#000000"
       d="M 229.4082 62.125 C 228.94923 63.597495 228.39358 65.040672 227.82812 66.478516 L 223.49805 66.621094 C 223.56295 66.806871 223.62844 66.991958 223.69336 67.177734 C 224.20525 68.612218 224.70031 70.051765 225.25 71.472656 C 225.31725 71.674731 225.40594 71.869347 225.47656 72.070312 C 225.40828 72.222938 225.34579 72.378804 225.27734 72.53125 C 223.46701 76.356915 221.25609 79.966129 219.39648 83.765625 C 216.52206 89.750605 213.70092 95.760146 210.74023 101.70312 C 207.46088 108.47136 204.01911 115.1456 200.35547 121.71289 C 197.21263 127.48439 193.66725 132.99539 189.89844 138.37305 C 186.15081 143.42895 183.01685 148.8841 179.74414 154.24805 C 176.48337 159.23711 173.44606 164.36032 170.53711 169.56055 C 168.2436 173.91791 165.77049 178.17718 163.33008 182.45312 C 161.10268 186.35624 158.61104 190.09773 156.25977 193.92578 C 153.83622 197.64853 151.56095 201.46356 149.22656 205.24219 C 146.22511 210.07973 143.35729 214.99956 140.30664 219.80664 C 138.61028 222.56154 136.58226 225.09983 135.00586 227.93164 C 134.12573 229.5127 133.35691 231.15155 132.53125 232.76172 C 129.79825 238.36436 127.07921 243.9495 123.76172 249.23438 C 120.90153 253.51739 118.08104 257.82666 115.25391 262.13086 C 113.21318 265.07225 110.97603 267.86988 108.79688 270.70898 C 107.44343 272.46359 105.8986 274.0484 104.31445 275.5918 C 102.33652 277.17038 102.17288 278.52676 101.47266 280.88867 C 100.3574 284.77675 99.340966 288.69169 98.40625 292.62695 C 96.889609 298.24946 94.861043 303.73271 92.695312 309.13477 C 91.278968 312.8524 89.71243 316.51164 88.123047 320.1582 C 86.879514 323.21761 85.448623 326.19067 84.103516 329.20508 C 82.796901 332.23315 81.470567 335.24648 79.976562 338.1875 C 78.481771 341.30773 76.835647 344.34275 75.144531 347.35938 C 73.523442 349.85515 72.005911 352.41568 70.580078 355.02734 C 68.995868 358.08052 67.2984 361.06645 65.59375 364.05273 C 64.047517 367.07018 61.865637 369.67567 60.0625 372.52539 C 58.024241 376.08978 56.234754 379.78478 54.052734 383.26562 C 52.624519 385.47026 51.025183 387.56176 49.451172 389.66406 C 47.575685 392.25877 45.608987 394.78182 43.619141 397.28906 C 41.960967 399.37158 40.139614 401.31304 38.453125 403.37109 C 37.142813 404.93716 35.734335 406.42278 34.455078 408.01367 C 33.161186 409.25981 32.423093 410.88058 31.564453 412.42773 C 30.781154 413.67656 29.937273 414.87395 28.957031 415.97461 C 28.369102 416.79066 27.675401 417.51851 26.980469 418.24219 L 35.693359 418.86523 L 82.984375 425.60742 C 92.753402 424.55979 102.58938 424.29333 112.40039 423.86719 C 125.06475 423.09366 137.75908 423.32056 150.42969 422.78906 C 159.20003 422.2462 167.93683 421.40132 176.66211 420.37891 C 177.16362 420.31275 177.66978 420.30162 178.17188 420.24219 C 176.86793 420.15904 176.59972 420.07352 177.83203 420.00391 C 178.63618 420.01784 179.43996 420.04291 180.24414 420.05469 C 180.82238 419.99618 181.40162 419.9494 181.98047 419.89844 C 185.04408 419.87736 189.06325 419.96556 193.00195 420.16211 C 208.36668 420.20756 223.73581 420.01879 239.09961 419.94531 C 219.15801 420.28169 206.65773 420.37277 196.95312 420.39844 C 200.01608 420.63065 203.07615 420.91499 206.13477 421.19336 C 230.62535 423.28082 255.27057 422.67612 279.82422 421.99023 C 283.04331 421.85371 286.2635 421.76864 289.48242 421.64062 C 305.14467 423.79866 321.01525 423.70029 336.86133 423.12891 C 358.9797 425.46555 381.32661 423.91198 403.51758 423.89648 C 404.54513 423.795 405.64776 423.73426 406.71875 423.64844 C 415.30481 423.61574 423.89049 423.59258 432.47656 423.56445 C 432.54426 423.5572 432.6101 423.55018 432.67773 423.54297 C 452.028 423.77461 471.3808 423.54143 490.73242 423.55078 L 457.0625 418.22656 L 491.67188 416.19922 C 488.63806 412.72621 486.73656 408.4717 484.5918 404.43359 C 481.53133 398.46689 477.44563 393.12834 473.59375 387.66797 C 467.33686 379.01917 461.72462 369.93441 456.45508 360.6582 C 452.24259 353.68776 448.61301 346.39059 444.37891 339.43359 C 440.98258 333.85313 441.04257 334.10492 437.26367 328.58398 C 429.35867 317.57083 421.73504 306.37274 414.32812 295.01953 C 406.93166 284.18209 400.8916 272.53647 394.70117 260.99609 C 390.9511 253.66333 387.2801 246.27691 383.14648 239.14844 C 382.12267 237.38286 378.52419 231.52921 377.41797 229.72266 C 371.68894 220.55783 366.53565 211.04934 361.03906 201.74414 C 356.08616 192.84869 350.88149 184.10489 345.56445 175.42383 C 340.81686 167.76728 335.92445 160.20141 331.01172 152.65039 C 327.23443 146.73988 323.42634 140.8487 319.83203 134.82422 C 316.62935 129.63461 313.42233 124.44945 310.23242 119.25195 C 307.24261 114.31783 304.30313 109.35288 301.54492 104.28516 C 299.37822 100.20922 297.11735 96.197526 294.56836 92.347656 C 292.30213 89.116056 290.28931 85.720725 288.20703 82.371094 C 286.6341 79.904544 285.04283 77.450182 283.64844 74.876953 C 283.08593 73.767018 282.64339 72.606371 282.17383 71.457031 C 283.14675 69.019114 284.13522 66.587466 285.32031 64.246094 L 229.4082 62.125 z M 196.95312 420.39844 C 196.4788 420.36248 196.00583 420.30752 195.53125 420.27539 C 194.7019 420.21924 193.85039 420.20445 193.00195 420.16211 C 188.74897 420.14953 184.49627 420.11698 180.24414 420.05469 C 179.554 420.12452 178.86103 420.16062 178.17188 420.24219 C 180.10959 420.36575 186.50719 420.42606 196.95312 420.39844 z M 255.68164 122.72656 C 258.77028 127.79334 261.96234 132.79481 265.0957 137.83398 C 268.89636 143.88747 272.84829 149.83661 276.82422 155.77734 C 281.77421 163.40808 287.22856 170.69594 292.05664 178.4082 C 297.49294 186.97711 302.269 195.92768 307.58203 204.57227 C 313.01153 213.98577 318.63531 223.28634 324.02344 232.72461 C 330.47934 242.71446 336.84858 252.76882 341.96875 263.53125 C 347.95456 275.37035 354.4988 286.92019 361.69336 298.07031 C 364.14418 301.81151 366.54531 305.5848 369.03711 309.29883 C 374.10138 316.8471 379.55511 324.12805 384.58398 331.70117 C 391.32318 341.95633 397.63523 352.48855 403.27344 363.39453 C 408.48311 372.67575 413.66018 381.97365 419.52734 390.86328 C 422.9274 396.21967 426.49593 401.48962 429.37305 407.1543 C 430.26066 408.79227 431.14312 410.43573 432.01562 412.08398 C 412.39134 411.76799 418.9996 411.30262 403.56641 412.44336 C 399.15109 412.8028 394.75702 413.35269 390.38867 414.09375 C 388.83423 414.27583 387.26749 414.33554 385.70703 414.47852 C 382.16682 414.13707 378.62463 413.84622 375.05664 413.77344 C 362.53694 412.9222 349.99119 412.76012 337.44336 412.91016 C 335.71122 412.59663 333.98075 412.26568 332.24219 412.02344 C 311.30489 409.10618 289.9434 410.86692 268.84961 411.93164 C 264.13645 412.22897 259.42108 412.47167 254.70312 412.64062 C 233.82665 410.82292 213.70095 408.42889 192.17383 410.59375 C 177.2208 410.57246 162.26749 410.572 147.31445 410.5957 C 146.09758 410.5977 144.88247 410.65795 143.66602 410.68945 C 136.67581 410.99217 129.70437 411.54758 122.76758 412.48242 C 114.36415 413.45251 105.93412 414.2172 97.482422 414.60938 C 94.353999 414.71248 91.224677 414.79668 88.095703 414.88477 C 88.846273 413.85154 89.69664 412.912 90.488281 411.89844 C 91.785481 410.38532 92.9966 408.79864 94.255859 407.25391 C 96.004212 405.19416 97.724467 403.11056 99.324219 400.93164 C 101.24236 398.32695 103.16693 395.72989 105.23438 393.24023 C 106.89131 391.00671 108.3208 388.62401 109.58594 386.14648 C 111.41772 382.60237 113.24436 379.02766 115.65234 375.83008 C 117.68537 373.00256 119.38579 369.96839 121.11523 366.94922 C 122.84672 363.9507 124.5626 360.94271 126.27539 357.93359 C 127.82907 355.36325 129.37806 352.78726 130.77734 350.12891 C 132.4152 347.01184 134.01948 343.8762 135.59766 340.72852 C 137.0476 337.68082 138.43367 334.6041 139.83789 331.53516 C 141.17367 328.50629 142.40523 325.43384 143.70312 322.38867 C 145.23811 318.6688 146.60552 314.88995 147.80859 311.04883 C 149.63825 305.40223 151.67315 299.82591 153.47461 294.16992 C 154.72885 290.45696 155.81424 286.66907 157.37891 283.07227 C 157.55917 282.76302 157.7109 282.43512 157.91992 282.14453 C 158.56864 281.24268 158.18014 281.91705 158.86523 281.40039 C 159.44959 280.9597 159.81205 280.25779 160.34375 279.76562 C 161.79897 278.01207 163.1019 276.14094 164.42188 274.28516 C 166.56455 271.34227 168.70608 268.39213 170.53711 265.24023 C 173.17331 260.85947 176.00376 256.59621 178.55859 252.16602 C 181.62971 246.66184 184.40779 240.99903 187.50781 235.50977 C 189.99309 231.22388 192.79924 227.13645 195.25195 222.83008 C 198.16219 217.91112 201.16751 213.05572 204.39062 208.33398 C 206.7935 204.55872 209.26486 200.82831 211.58008 196.99805 C 213.97576 193.16575 216.28528 189.28014 218.44727 185.31055 C 220.89664 181.00205 223.44109 176.74503 225.6543 172.30664 C 228.35272 167.18987 231.25724 162.19073 234.29492 157.26758 C 237.62589 151.93629 241.21848 146.78991 244.77344 141.60742 C 248.32499 136.0191 251.6123 130.27696 254.77734 124.46094 C 255.0901 123.88855 255.37365 123.30136 255.68164 122.72656 z M 222.36914 411.42383 C 231.15712 411.42596 215.30916 411.41956 229.27539 411.42578 C 230.34499 411.42626 227.136 411.43355 226.06641 411.43555 C 223.85211 411.43942 223.1182 411.42776 222.36914 411.42383 z M 270.22656 413.58984 C 271.80686 413.59157 271.84614 413.58775 273.49805 413.58984 C 274.54686 413.59084 271.40024 413.60985 270.35156 413.59375 C 270.32155 413.59328 270.25786 413.5904 270.22656 413.58984 z M 351.94531 413.93164 C 352.8533 413.93364 350.13233 414.03054 349.22461 414.05273 C 347.89803 414.08516 346.88546 413.99068 345.84375 413.94141 C 348.53692 413.94486 349.06131 413.92396 351.94531 413.93164 z M 425.66992 415.13477 C 427.18686 415.13623 428.70377 415.1326 430.2207 415.13477 C 431.00729 415.13577 428.6479 415.19858 427.86133 415.20508 C 427.12987 415.21107 426.40061 415.15599 425.66992 415.13477 z M 398.26367 415.35742 C 399.28712 415.35888 400.31054 415.35769 401.33398 415.35938 C 402.04261 415.36037 399.91761 415.4093 399.20898 415.4082 C 398.89344 415.40778 398.57918 415.36278 398.26367 415.35742 z M 458.49414 420.85352 C 465.65853 421.1957 459.79043 421.26176 450.82617 421.25 C 453.37727 421.04264 455.93548 420.9115 458.49414 420.85352 z " />
  </g>
</svg>
