<?xml version="1.0" encoding="UTF-8" standalone="no"?>
<!-- Created with Inkscape (http://www.inkscape.org/) -->

<svg
   width="512"
   height="512"
   viewBox="0 0 512 512"
   version="1.1"
   id="svg1"
   sodipodi:docname="A.svg"
   inkscape:version="1.3.1 (9b9bdc1480, 2023-11-25, custom)"
   xmlns:inkscape="http://www.inkscape.org/namespaces/inkscape"
   xmlns:sodipodi="http://sodipodi.sourceforge.net/DTD/sodipodi-0.dtd"
   xmlns="http://www.w3.org/2000/svg"
   xmlns:svg="http://www.w3.org/2000/svg">
  <sodipodi:namedview
     id="namedview1"
     pagecolor="#ffffff"
     bordercolor="#999999"
     borderopacity="1"
     inkscape:showpageshadow="0"
     inkscape:pageopacity="0"
     inkscape:pagecheckerboard="0"
     inkscape:deskcolor="#d1d1d1"
     inkscape:document-units="px"
     inkscape:zoom="0.796875"
     inkscape:cx="350.11765"
     inkscape:cy="320"
     inkscape:window-width="1850"
     inkscape:window-height="1016"
     inkscape:window-x="0"
     inkscape:window-y="0"
     inkscape:window-maximized="1"
     inkscape:current-layer="layer1" />
  <defs
     id="defs1" />
  <g
     inkscape:label="Lager 1"
     inkscape:groupmode="layer"
     id="layer1">
    <path
       style="fill:#000000"
       id="path1"
       d="m 211.20409,67.510247 c -4.48143,6.30887 -8.66111,12.807081 -12.74686,19.382523 -5.05095,8.3468 -10.19741,16.6331 -14.61549,25.33763 -3.62201,7.06901 -5.93967,14.69251 -8.43649,22.20475 -2.05149,6.25071 -3.66171,12.62909 -5.45468,18.95479 -1.34471,4.72276 -3.15327,9.28496 -5.12563,13.7752 -3.46064,8.02462 -7.54638,15.7653 -11.76082,23.41521 -5.52909,9.53284 -11.74672,18.63679 -17.98204,27.71527 -6.28038,9.25883 -12.45891,18.57949 -18.27194,28.14017 -3.88631,6.4665 -7.41357,13.13604 -11.11705,19.70647 -3.34709,5.27149 -6.15014,10.83616 -8.904907,16.43107 -3.078222,7.13852 -6.333389,14.19102 -9.852645,21.12236 -4.392871,8.20135 -8.032965,16.76741 -11.763874,25.28125 -3.395862,8.25038 -6.79101,16.505 -9.919991,24.86103 -3.199076,8.27744 -6.267865,16.60047 -9.332916,24.92746 -3.068906,8.68047 -6.50464,17.23054 -9.525993,25.92673 -2.223014,5.976 -3.917489,12.12544 -5.942749,18.16729 -1.705819,5.27253 -3.803907,10.39768 -6.129051,15.42318 -1.411128,2.88141 -2.813901,5.76568 -4.274637,8.62229 -0.959945,1.47932 -1.638661,3.10396 -2.400046,4.68742 -0.483996,0.99187 -1.039578,1.94325 -1.408272,2.98501 -0.569704,1.39497 -1.333753,2.74001 -2.207519,3.96965 -0.499983,0.54277 -1.018447,1.06697 -1.543848,1.58491 0,0 74.933774,5.09196 74.933774,5.09196 v 0 c 0.580971,-0.86834 1.160828,-1.73926 1.622028,-2.67977 0.800188,-1.589 1.655326,-3.14795 2.382036,-4.77388 0.56551,-0.94419 0.95286,-1.97805 1.38221,-2.98872 0.64817,-1.5354 1.39389,-3.02468 2.02521,-4.5674 1.30034,-2.98216 2.67228,-5.93735 3.782,-8.99836 1.97353,-5.29051 3.74439,-10.65431 5.62098,-15.97954 1.99948,-6.02109 3.74101,-12.11263 5.57622,-18.1857 2.73703,-8.62381 5.44681,-17.26615 8.85389,-25.65619 3.23138,-8.33756 6.77158,-16.55298 9.89944,-24.93016 3.06253,-8.19016 5.79342,-16.51507 9.41685,-24.48628 3.6821,-8.45285 7.77406,-16.69907 12.09218,-24.84495 3.54534,-6.98931 6.86814,-14.08257 10.36513,-21.09498 2.87433,-5.48183 6.01604,-10.81246 8.98884,-16.24072 3.35667,-6.49058 6.59063,-13.04622 10.10953,-19.45134 5.53101,-9.49135 11.38331,-18.79397 17.82734,-27.69807 6.35041,-9.26355 12.56073,-18.62984 18.22964,-28.3305 4.56427,-7.86967 8.94143,-15.84947 12.99839,-23.99405 2.2939,-4.86274 4.42921,-9.7984 5.48194,-15.10388 1.37081,-6.19529 2.63516,-12.42874 4.73313,-18.43344 2.37056,-7.16761 4.82214,-14.32944 8.1087,-21.13993 4.24734,-8.48086 9.08072,-16.634327 14.29636,-24.557594 4.40819,-6.496288 8.97212,-12.946517 14.52078,-18.534821 z" />
    <path
       style="fill:#000000"
       id="path2"
       d="m 218.81595,54.0395 c 3.66167,5.735607 6.8833,11.756277 9.90203,17.85273 1.94507,3.783187 3.4467,7.76112 5.01112,11.7095 1.28912,3.242629 3.00316,6.274698 4.74552,9.287226 1.44257,2.444283 2.81192,4.934135 4.32062,7.338104 2.0928,3.25945 4.27918,6.45803 6.31027,9.75701 1.76597,2.87851 3.46102,5.79656 5.14853,8.72141 1.79191,3.39415 2.95371,7.06244 4.41844,10.59941 2.03362,4.46731 4.2163,8.86151 6.2062,13.3492 1.77433,4.58514 3.31863,9.2598 4.85,13.93124 1.87202,5.63697 3.74307,11.27411 5.58852,16.9199 1.50182,5.0316 3.05336,10.04528 4.74735,15.01554 1.45504,4.30694 3.18339,8.51419 4.81957,12.75393 1.69359,3.97132 3.04793,8.06887 4.45978,12.14436 1.80344,5.43451 3.74305,10.81916 5.45626,16.28386 1.60969,5.23278 3.08172,10.50586 4.75429,15.71931 1.20683,3.92714 2.80889,7.70689 4.2947,11.53108 1.69401,3.79589 3.41152,7.58265 5.21757,11.32669 2.17748,4.63537 4.21265,9.33676 6.25732,14.03208 2.84125,6.26224 5.47195,12.62479 7.99512,19.02164 2.04823,5.52581 3.84965,11.13363 6.2144,16.53583 1.81204,4.17953 3.78142,8.28709 5.77712,12.38107 1.78822,3.55589 3.50533,7.14875 5.31443,10.69392 1.8713,4.05594 4.01146,7.97267 6.13689,11.89809 2.19391,4.02472 4.22755,8.1333 6.36101,12.18911 2.51188,4.26654 4.9901,8.53322 7.24189,12.94457 3.31358,6.83366 5.63004,14.07485 7.82531,21.32666 1.57339,5.60171 3.53158,11.06543 5.72647,16.44906 1.67345,4.14346 3.13305,8.36773 4.52157,12.61365 1.26085,3.85123 2.78911,7.60588 4.25364,11.38242 1.21835,3.24068 2.40878,6.48831 3.65247,9.71872 1.08513,2.78332 2.22917,5.54092 3.46941,8.2589 1.07118,2.45236 2.09109,4.92542 3.18976,7.36592 0.13364,0.29381 0.26728,0.58762 0.40093,0.88143 0,0 74.96815,-3.52947 74.96815,-3.52947 v 0 c -0.15656,-0.27686 -0.31312,-0.55372 -0.46968,-0.83058 -1.24716,-2.24767 -2.43254,-4.52933 -3.35937,-6.93181 -1.11269,-2.72028 -2.46392,-5.33882 -3.58035,-8.05944 -1.32213,-3.16883 -2.52078,-6.38994 -3.80733,-9.57366 -1.38426,-3.72848 -3.02348,-7.36101 -4.33982,-11.11571 -1.54031,-4.38131 -3.06559,-8.76735 -4.77078,-13.08886 -2.20012,-5.24551 -4.63089,-10.40291 -6.39184,-15.82259 -2.49631,-7.3688 -4.88501,-14.77337 -7.41886,-22.12847 -1.81958,-4.7446 -4.0478,-9.28978 -6.86796,-13.52876 -2.21971,-4.02894 -4.26236,-8.14905 -6.44968,-12.19512 -2.05613,-3.81958 -4.06398,-7.66804 -5.9339,-11.58221 -1.67334,-3.63942 -3.46403,-7.23034 -5.35183,-10.76333 -2.0275,-4.00951 -4.06434,-8.01436 -5.99122,-12.07366 -2.4307,-5.31023 -4.88865,-10.61211 -6.82667,-16.13011 -2.45049,-6.45571 -4.99404,-12.87304 -7.62113,-19.25905 -1.95748,-4.78996 -3.8119,-9.62181 -5.84233,-14.38163 -1.70951,-3.64413 -3.33327,-7.32199 -5.00901,-10.98096 -1.62424,-3.61043 -3.18115,-7.26693 -4.42722,-11.02615 -1.86158,-5.13675 -3.99996,-10.18261 -5.43626,-15.46688 -1.64173,-5.44683 -3.12786,-10.93952 -4.79819,-16.37802 -1.2558,-4.2902 -2.90333,-8.4536 -4.48115,-12.63361 -1.66628,-4.17432 -3.38389,-8.32805 -4.92345,-12.55183 -1.87126,-4.86372 -3.51449,-9.80873 -5.08601,-14.77678 -1.83955,-5.59556 -3.74975,-11.17092 -5.36339,-16.83749 -1.47444,-4.89061 -3.05014,-9.74947 -4.88317,-14.51959 -1.70984,-4.61369 -3.98156,-8.98769 -5.89587,-13.51907 -1.62266,-3.63562 -2.82263,-7.4217 -4.30341,-11.11344 -1.48816,-3.25797 -3.29733,-6.35914 -5.26476,-9.35075 -2.04999,-3.23117 -4.05626,-6.488214 -6.0986,-9.723766 -1.45081,-2.395135 -2.79917,-4.834595 -4.25188,-7.230553 -1.68212,-2.734987 -3.5615,-5.359286 -4.89564,-8.290368 -1.90567,-4.10758 -3.42839,-8.394647 -5.7337,-12.310593 -3.31536,-5.784454 -6.72091,-11.577152 -9.20851,-17.775189 z" />
    <path
       style="fill:#000000"
       id="path3"
       d="m 140.3898,331.39053 c 5.34071,-0.32203 10.69123,-0.44908 16.03985,-0.55793 4.32267,-0.0328 8.64179,-0.11113 12.95969,-0.3221 2.30678,-0.057 4.60112,-0.30526 6.90083,-0.46869 0.94524,-0.0115 1.89085,-0.0243 2.83631,-0.0299 4.30487,0.18838 -1.84015,-0.25602 1.21055,0.0935 2.30281,0.43004 4.7349,0.7073 7.09512,0.94956 4.11089,0.34363 8.23839,0.36977 12.36073,0.39334 2.6002,0.0101 5.20041,0.005 7.80061,0.003 2.31462,-0.002 4.62924,-0.003 6.94385,-0.003 2.17788,-2.8e-4 4.35576,-2.6e-4 6.53364,-2.5e-4 -2.1489,-0.0336 5.39724,0.0367 3.34921,3e-5 -1.55668,-0.0278 -1.35833,-0.024 -0.64193,0.0304 2.57976,0.18147 5.16378,0.28385 7.7489,0.34499 -0.87093,-0.0433 2.921,0.0759 2.19183,0.0291 -1.11889,-0.0718 -2.24174,-0.0584 -3.24306,-0.201 2.3408,0.41658 4.68818,0.79469 7.04522,1.10684 -1.64222,-0.17467 2.42891,0.33044 2.99984,0.40085 0.25773,0.0318 -0.51555,-0.0636 -0.7742,-0.0866 -0.0849,-0.008 0.16837,0.0267 0.25256,0.0401 0.64367,0.0891 2.33152,0.3598 4.30608,0.64599 3.57574,0.47846 7.18356,0.58634 10.78594,0.6442 2.18019,0.0273 4.3606,0.0256 6.54092,0.0244 2.01035,-0.002 4.0207,-0.003 6.03105,-0.003 2.01801,-4.6e-4 4.03602,-5e-4 6.05402,-5.2e-4 0.78545,0.0162 0.20712,-0.0308 2.45169,0.19626 0.86413,0.0875 1.72708,0.19315 2.58422,0.33349 2.60872,0.36255 2.39787,0.41289 5.83203,0.78809 1.90111,0.20743 3.81284,0.23771 5.7219,0.29788 0.21131,0.007 -0.42383,-0.0303 -0.63417,-0.009 -0.13709,0.0139 0.27478,0.021 0.41217,0.0315 2.62156,0.21318 5.25143,0.26885 7.88023,0.30518 2.40175,0.0242 4.80365,0.0248 7.20549,0.0249 1.66982,-5.8e-4 3.33965,-0.002 5.00947,-0.002 2.33876,0.005 4.66468,-0.24983 6.99948,-0.33075 0.9544,-0.0294 1.90929,-0.0359 2.86407,-0.0392 1.99811,0.0717 3.98186,-0.19804 5.96849,-0.32978 1.61754,0.15221 -3.24446,-0.0823 -1.98592,0.0188 2.04723,0.16839 4.10088,0.22567 6.15401,0.25829 1.3413,0.0178 2.68274,0.0174 4.02413,0.0171 -0.54592,-0.0194 2.18489,0.014 1.63882,-8.9e-4 -0.52155,-0.0143 -1.04338,-0.0158 -1.56499,-0.0278 -0.10882,-0.002 -0.43125,-0.0441 -0.32615,-0.0157 0.12383,0.0334 0.25567,0.0208 0.38351,0.0312 5.06455,0.58189 -2.03674,-0.35662 -0.5878,-0.10198 -2.73783,-0.52527 0.67395,0.15845 0.78002,0.17527 0.33847,0.0537 -0.69123,-0.3354 -1.00767,-0.20385 -0.0489,0.0203 0.75699,0.17408 2.69604,0.55608 -0.11019,-0.0196 -0.44016,-0.0817 -0.33058,-0.0589 2.41118,0.50185 4.83884,0.81808 7.29097,1.03347 1.80802,0.13872 3.62148,0.16911 5.43399,0.17452 53.45044,0.12813 53.63164,-75.4622 0.1812,-75.59033 v 0 c -0.77658,-7.8e-4 -0.22966,0.004 0.24479,0.0527 0.73874,0.0767 4.22557,0.65045 0.92973,0.0591 0.23658,0.0507 0.47339,0.10024 0.70973,0.15197 1.32205,0.28934 -5.28552,-1.16346 -3.97581,-0.82262 -2.038,-0.35289 -4.34711,-0.66638 -6.2782,-0.77054 -2.07309,-0.16679 -4.15107,-0.26344 -6.23127,-0.2322 -0.95971,1.9e-4 -1.91945,0.001 -2.87912,-0.009 -0.47954,-0.006 -0.9603,2.6e-4 -1.43832,-0.0403 -3.00961,-0.23029 -6.03091,-0.2975 -9.04303,-0.0674 -1.29877,0.094 -4.92302,0.31724 -0.42425,0.15139 0.21843,-0.008 -0.43717,7.6e-4 -0.65575,0.001 -1.84858,0.008 -3.69732,0.0284 -5.54479,0.0971 -0.25469,0.0105 -6.81384,0.29454 -4.04527,0.27222 -1.66247,4.4e-4 -3.32494,0.001 -4.98741,0.002 -2.0744,-4e-5 -4.14884,-2e-4 -6.22318,-0.0184 -1.19064,-0.0139 -2.38207,-0.0122 -3.56861,-0.12584 -0.54554,-0.0373 -5.28508,-0.33227 -3.24967,-0.12843 0.26139,0.035 0.6546,-0.11573 0.78278,0.11473 0.1543,0.27745 -1.6877,-0.37779 -1.96032,-0.28931 -2.42681,-0.39658 -4.86523,-0.73319 -7.31472,-0.95459 -3.29721,-0.32422 -6.60744,-0.5765 -9.92285,-0.56629 -2.02483,2e-5 -4.04966,6e-5 -6.0745,5.2e-4 -2.01701,5.7e-4 -4.03403,0.002 -6.05105,0.003 -1.78191,9.9e-4 -3.56388,0.003 -5.34571,-0.0156 -0.19392,-0.003 -3.20645,-0.12078 -1.58758,0.0592 1.05572,0.21748 -4.24682,-0.72954 -3.1972,-0.48431 -3.10914,-0.47207 -1.51026,-0.17248 -4.55813,-0.64388 0.84741,0.14198 -1.90249,-0.30316 -2.28664,-0.35698 -3.75695,-0.66964 -7.54693,-1.20234 -11.37482,-1.14292 -1.44868,-0.03 -2.89651,-0.0879 -4.34203,-0.19079 -2.60671,-0.17058 -5.21551,-0.23883 -7.82742,-0.2041 -2.18283,-1e-5 -4.36566,-4e-5 -6.5485,2.5e-4 -2.33378,4.5e-4 -4.66756,0.001 -7.00134,0.003 -2.4365,0.002 -4.87302,0.007 -7.30952,-10e-4 -1.89197,-0.0101 -3.79216,-0.0366 -5.67942,-0.0603 -1.42145,0.0422 -3.95509,-0.78806 -5.60286,-0.79381 -3.41733,-0.39054 -6.84903,-0.67064 -10.2924,-0.58193 -2.71657,0.0185 -5.4351,0.052 -8.14563,0.25109 -2.06536,0.16276 -2.82478,0.28391 -4.8282,0.33784 -3.59342,0.17983 -7.18745,0.20239 -10.78505,0.24614 -6.60567,0.13659 -13.21351,0.30437 -19.80795,0.7294 -53.31809,3.7613 -47.998808,79.16446 5.31928,75.40316 z" />
  </g>
</svg>
