<?xml version="1.0" encoding="UTF-8" standalone="no"?>
<!-- Created with Inkscape (http://www.inkscape.org/) -->

<svg
   width="512"
   height="512"
   viewBox="0 0 512 512"
   version="1.1"
   id="svg1"
   sodipodi:docname="atta.svg"
   inkscape:version="1.3.1 (9b9bdc1480, 2023-11-25, custom)"
   xmlns:inkscape="http://www.inkscape.org/namespaces/inkscape"
   xmlns:sodipodi="http://sodipodi.sourceforge.net/DTD/sodipodi-0.dtd"
   xmlns="http://www.w3.org/2000/svg"
   xmlns:svg="http://www.w3.org/2000/svg">
  <sodipodi:namedview
     id="namedview1"
     pagecolor="#ffffff"
     bordercolor="#999999"
     borderopacity="1"
     inkscape:showpageshadow="0"
     inkscape:pageopacity="0"
     inkscape:pagecheckerboard="0"
     inkscape:deskcolor="#d1d1d1"
     inkscape:document-units="px"
     inkscape:zoom="1.1269514"
     inkscape:cx="267.09226"
     inkscape:cy="252.89467"
     inkscape:window-width="1850"
     inkscape:window-height="1016"
     inkscape:window-x="0"
     inkscape:window-y="0"
     inkscape:window-maximized="1"
     inkscape:current-layer="layer1" />
  <defs
     id="defs1" />
  <g
     inkscape:label="Lager 1"
     inkscape:groupmode="layer"
     id="layer1">
    <path
       style="fill:#000000;stroke-width:1.14353"
       id="path31"
       d="m 162.44722,335.24683 c 1.33665,-5.26245 3.22734,-10.35458 5.38281,-15.33678 1.50985,-3.38051 3.13664,-6.72777 5.27823,-9.7662 1.48722,-1.82896 3.24813,-3.41493 4.89636,-5.09826 2.6324,-2.72096 5.69921,-4.98837 8.67881,-7.31924 4.30197,-3.98649 8.894,-7.63116 13.50538,-11.25633 5.19403,-4.27452 10.70875,-8.08568 16.75839,-11.07025 5.12845,-2.52886 10.54373,-4.28722 16.15004,-5.40053 6.52753,-1.19254 13.08969,-2.14957 19.70685,-2.67186 6.13018,-0.31858 12.24427,-0.89972 18.35691,-1.45557 7.32579,-0.86644 14.61261,-1.96089 21.85878,-3.3242 6.01062,-1.14216 12.14706,-1.38998 18.24681,-1.69069 5.18244,10e-4 10.14663,-1.23121 15.12996,-2.45514 5.24238,-1.19132 10.55855,-2.0033 15.85189,-2.92569 4.61147,-0.63669 8.96576,-2.24485 13.26239,-3.94131 4.72788,-2.1943 9.38389,-4.53493 14.06602,-6.82225 4.78282,-2.07339 8.31086,-5.12757 11.69713,-8.96689 2.94318,-3.60086 5.26504,-7.62102 7.79126,-11.50043 2.0709,-3.0705 3.81272,-6.31198 5.47256,-9.61072 1.47757,-3.19817 2.95132,-6.39295 4.22031,-9.67821 1.30787,-3.11459 2.63402,-6.22052 3.76817,-9.40175 1.20746,-4.15888 1.40243,-8.48531 1.62205,-12.77799 0.28916,-3.45979 0.28664,-6.93005 0.0726,-10.39264 -0.19799,-3.15801 -0.64294,-6.28925 -1.25912,-9.39203 -0.62698,-3.59501 -1.60508,-7.1034 -2.81909,-10.54365 -1.3722,-3.54131 -2.5917,-7.13731 -3.84978,-10.71907 -1.65122,-5.14318 -3.65798,-10.16018 -5.65945,-15.17694 -1.91498,-4.97194 -4.20667,-9.79766 -6.86221,-14.4233 -2.67941,-4.62748 -6.21524,-8.65838 -9.81658,-12.593975 -3.46074,-3.662152 -6.87791,-7.355931 -10.64476,-10.715121 -3.28412,-2.901983 -6.89574,-5.363176 -10.78262,-7.396675 -4.17918,-1.97585 -8.19183,-4.263859 -12.37474,-6.232787 -4.30227,-1.946418 -8.66558,-3.820784 -13.15067,-5.318385 -5.19188,-1.457858 -10.47787,-2.548739 -15.8074,-3.373571 -5.63081,-0.902066 -11.33335,-1.102226 -17.01975,-1.375825 -26.17796,-1.128385 -52.61845,-3.322723 -78.66269,-0.09401 -6.77054,0.697211 -13.51981,1.470863 -20.25459,2.454712 -5.69319,0.645384 -10.2123,2.813778 -14.61923,6.316343 -4.79697,4.331206 -8.04569,9.996356 -11.66177,15.264743 -3.89829,5.641288 -8.18009,11.001031 -12.78111,16.094841 -4.2539,4.55156 -8.70279,8.9053 -12.87887,13.52704 -3.48527,4.35216 -6.56923,8.98947 -9.28042,13.84521 -1.73604,3.9741 -3.84377,7.82668 -5.12536,11.97591 -1.00999,2.84198 -1.12137,5.7994 -1.26383,8.77096 -0.10652,3.77302 -0.264,7.54041 -0.11492,11.31391 0.28545,5.23553 1.96718,10.18674 3.72717,15.08272 2.01567,5.33811 3.8541,10.74477 6.14892,15.97468 2.04764,4.31396 4.78617,8.2324 7.76217,11.96078 3.26089,3.91282 6.7233,7.65781 10.14431,11.43375 2.67275,2.80889 5.10532,5.79505 7.41327,8.89794 1.93708,2.79551 3.97494,5.52311 6.17576,8.1215 2.30616,2.59768 4.77594,5.04547 7.18001,7.55438 2.31774,2.42521 4.89551,4.53011 7.69919,6.37605 3.53598,1.91049 7.30924,3.35195 10.97676,4.99715 3.35415,1.43834 6.66383,2.85134 10.22789,3.68426 5.61554,1.06317 11.30082,1.65468 16.97272,2.32756 5.98658,0.70074 11.88971,1.92423 17.75543,3.27435 5.26738,1.47966 10.58407,2.72141 15.95123,3.78652 4.64771,0.89279 9.30943,1.727 13.89113,2.91375 3.98478,1.10886 7.96048,2.2516 11.86003,3.62845 3.18156,1.12416 6.29911,2.41764 9.27941,3.99075 2.93155,1.875 5.64099,4.05903 8.48425,6.0627 4.20226,2.80947 8.00468,6.14734 11.76276,9.50161 3.62006,3.3077 7.32977,6.52416 10.74627,10.04001 3.20084,3.16332 5.86861,6.76897 8.36764,10.48184 2.16862,3.39863 4.0879,6.94179 5.78472,10.59105 2.10092,4.33812 3.85984,8.82125 5.4711,13.35535 1.41289,3.88036 2.37959,7.86373 2.84042,11.95802 0.3863,3.91563 0.77319,7.83047 1.08843,11.75232 0.17342,3.66355 0.35942,7.32689 0.44764,10.99359 0.17834,3.7518 -0.31049,7.48827 -0.78735,11.20145 -0.55359,3.63566 -1.35361,7.22577 -1.9901,10.84688 -0.43947,2.86733 -1.25843,5.6398 -2.16021,8.3907 -1.13199,2.57809 -2.26114,5.15218 -3.51687,7.67457 -0.98794,1.99794 -2.31586,3.73823 -3.8846,5.31469 -1.7652,1.65866 -3.86963,2.97538 -5.9575,4.208 -3.12864,1.75782 -6.13989,3.70394 -9.27255,5.45476 -3.30012,1.70575 -6.79077,3.02414 -10.08657,4.72891 -3.34722,1.65227 -6.74973,3.15855 -10.25993,4.43667 -3.0507,0.81779 -6.18595,1.26454 -9.23452,2.09272 -2.893,0.84819 -5.90084,1.17505 -8.86784,1.68105 -3.7915,0.70054 -7.66377,0.70738 -11.5069,0.75234 -3.43332,0.3045 -6.88286,0.52156 -10.33106,0.55968 -0.94849,0.0102 -3.79409,-0.0224 -2.84554,-0.0236 19.98198,-0.0259 39.96398,-0.0338 59.94596,-0.0506 -5.30034,0.0846 -10.56244,-0.64934 -15.82105,-1.20119 -4.95013,-0.55795 -9.91041,-1.0178 -14.85923,-1.58796 -5.41358,-0.80375 -10.86185,-1.20976 -16.32261,-1.52228 -4.78606,-0.24612 -9.55647,-0.68756 -14.33191,-1.07291 -4.30111,-0.4807 -8.56779,-1.22066 -12.79931,-2.11362 -5.0848,-1.06036 -10.07687,-2.46109 -15.00834,-4.07126 -4.16746,-1.31318 -8.20675,-2.94885 -12.12391,-4.86462 -4.36175,-2.48227 -8.90858,-4.60843 -13.39551,-6.8518 -3.74504,-1.74138 -7.31418,-3.8069 -10.86771,-5.89378 -2.50882,-1.24809 -3.89121,-2.67674 -5.25606,-5.08722 -1.63731,-3.52547 -2.71405,-7.26488 -3.80218,-10.98162 -0.97418,-3.89987 -2.45835,-7.63305 -3.95131,-11.35891 -1.24096,-3.0868 -2.62902,-6.11121 -4.03193,-9.12811 -1.52172,-3.26401 -3.25722,-6.43364 -5.06086,-9.55367 -1.25928,-2.15242 -2.67225,-4.21452 -3.667,-6.50478 -0.55265,-1.17377 -0.91793,-2.42547 -1.25239,-3.67439 -0.23771,-1.0501 -0.29776,-2.12826 -0.44598,-3.19261 -0.17003,-1.53884 -0.17772,-3.0875 -0.31149,-4.62847 -0.44223,-4.36345 -0.79542,-8.73366 -1.31706,-13.08894 -0.54306,-5.06491 -0.32395,-2.54651 -0.66169,-7.55482 0,0 -62.958526,0.4515 -62.958526,0.4515 v 0 c 0.396829,4.98112 0.249042,2.48032 0.44156,7.50251 0.03475,4.33675 -0.0072,8.66612 -0.113541,13.00058 0.0041,1.65031 -0.02036,3.30285 0.105831,4.94985 0.09232,1.34164 0.25555,2.68529 0.444027,4.0161 0.354256,1.66674 0.919885,3.27381 1.47914,4.8828 1.167229,2.5435 2.486089,5.00717 4.151369,7.27193 1.83399,2.87028 3.61017,5.75249 4.99331,8.87076 1.39271,2.95922 2.76361,5.92271 4.13721,8.88939 1.5494,3.46834 3.07206,6.9581 4.12878,10.61059 1.1414,3.98065 2.14896,8.00674 3.58725,11.89584 1.19107,3.19827 2.51446,6.59144 5.36288,8.70112 3.64486,2.5516 7.71691,4.41526 11.61902,6.54096 4.38604,2.16303 8.82213,4.24126 13.07359,6.65594 3.97466,2.37442 8.08358,4.47831 12.51494,5.9101 4.94676,1.73452 9.8963,3.49186 15.00759,4.70097 4.20117,1.06928 8.3977,2.14069 12.69288,2.7866 4.91596,0.84205 9.92691,1.06179 14.89843,1.39773 5.31787,0.36598 10.66457,0.42566 15.94633,1.18919 4.99411,0.66144 9.99919,1.24329 15.02021,1.6676 5.33046,0.58898 10.65516,1.20902 15.98546,1.794 26.50757,0.004 52.77571,0.88685 79.1454,-0.60516 4.02123,-0.25888 8.00696,-0.75142 11.9545,-1.56873 3.05587,-0.5587 6.05592,-1.2966 9.05329,-2.10379 3.12962,-0.70747 6.22028,-1.59707 9.10858,-3.00954 3.45687,-1.53002 6.84951,-3.19737 10.25833,-4.82851 3.49596,-1.52735 6.89976,-3.27218 10.15976,-5.24665 3.18393,-1.92213 6.43644,-3.74004 9.50436,-5.84194 2.37457,-1.76909 4.7183,-3.60784 6.41756,-6.05849 1.4867,-2.12717 2.64301,-4.4437 3.68811,-6.81112 1.32771,-2.81852 2.67895,-5.64496 3.62392,-8.61569 0.89051,-3.02622 1.58926,-6.09975 2.01828,-9.2253 0.60798,-3.68873 1.27129,-7.36977 1.75101,-11.07782 0.55949,-4.0615 1.05484,-8.14095 1.05019,-12.24714 -0.16917,-3.73828 -0.48003,-7.46408 -0.74189,-11.19662 -0.22403,-4.04178 -0.52337,-8.08717 -0.95672,-12.11129 -0.61919,-4.5306 -1.58541,-8.98926 -3.16759,-13.2974 -1.64687,-4.67048 -3.45809,-9.27924 -5.30836,-13.87428 -1.72148,-3.96406 -3.51148,-7.89942 -5.90771,-11.523 -2.52668,-4.10516 -5.27563,-8.07492 -8.52466,-11.66304 -3.46831,-3.72105 -7.03984,-7.30922 -11.01703,-10.51339 -3.77678,-3.41642 -7.4367,-6.96221 -11.36878,-10.20762 -2.80043,-2.07967 -5.67647,-4.05855 -8.29334,-6.36791 -2.92377,-2.28649 -6.1278,-4.04043 -9.60662,-5.37942 -3.96674,-1.57779 -7.9773,-3.0047 -12.09313,-4.15744 -4.71289,-1.41552 -9.43856,-2.68478 -14.31992,-3.42141 -5.32963,-0.93459 -10.67176,-1.83599 -15.86427,-3.37929 -5.99573,-1.68074 -12.10782,-2.93504 -18.24959,-3.96974 -5.33271,-0.77094 -10.70202,-1.26357 -16.01086,-2.18697 -3.48956,-0.39344 -6.93211,-0.77809 -10.12437,-2.36731 -3.64015,-1.28332 -7.09034,-2.99076 -10.6878,-4.37856 -2.79826,-1.04664 -5.36515,-2.62254 -7.60416,-4.58848 -2.52526,-2.19292 -4.69413,-4.71264 -7.05164,-7.07417 -2.25132,-2.35504 -4.41082,-4.78625 -6.28218,-7.45389 -2.37894,-3.35862 -4.79834,-6.7092 -7.75762,-9.60128 -3.42967,-3.69127 -6.94388,-7.30583 -10.28503,-11.07722 -2.80825,-3.31469 -5.29721,-6.82709 -7.45163,-10.59541 -2.77742,-4.79035 -4.84295,-9.8948 -6.65592,-15.11226 -1.42297,-4.31637 -2.68555,-8.72208 -2.93909,-13.28097 -0.15006,-3.53715 -0.0678,-7.0833 0.29885,-10.60698 0.2363,-2.45272 0.54137,-4.9005 1.19622,-7.2846 1.22437,-3.69073 2.67304,-7.31839 4.61291,-10.70618 2.53547,-4.43506 5.41897,-8.68579 8.88039,-12.47482 4.17813,-4.59604 8.64124,-8.93764 12.64768,-13.68626 4.48193,-5.39914 8.69256,-10.999465 12.7049,-16.749398 3.40985,-4.803782 6.85134,-9.797798 12.12321,-12.774981 4.37445,-2.144578 9.03033,-3.145059 13.88063,-3.651171 6.71621,-0.910503 13.46935,-1.572109 20.23753,-1.96006 23.49436,-0.105952 -2.07445,0.01478 -57.16367,-0.05787 -0.85263,-0.0011 1.70513,-0.04058 2.55772,-0.03217 1.098,0.01137 3.96734,0.142887 5.06621,0.200615 0.87094,0.04582 1.74132,0.101634 2.61198,0.152391 5.6662,0.190542 11.34267,0.283761 16.99227,0.776254 5.22748,0.602834 10.42977,1.336424 15.54756,2.580196 1.16374,0.236674 3.45173,0.666494 4.60274,1.037598 2.80904,0.905671 5.41583,2.392268 8.23842,3.270814 4.17742,1.836544 8.3938,3.590441 12.27041,6.018768 3.7432,1.771462 7.57645,3.375095 10.84243,5.975889 3.93414,2.904973 7.40444,6.300335 10.6894,9.905005 3.46696,3.52245 6.92418,7.10383 9.68397,11.21127 2.68308,4.3191 5.10862,8.78943 7.05442,13.48587 2.02016,4.79334 3.81178,9.67595 5.15946,14.69984 1.07637,3.71352 2.32325,7.36342 3.71237,10.97438 1.17816,3.11345 2.17459,6.26958 2.64385,9.57406 0.55556,2.83585 0.93012,5.70012 1.2388,8.57209 0.21657,3.22741 0.27286,6.45819 0.23417,9.69228 -0.16036,3.66017 -0.42759,7.37572 -1.81183,10.8164 -1.22516,3.07666 -2.52119,6.12449 -3.73453,9.20582 -1.35355,3.07182 -2.63027,6.18413 -4.195,9.15862 -1.62735,3.10626 -3.50945,6.07208 -5.2914,9.09291 -2.14914,3.60836 -4.4957,7.17337 -7.556,10.09844 -3.34249,2.9238 -7.23033,4.9933 -11.24973,6.88388 -4.66628,2.27563 -9.37903,4.51005 -14.34439,6.08321 -4.17892,1.33716 -8.45872,2.23828 -12.7984,2.90586 -5.31972,0.9337 -10.60617,2.03814 -15.88565,3.17157 -4.90325,0.914 -9.85665,1.28748 -14.83614,1.55676 -6.10986,0.50528 -12.20578,1.13593 -18.20636,2.43121 -7.09237,1.25015 -14.24229,2.22772 -21.42938,2.75036 -6.2794,0.44968 -12.5655,0.8924 -18.8251,1.55363 -6.56002,0.89787 -13.11621,1.95077 -19.53738,3.57215 -5.80585,1.72585 -11.49467,3.77287 -16.60609,7.06741 -5.76878,3.70892 -11.27906,7.78076 -16.65645,12.02405 -4.74969,3.70846 -9.38478,7.55668 -14.16993,11.21971 -3.19866,2.5462 -6.36844,5.13325 -9.2058,8.07873 -1.97052,1.99982 -3.80704,4.13546 -5.06194,6.66041 -1.69676,3.47129 -3.10136,7.05562 -4.41434,10.68489 -2.01305,5.18506 -3.68285,10.53382 -6.36266,15.43633 z" />
  </g>
</svg>
