<?xml version="1.0" encoding="UTF-8" standalone="no"?>
<!-- Created with Inkscape (http://www.inkscape.org/) -->

<svg
   width="512"
   height="512"
   viewBox="0 0 512 512"
   version="1.1"
   id="svg1"
   sodipodi:docname="atta_filled.svg"
   inkscape:version="1.3.1 (9b9bdc1480, 2023-11-25, custom)"
   xmlns:inkscape="http://www.inkscape.org/namespaces/inkscape"
   xmlns:sodipodi="http://sodipodi.sourceforge.net/DTD/sodipodi-0.dtd"
   xmlns="http://www.w3.org/2000/svg"
   xmlns:svg="http://www.w3.org/2000/svg">
  <sodipodi:namedview
     id="namedview1"
     pagecolor="#ffffff"
     bordercolor="#999999"
     borderopacity="1"
     inkscape:showpageshadow="0"
     inkscape:pageopacity="0"
     inkscape:pagecheckerboard="0"
     inkscape:deskcolor="#d1d1d1"
     inkscape:document-units="px"
     inkscape:zoom="1.1269514"
     inkscape:cx="267.09226"
     inkscape:cy="252.89467"
     inkscape:window-width="1850"
     inkscape:window-height="1016"
     inkscape:window-x="0"
     inkscape:window-y="0"
     inkscape:window-maximized="1"
     inkscape:current-layer="layer1" />
  <defs
     id="defs1" />
  <g
     inkscape:label="Lager 1"
     inkscape:groupmode="layer"
     id="layer1">
    <path
       id="path31"
       style="fill:#000000;stroke-width:1.14353"
       d="M 244.94336 63.341797 C 235.10007 63.369525 225.2783 63.818531 215.51172 65.029297 C 208.74119 65.726507 201.99259 66.498574 195.25781 67.482422 C 189.56463 68.127805 185.0456 70.296267 180.63867 73.798828 C 175.84171 78.13003 172.59264 83.796071 168.97656 89.064453 C 165.07828 94.705735 160.79633 100.06635 156.19531 105.16016 C 151.94142 109.71171 147.49248 114.06381 143.31641 118.68555 C 139.83114 123.0377 136.74634 127.67551 134.03516 132.53125 C 132.29912 136.50535 130.19174 140.35859 128.91016 144.50781 C 127.90017 147.34979 127.78894 150.30579 127.64648 153.27734 C 127.53996 157.05036 127.38217 160.8183 127.53125 164.5918 C 127.8167 169.82732 129.49978 174.77981 131.25977 179.67578 C 133.27543 185.01389 135.11339 190.42049 137.4082 195.65039 C 139.45584 199.96435 142.19392 203.88295 145.16992 207.61133 C 148.43081 211.52414 151.89345 215.26899 155.31445 219.04492 C 157.9872 221.85381 160.42057 224.83852 162.72852 227.94141 C 164.66559 230.73691 166.70348 233.46607 168.9043 236.06445 C 171.21045 238.66213 173.67992 241.10828 176.08398 243.61719 C 178.40172 246.0424 180.97953 248.1482 183.7832 249.99414 C 187.31918 251.90463 191.09225 253.34504 194.75977 254.99023 C 196.70048 255.82246 198.6425 256.60665 200.61133 257.31445 C 197.08201 257.58809 193.54777 257.81583 190.0293 258.1875 C 183.46928 259.08537 176.91335 260.13839 170.49219 261.75977 C 164.68634 263.48561 158.99813 265.53359 153.88672 268.82812 C 148.11794 272.53704 142.60785 276.60828 137.23047 280.85156 C 132.48078 284.56002 127.84569 288.40729 123.06055 292.07031 C 119.86189 294.61651 116.69087 297.20491 113.85352 300.15039 C 111.883 302.15021 110.04591 304.2856 108.79102 306.81055 C 107.09426 310.28183 105.68993 313.86683 104.37695 317.49609 C 103.1397 320.68291 102.01086 323.92097 100.71875 327.08984 L 96.689453 327.11914 C 97.086282 332.10026 96.938342 329.60086 97.130859 334.62305 C 97.165609 338.95979 97.123919 343.28859 97.017578 347.62305 C 97.021678 349.27336 96.996856 350.92527 97.123047 352.57227 C 97.215367 353.9139 97.377929 355.25904 97.566406 356.58984 C 97.920662 358.25658 98.487621 359.86367 99.046875 361.47266 C 100.2141 364.01615 101.53199 366.47938 103.19727 368.74414 C 105.03125 371.61442 106.80827 374.49697 108.19141 377.61523 C 109.58411 380.57445 110.95453 383.53723 112.32812 386.50391 C 113.87752 389.97224 115.40031 393.46275 116.45703 397.11523 C 117.59843 401.09588 118.60468 405.12067 120.04297 409.00977 C 121.23404 412.20803 122.55783 415.60126 125.40625 417.71094 C 129.05111 420.26253 133.12328 422.12626 137.02539 424.25195 C 141.41143 426.41498 145.84815 428.49353 150.09961 430.9082 C 154.07427 433.28262 158.18388 435.38657 162.61523 436.81836 C 167.56199 438.55288 172.50981 440.31042 177.62109 441.51953 C 181.82226 442.58881 186.01928 443.66073 190.31445 444.30664 C 195.23041 445.14869 200.24138 445.36719 205.21289 445.70312 C 210.53076 446.0691 215.8784 446.12905 221.16016 446.89258 C 226.15426 447.55402 231.15867 448.13624 236.17969 448.56055 C 241.51014 449.14953 246.83572 449.77049 252.16602 450.35547 C 278.67356 450.35947 304.94088 451.24201 331.31055 449.75 C 335.33177 449.49112 339.31809 448.99895 343.26562 448.18164 C 346.32149 447.62294 349.32099 446.88336 352.31836 446.07617 C 355.44798 445.3687 358.53944 444.48083 361.42773 443.06836 C 364.8846 441.53834 368.27673 439.86942 371.68555 438.23828 C 375.1815 436.71093 378.58571 434.96666 381.8457 432.99219 C 385.02963 431.07006 388.28169 429.25229 391.34961 427.15039 C 393.72418 425.3813 396.06832 423.54244 397.76758 421.0918 C 399.25428 418.96463 400.40998 416.64867 401.45508 414.28125 C 402.78279 411.46273 404.13316 408.63479 405.07812 405.66406 C 405.96863 402.63785 406.66864 399.565 407.09766 396.43945 C 407.70564 392.75073 408.36794 389.06937 408.84766 385.36133 C 409.40715 381.29983 409.90309 377.22142 409.89844 373.11523 C 409.72927 369.37696 409.41811 365.65051 409.15625 361.91797 C 408.93222 357.87619 408.63257 353.83076 408.19922 349.80664 C 407.58003 345.27605 406.61538 340.8179 405.0332 336.50977 C 403.38633 331.83929 401.57488 327.2298 399.72461 322.63477 C 398.00313 318.67071 396.21263 314.7349 393.81641 311.11133 C 391.28973 307.00617 388.54004 303.03734 385.29102 299.44922 C 381.82271 295.72817 378.25258 292.13971 374.27539 288.93555 C 370.49861 285.51913 366.83833 281.97392 362.90625 278.72852 C 360.10582 276.64885 357.23015 274.66873 354.61328 272.35938 C 351.68951 270.07289 348.48468 268.31946 345.00586 266.98047 C 341.03912 265.40268 337.02794 263.97696 332.91211 262.82422 C 328.77768 261.58244 324.61582 260.51558 320.36523 259.75977 C 322.38086 259.34534 324.39015 258.89511 326.39648 258.40234 C 331.63886 257.21102 336.95471 256.39895 342.24805 255.47656 C 346.85951 254.83987 351.21509 253.23161 355.51172 251.53516 C 360.23959 249.34086 364.89405 247.00021 369.57617 244.71289 C 374.35899 242.6395 377.88717 239.58541 381.27344 235.74609 C 384.21661 232.14524 386.53824 228.1255 389.06445 224.24609 C 391.13535 221.1756 392.87727 217.9335 394.53711 214.63477 C 396.01468 211.4366 397.48882 208.24229 398.75781 204.95703 C 400.06568 201.84244 401.39124 198.73591 402.52539 195.55469 C 403.73285 191.39581 403.92882 187.07002 404.14844 182.77734 C 404.4376 179.31756 404.43474 175.84735 404.2207 172.38477 C 404.02271 169.22676 403.57712 166.09496 402.96094 162.99219 C 402.33396 159.39718 401.35659 155.88751 400.14258 152.44727 C 398.77038 148.90596 397.55105 145.31027 396.29297 141.72852 C 394.64175 136.58534 392.63428 131.56949 390.63281 126.55273 C 388.71783 121.5808 386.42702 116.75454 383.77148 112.12891 C 381.09208 107.50143 377.55641 103.47075 373.95508 99.535156 C 370.49434 95.873008 367.07739 92.179499 363.31055 88.820312 C 360.02643 85.918332 356.41422 83.457325 352.52734 81.423828 C 348.34817 79.44798 344.33525 77.158379 340.15234 75.189453 C 335.85008 73.243037 331.48704 71.368693 327.00195 69.871094 C 321.81008 68.413237 316.52484 67.322878 311.19531 66.498047 C 305.56451 65.595982 299.86022 65.396646 294.17383 65.123047 C 277.81262 64.417807 261.34883 63.295584 244.94336 63.341797 z M 223.60547 74.351562 C 223.80569 74.353636 224.23276 74.379785 224.5293 74.388672 C 221.39681 74.385586 224.4029 74.389191 221.04688 74.384766 C 220.19425 74.383666 222.75288 74.343153 223.60547 74.351562 z " />
  </g>
</svg>
