<?xml version="1.0" encoding="UTF-8" standalone="no"?>
<!-- Created with Inkscape (http://www.inkscape.org/) -->

<svg
   width="512"
   height="512"
   viewBox="0 0 512 512"
   version="1.1"
   id="svg1"
   sodipodi:docname="B.svg"
   inkscape:version="1.3.1 (9b9bdc1480, 2023-11-25, custom)"
   xmlns:inkscape="http://www.inkscape.org/namespaces/inkscape"
   xmlns:sodipodi="http://sodipodi.sourceforge.net/DTD/sodipodi-0.dtd"
   xmlns="http://www.w3.org/2000/svg"
   xmlns:svg="http://www.w3.org/2000/svg">
  <sodipodi:namedview
     id="namedview1"
     pagecolor="#ffffff"
     bordercolor="#999999"
     borderopacity="1"
     inkscape:showpageshadow="0"
     inkscape:pageopacity="0"
     inkscape:pagecheckerboard="0"
     inkscape:deskcolor="#d1d1d1"
     inkscape:document-units="px"
     inkscape:zoom="1.1269514"
     inkscape:cx="282.1772"
     inkscape:cy="244.90851"
     inkscape:window-width="1850"
     inkscape:window-height="1016"
     inkscape:window-x="0"
     inkscape:window-y="0"
     inkscape:window-maximized="1"
     inkscape:current-layer="layer1" />
  <defs
     id="defs1" />
  <g
     inkscape:label="Lager 1"
     inkscape:groupmode="layer"
     id="layer1">
    <path
       style="fill:#000000"
       id="path3"
       d="m 35.963351,77.990351 c 0.387634,4.532866 -0.13216,9.082815 -0.56547,13.594809 -0.274525,2.207356 -0.382152,4.425757 -0.394853,6.648167 0.09774,2.648523 0.244959,5.296963 0.627846,7.920503 0.651673,4.36468 1.682744,8.65785 2.515813,12.98956 1.05937,5.95264 2.249192,11.88202 3.285746,17.83837 1.175862,5.39169 1.686883,10.87725 2.196942,16.3595 0.410922,6.06442 1.282817,12.08274 1.823784,18.13437 0.537898,6.26557 0.470704,12.55867 0.672711,18.83896 0.104155,5.19687 0.192068,10.39403 0.163241,15.59206 -0.07537,4.6668 -0.0255,9.33388 0.121673,13.99867 0.43385,5.98316 0.792568,11.96693 0.867289,17.96615 -0.0024,6.51057 0.07519,13.0217 0.194192,19.5311 0.0052,6.98958 -0.195587,13.9792 -0.370658,20.96652 -0.139399,6.24303 -0.156552,12.48834 -0.244127,18.73255 -0.01398,6.04168 0.06558,12.07892 -0.05178,18.11993 -0.281813,7.06421 -0.899926,14.10797 -1.483842,21.1518 -0.734046,7.39956 -1.014723,14.81417 -0.921256,22.24638 0.191589,8.94302 0.0064,17.88461 -0.218852,26.82475 -0.157517,5.77468 -0.358161,11.54812 -0.37856,17.32534 -0.0925,4.95047 0.01351,9.90029 0.05493,14.85034 0.05605,5.53707 0.07948,11.07329 0.141973,16.61059 -0.01392,3.56506 -0.04425,7.12968 -0.07394,10.69459 -0.02078,1.43727 -0.09388,2.87305 -0.151611,4.30915 0,0 75.103568,-0.009 75.103568,-0.009 v 0 c -0.0614,-1.45609 -0.14151,-2.91134 -0.18506,-4.36812 -0.0947,-3.61522 -0.26094,-7.22855 -0.50732,-10.8368 -0.24866,-5.46359 -0.41252,-10.93099 -0.23986,-16.40062 0.0411,-4.95118 0.14678,-9.90217 0.0499,-14.85373 -0.0261,-5.77567 -0.23749,-11.54715 -0.39758,-17.3202 -0.22082,-8.89355 -0.40812,-17.79359 0.0262,-26.68471 0.37758,-7.27249 0.6433,-14.55433 1.28846,-21.80997 0.53275,-7.15562 1.1674,-14.30424 1.61462,-21.46608 0.31469,-6.1185 0.3156,-12.2456 0.29309,-18.37117 -0.0664,-6.21076 -0.0528,-12.42053 -0.0125,-18.63133 0.0402,-7.02907 0.25829,-14.056 0.23884,-21.08562 0.10984,-6.55138 0.18732,-13.10839 -0.0197,-19.65852 -0.14143,-6.01643 -0.12234,-12.03576 -0.35687,-18.04999 -0.1235,-4.61219 -0.0735,-9.22304 -0.16031,-13.83573 -0.10485,-5.26662 -0.15,-10.53523 -0.43376,-15.79654 -0.24129,-6.39934 -0.54188,-12.79697 -0.93217,-19.18898 -0.46248,-6.06277 -1.08808,-12.11001 -1.36112,-18.18566 -0.48892,-5.72263 -1.37387,-11.38395 -2.57203,-17.00232 -1.08504,-5.93899 -2.06081,-11.89431 -2.92776,-17.86826 -0.71047,-4.1532 -1.44428,-8.30918 -1.91162,-12.49779 -0.17636,-2.33894 -0.42328,-4.68417 -0.30017,-7.032611 0.0147,-2.118045 -0.009,-4.235482 -0.0649,-6.35293 -0.0224,-4.570924 0.0456,-9.161183 0.68543,-13.69462 z" />
    <path
       style="fill:#000000"
       id="path6"
       d="m 114.11498,83.959257 c 10.11521,-0.635421 20.24714,-1.037205 30.36651,-1.6382 15.69415,-0.865512 31.40836,-1.22629 47.11888,-1.639382 11.48437,-0.240216 22.96115,-0.276927 34.42057,-1.122324 7.99536,-1.021715 16.03954,-1.468266 24.09107,-1.698075 5.11723,-0.131584 10.23609,-0.07551 15.35416,-0.0577 25.67471,0.05358 9.2738,0.0179 -68.94371,-3.4e-4 -0.89015,-2.07e-4 1.78029,-0.0084 2.67044,-0.0111 2.89877,-0.0086 5.79758,-0.0051 8.69636,-0.0084 5.71231,0.0045 11.42462,0.01024 17.13692,0.01817 5.98811,0.0024 11.97435,-0.08202 17.95953,0.129816 30.50131,1.124709 61.22095,3.225344 91.61966,0.172973 5.24275,-0.790248 10.53788,-0.999133 15.83022,-1.103464 25.08975,-0.281385 55.9643,-0.09578 -64.48289,0.0049 -0.96363,8.05e-4 1.92732,-0.013 2.89088,-0.0018 3.07773,0.03582 2.69772,0.05255 5.69883,0.266071 4.91506,0.448667 9.78022,1.276768 14.60702,2.287724 3.77698,0.93023 7.55338,1.937706 11.22749,3.225462 3.08695,0.892161 5.89346,2.421052 8.50893,4.257313 2.29615,1.641365 4.55817,3.323843 6.82679,5.002641 2.42443,1.874856 4.63695,3.998676 6.9134,6.044779 2.68011,2.093259 5.06414,4.522689 7.55598,6.827639 1.89934,1.82846 3.42902,3.95845 4.78101,6.20852 1.44931,2.37459 2.65338,4.88567 3.97026,7.33334 1.20993,2.28096 2.56525,4.49112 3.50129,6.90309 0.76162,2.18845 1.17351,4.48708 1.5657,6.76641 0.67002,3.12494 1.3029,6.25771 1.91414,9.39465 0.49987,3.16589 1.21408,6.29137 1.82918,9.43556 0.57725,3.22663 0.75609,6.50645 0.69884,9.77875 0.0228,3.47922 -0.12279,6.95578 -0.58676,10.40446 -0.33391,2.83177 -1.53747,5.40815 -2.3551,8.10201 -1.1733,3.88116 -2.86573,7.57407 -4.6047,11.22726 -1.9044,4.26214 -4.80697,7.94716 -7.68858,11.57886 -2.21052,2.98427 -5.30694,4.91132 -8.5345,6.61451 -3.14939,1.61577 -6.56056,2.67091 -9.93377,3.71537 -5.88201,1.75793 -11.82503,3.30773 -17.82088,4.62509 -6.67486,1.25149 -13.47252,1.68196 -20.22913,2.2904 -7.71938,0.76767 -15.4647,1.19593 -23.21727,1.42203 -25.28204,-0.22747 -58.89989,-0.0124 60.92551,-0.081 1.27724,-7.3e-4 -2.55469,0.006 -3.83164,-0.0205 -3.52037,-0.073 -4.45739,-0.17956 -8.04346,-0.42052 -9.35324,-0.70282 -18.72069,-1.17963 -28.0936,-1.51682 -7.55016,-0.17277 -15.09752,-0.44639 -22.64809,-0.601 -32.28861,0.0459 -64.62116,-0.47616 -96.91556,0.3504 -9.19694,0.41994 -18.40106,0.62271 -27.60651,0.71192 -1.31191,0.008 -2.62381,0.019 -3.93574,0.0248 -1.29748,0.006 -5.84864,0.0131 -7.19406,0.0138 -1.13174,6e-4 -4.52697,-9.7e-4 -3.39523,-10e-4 70.4961,-0.0143 92.70765,0.19067 65.96189,-0.0434 -8.55196,-0.61156 -17.07772,-1.45367 -25.64227,-1.90897 -31.8721,-1.14224 -63.78122,-0.39195 -95.670474,-0.22705 -4.116422,0.0182 -8.232946,0.0167 -12.34937,-3.1e-4 125.763224,21.22663 92.488274,-0.53108 66.734894,-0.13549 -0.12588,-0.004 -2.45934,-0.15106 -2.45873,-0.0178 0.0327,7.07527 -0.0916,5.97527 1.02551,10.34435 25.47451,-0.67062 59.11278,-0.33007 -61.071848,-0.0467 -1.409143,0.003 2.819249,-0.0361 4.227408,0.0166 1.334989,0.05 2.664773,0.19435 3.99716,0.29153 9.012723,0.81707 17.920639,2.45814 26.79137,4.20403 5.94907,1.16515 11.87257,2.46597 17.75529,3.9301 1.6504,0.44565 3.31718,0.82188 4.98859,1.17813 0,0 73.96143,-10.76814 73.96143,-10.76814 v 0 c -1.76697,-0.0767 -3.53529,-0.16555 -5.28235,-0.46564 -6.35457,-1.19983 -12.63706,-2.76663 -19.0001,-3.93024 -8.88227,-1.69029 -17.7333,-3.5771 -26.68867,-4.84926 -31.02841,-4.31253 -62.811001,-3.78253 -93.874255,-0.0375 -0.57671,0.8891 -1.595537,1.61611 -1.730132,2.66729 -1.043113,8.14664 -1.476749,8.14302 3.162014,8.70402 26.772917,3.98582 57.147063,-26.10335 81.257473,0.57903 3.87009,-0.0418 7.73992,-0.097 11.60963,-0.16649 1.74928,-0.0258 4.24693,-0.0647 5.96669,-0.0809 1.20586,-0.0113 4.82357,-0.0232 3.61766,-0.0243 -119.542973,-0.10835 -84.461065,-0.008 -59.0985,-0.0559 8.35843,0.26757 16.71502,0.66423 25.001,1.86794 31.05189,3.57919 62.51503,0.45843 93.73987,0.27614 9.07215,-0.23205 18.14089,-0.57039 27.21351,-0.77721 28.48507,-0.29668 79.6315,-0.37447 -47.81291,-0.22468 7.73347,0.0861 15.46309,0.31054 23.19556,0.43377 9.27944,0.16666 18.55411,0.48554 27.8095,1.20361 3.88058,0.32383 7.83628,0.97109 11.73438,0.98378 27.8995,0.0908 56.14952,0.77734 84.1795,-0.19996 7.83021,-0.41386 15.64837,-1.01517 23.45203,-1.78363 6.91054,-0.68536 13.82547,-1.46719 20.54836,-3.28987 6.20208,-1.60667 12.43057,-3.17086 18.47728,-5.30447 3.71054,-1.44177 7.34192,-3.01374 10.4725,-5.5339 3.24623,-2.61449 6.07592,-5.61911 8.34272,-9.13624 2.99893,-4.15798 5.79488,-8.47521 7.89846,-13.16579 1.76463,-3.94462 3.50244,-7.90342 4.96554,-11.9723 1.1923,-3.1082 2.00377,-6.34323 2.32291,-9.66305 0.41582,-3.7288 0.48164,-7.46168 0.58011,-11.2094 0.0381,-3.74566 -0.0901,-7.47689 -0.71697,-11.18107 -0.50854,-3.2077 -1.12948,-6.39805 -1.74411,-9.58708 -0.61399,-3.08482 -1.30976,-6.15926 -1.6972,-9.28338 -0.50618,-2.65943 -0.9229,-5.3367 -1.63599,-7.95473 -0.91013,-2.81798 -2.01493,-5.52188 -3.60911,-8.03502 -1.32938,-2.51924 -2.66965,-5.02979 -3.96374,-7.56737 -1.51245,-2.75655 -2.97791,-5.55233 -5.06084,-7.939405 -2.28295,-2.736674 -5.03387,-5.027326 -7.5184,-7.577841 -2.3673,-1.999484 -4.70042,-4.028899 -6.8985,-6.217288 -2.18735,-2.022182 -4.55464,-3.824929 -6.98079,-5.551291 -2.88512,-2.084129 -5.57929,-4.473602 -8.78845,-6.07762 -3.80234,-1.628475 -7.6563,-3.02454 -11.64014,-4.143503 -4.93579,-1.410345 -9.94527,-2.50413 -15.03366,-3.207771 -29.87112,-4.55571 -60.38281,-1.756265 -90.53657,-0.807044 -5.26723,0.318538 -10.50367,0.974115 -15.77408,1.223531 -25.94891,0.215302 -8.01191,0.05789 67.33459,0.0961 1.01745,5.16e-4 -2.03478,-0.02256 -3.05209,-0.03923 -2.16768,-0.03552 -4.38671,-0.08502 -6.55305,-0.15673 -1.09632,-0.03629 -2.19223,-0.08385 -3.28835,-0.125779 -5.90402,-0.29868 -11.79871,-0.665509 -17.7156,-0.487919 -5.75769,0.0069 -11.51539,0.0112 -17.27308,0.0082 -29.63904,-0.07798 -59.2782,-0.198958 -88.91749,-0.04172 -4.87359,0.04183 -9.74517,0.201563 -14.61064,0.491962 -7.85982,0.490003 -15.68675,1.315121 -23.53634,1.928455 -10.95438,0.605693 -21.92904,0.638056 -32.88991,1.099663 -15.73195,0.516271 -31.464784,1.02174 -47.187101,1.788969 -11.198543,0.49366 -22.402448,0.904093 -33.611588,1.036226 z" />
    <path
       style="fill:#000000"
       id="path7"
       d="m 125.19809,445.70638 c 1.234,-0.1172 2.46632,-0.25371 3.702,-0.35159 2.92598,-0.23178 8.22882,-0.54483 11.00198,-0.62586 2.27684,-0.0665 9.11073,-0.0852 6.83291,-0.0848 -69.49996,0.0133 -83.18002,-0.34452 -54.621513,0.27139 14.808673,0.71504 29.613393,1.44519 44.433613,1.87921 29.23879,0.47057 58.55584,1.78213 87.73636,-0.27266 4.31147,-0.3036 8.60907,-0.78018 12.91362,-1.16476 1.22025,-0.0909 2.43966,-0.19398 3.66076,-0.27269 2.63389,-0.16977 4.11481,-0.251 6.73073,-0.20654 1.0408,0.0177 4.16118,0.12601 3.12023,0.128 -66.7781,0.12758 -93.47717,-0.72543 -67.22281,0.0853 5.5674,0.19731 11.10264,0.85014 16.65793,1.23648 4.35479,0.27044 8.71708,0.39853 13.07933,0.46225 28.13009,0.17317 56.26132,0.0246 84.39195,0.0109 36.31213,0.003 -96.41364,-0.48088 -62.00522,0.0134 4.42058,0.21396 8.83402,0.52773 13.24969,0.82204 3.47574,0.24946 6.95875,0.34854 10.44199,0.41099 27.77761,0.16527 55.55608,0.0557 83.33411,0.025 3.15502,0.0102 6.31003,-0.006 9.46501,-0.0194 27.02301,-0.18247 68.43539,-0.0608 -54.99243,-0.071 30.79554,0.05 61.623,1.38839 92.34826,-0.78188 5.53256,-0.0724 11.00941,-0.81428 16.51011,-1.29094 5.69273,-0.19645 11.2947,-0.91378 16.82169,-2.26655 5.03918,-1.42742 9.93114,-3.30651 14.80806,-5.20385 3.79278,-1.82819 6.97637,-4.68899 10.31499,-7.2208 3.11896,-2.31706 5.83578,-5.10703 8.63843,-7.78385 2.53263,-2.64071 5.1858,-5.15802 7.83188,-7.68258 3.1014,-2.67522 5.50565,-6.00829 8.02652,-9.20855 2.35245,-2.88944 4.46466,-5.94715 6.32071,-9.17554 1.54383,-3.32466 2.77748,-6.77115 3.96241,-10.23425 0.97331,-4.08256 1.92594,-8.1761 2.7516,-12.2914 0.65583,-3.03769 1.2363,-6.09048 1.6914,-9.16479 0.4497,-2.90971 1.07026,-5.79546 1.72297,-8.66669 0.69601,-2.92338 0.84886,-5.9168 0.94868,-8.90647 0.0442,-3.30612 -0.0372,-6.61122 0.0167,-9.91763 0.11318,-2.74033 0.0373,-5.48138 0.082,-8.22251 -0.0719,-3.27841 -0.0941,-6.55779 -0.26054,-9.83312 -0.20094,-3.55124 -0.61378,-7.08875 -1.18527,-10.59869 -0.33829,-2.31058 -0.89915,-4.58087 -1.44741,-6.84859 -0.37865,-1.71604 -0.88963,-3.39765 -1.30435,-5.10459 -0.35414,-1.82847 -0.84286,-3.62659 -1.30075,-5.43078 -0.78731,-2.82416 -1.90633,-5.53833 -2.77091,-8.3386 -0.84074,-2.57374 -1.79823,-5.10606 -2.82636,-7.61009 -0.91353,-2.08225 -2.03896,-4.06362 -3.29951,-5.95338 -1.04087,-1.52052 -1.79706,-3.19586 -2.53968,-4.874 -0.71077,-2.17463 -1.90554,-3.90026 -3.52908,-5.4809 -1.99174,-1.83765 -3.99008,-3.66592 -5.96138,-5.52587 -2.3948,-2.40831 -4.94708,-4.65149 -7.44726,-6.94818 -2.18611,-1.9337 -4.25883,-3.9881 -6.31733,-6.05545 -1.6759,-1.62075 -3.32432,-3.26809 -4.94316,-4.94561 -1.50547,-1.47321 -2.82998,-3.17074 -4.47094,-4.49249 -2.28044,-1.46802 -4.83719,-2.50936 -7.39449,-3.3963 -3.17395,-0.9895 -6.47764,-1.52434 -9.75545,-2.05196 -3.49114,-0.60378 -6.97211,-1.24621 -10.44602,-1.94308 -3.47922,-0.54211 -6.89701,-1.38869 -10.27153,-2.38265 -2.88923,-0.72502 -5.79134,-1.40294 -8.71027,-1.99726 -2.22755,-0.47742 -4.46444,-0.88542 -6.68577,-1.39487 -2.00812,-0.49193 -4.04714,-0.87001 -6.11751,-0.74272 -2.20697,-0.0916 -4.40094,-0.34907 -6.60734,-0.47128 -22.21441,14.61548 -55.21389,-5.89966 -81.37004,1.27801 -2.38555,0.47053 -4.83152,0.35968 -7.2496,0.32333 -2.47474,-0.0562 -4.94996,-0.0702 -7.42519,-0.0837 125.09634,0.24703 92.09854,0.004 65.81909,-0.003 -2.17935,0.004 -4.35869,-0.01 -6.53794,-0.0298 -0.65017,-0.0485 -1.2115,-0.0197 -1.83146,0.16521 0,0 -74.38462,11.35793 -74.38462,11.35793 v 0 c 0.68247,0.25458 1.25202,0.29522 1.98531,0.23329 2.28852,-0.0183 4.57714,-0.0324 6.86574,-0.0263 27.34128,0.0271 54.68212,0.007 82.02381,0.0113 2.51033,-0.015 5.02506,-0.0146 7.52712,-0.24738 2.48565,-0.26457 4.92273,-0.74766 7.37391,-1.22658 26.08732,-1.64822 57.14901,4.11963 -66.85109,-0.20647 2.17514,-0.0167 4.36423,-0.0979 6.52527,0.1959 1.99322,0.37067 4.00093,-0.0204 6.01854,0.0899 2.29105,0.16961 4.51213,0.68254 6.77824,1.03523 2.95444,0.57119 5.92062,1.07696 8.86603,1.6964 3.51918,0.63487 6.89311,1.83584 10.36905,2.66343 3.46875,0.66684 6.91475,1.42687 10.38854,2.06244 3.17418,0.6385 6.38222,1.13007 9.59441,1.52909 2.33709,0.36783 4.59507,0.94314 6.84721,1.64181 0.47172,0.11585 0.97336,0.0922 1.43874,0.23131 1.12262,0.33565 1.94216,1.47861 2.9178,2.06407 1.70332,1.64652 3.37416,3.32478 5.04265,5.0066 2.19678,2.11248 4.41386,4.20351 6.62326,6.30264 2.44738,2.22273 4.87597,4.4658 7.32264,6.689 1.88962,1.92983 3.77384,3.86707 5.75834,5.70004 0.22968,0.20809 1.17851,1.09427 1.50001,1.29399 0.68361,0.42466 1.3316,0.46347 1.66417,1.36305 0.93666,1.90489 1.78798,3.85239 2.79015,5.72326 0.98704,1.73394 2.12565,3.37892 3.15497,5.08899 1.15075,2.18556 2.25141,4.40398 3.0934,6.73004 0.90621,2.55574 1.56383,5.19413 2.47213,7.75008 0.41325,1.76233 0.78846,3.53273 1.21237,5.29262 0.36944,1.78215 0.82132,3.5312 1.35507,5.27194 0.54963,2.15845 1.21079,4.28697 1.74334,6.45052 0.71574,3.10904 1.11911,6.27622 1.32295,9.45978 0.0854,3.18428 0.0966,6.36285 -0.0171,9.54755 0.0487,2.74127 -0.0198,5.48273 0.10233,8.22294 0.0577,3.2079 0.0116,6.41447 -0.11958,9.6203 -0.11591,2.56301 -0.35803,5.12244 -0.90293,7.63389 -0.59962,3.02965 -1.31036,6.03533 -1.80072,9.08628 -0.47282,2.9517 -0.79214,5.92856 -1.39107,8.85965 -0.73226,3.79081 -1.39483,7.61955 -2.81266,11.23168 -1.06771,2.98736 -2.21529,5.99146 -3.97376,8.65049 -1.84948,2.83456 -3.8078,5.60054 -5.99255,8.18968 -2.49001,2.9607 -5.179,5.68106 -8.06335,8.26166 -2.65178,2.5263 -5.16582,5.19511 -7.88191,7.65307 -2.64729,2.48375 -5.44913,4.77836 -8.42784,6.85779 -3.11871,2.20091 -6.27599,4.23803 -10.01306,5.2392 -4.6337,1.71135 -9.35998,3.22951 -14.25885,3.96999 -5.59112,0.75385 -11.22858,0.99186 -16.84053,1.54846 -5.39761,0.53485 -10.81739,0.71944 -16.22498,1.13115 -2.96737,0.17993 -3.21649,0.2218 -6.21284,0.2943 -1.03236,0.025 -4.13035,0.042 -3.09769,0.0426 120.46212,0.0726 87.93529,-0.0348 62.67185,0.006 -30.42782,-0.002 -60.85924,0.11288 -91.28786,-0.0704 -3.23207,-0.0127 -6.46417,-0.0279 -9.69626,-0.0127 -32.05272,0.01 99.5564,-0.0527 64.28064,0.0176 -3.57562,0.0211 -7.15223,0.0477 -10.7271,-0.0458 -4.40375,-0.13347 -8.78907,-0.47836 -13.18463,-0.75874 -28.27062,-2.86185 -56.83265,-0.32256 -85.24258,-0.45973 -36.01069,0.0472 96.18412,-0.0897 62.94481,0.0166 -4.51482,0.0257 -9.0304,0.0566 -13.54449,-0.0539 -5.58862,-0.15809 -11.15801,-0.53424 -16.70849,-1.21744 -30.60248,-2.12481 -61.48844,-2.33097 -92.02986,0.65299 -4.08909,0.38287 -8.17573,0.74372 -12.28128,0.90318 -1.60627,0.0624 -6.42838,0.11715 -4.82091,0.12205 53.7664,0.16399 89.58587,-0.0916 60.22302,0.10534 -15.1463,-0.17291 -30.29012,-0.56661 -45.40317,-1.64301 -36.79276,-1.55824 -73.727139,-1.743 -110.474955,0.78719 z" />
    <path
       style="fill:#000000"
       id="path8"
       d="m 346.2629,226.98517 c 1.66607,0.50095 3.26944,1.19342 4.84337,1.93018 1.50965,0.68138 3.00986,1.38381 4.51116,2.08348 0.92391,0.41955 1.84337,0.86909 2.81294,1.17474 0.64682,0.22798 1.21853,0.61206 1.78326,0.99277 0.25124,0.26923 0.6341,0.33896 0.89075,0.58182 0.25762,0.14301 0.47294,0.3325 0.76118,0.41009 0.26472,0.0212 0.48726,0.18246 0.7502,0.25492 0.15532,0.0798 0.0785,0.0384 0.23052,0.12414 0,0 37.4824,-3.16302 37.4824,-3.16302 v 0 c -0.16754,-0.20008 -0.0822,-0.0999 -0.256,-0.30041 -0.23455,-0.31317 -0.52189,-0.54386 -0.77963,-0.83213 -0.23121,-0.19901 -0.49169,-0.30155 -0.75849,-0.44326 -0.19627,-0.0462 -0.26711,-0.16076 -0.43413,-0.26266 -0.18863,-0.11509 -0.43305,-0.14179 -0.61656,-0.26987 -0.68701,-0.34796 -1.35663,-0.72542 -1.97453,-1.18826 -0.9679,-0.66195 -2.09762,-1.022 -3.19611,-1.41018 -1.59553,-0.59384 -3.15502,-1.27772 -4.71059,-1.96834 -1.45073,-0.61908 -2.8708,-1.32655 -4.24108,-2.10403 z" />
    <path
       style="fill:#000000"
       id="path9"
       d="m 103.53403,222.08743 c 0.28106,0.80187 0.24072,1.65293 0.23974,2.4883 -0.028,0.48473 0.048,0.96302 0.1254,1.43929 0.078,0.40813 0.24182,0.78605 0.37192,1.17909 0.1733,0.4196 0.1824,0.87115 0.17214,1.31762 -0.0102,0.26792 -0.0303,0.53529 -0.0431,0.80308 0,0 37.6334,-0.005 37.6334,-0.005 v 0 c -0.0146,-0.32266 -0.0393,-0.64468 -0.0716,-0.96606 -0.0663,-0.67443 -0.10871,-1.3504 -0.17956,-2.02432 -0.0672,-0.40819 -0.12954,-0.82539 -0.2862,-1.20775 -0.12952,-0.28458 -0.17829,-0.60758 -0.27612,-0.90311 -0.18487,-0.83419 -0.31915,-1.69786 -0.25777,-2.55305 z" />
    <circle
       id="path11"
       style="fill:#000000;stroke:#000000"
       cx="66.200981"
       cy="81.866425"
       r="0.59227419" />
  </g>
</svg>
