<?xml version="1.0" encoding="UTF-8" standalone="no"?>
<!-- Created with Inkscape (http://www.inkscape.org/) -->

<svg
   width="512"
   height="512"
   viewBox="0 0 512 512"
   version="1.1"
   id="svg1"
   sodipodi:docname="circle_filled.svg"
   inkscape:version="1.3.1 (9b9bdc1480, 2023-11-25, custom)"
   xmlns:inkscape="http://www.inkscape.org/namespaces/inkscape"
   xmlns:sodipodi="http://sodipodi.sourceforge.net/DTD/sodipodi-0.dtd"
   xmlns="http://www.w3.org/2000/svg"
   xmlns:svg="http://www.w3.org/2000/svg">
  <sodipodi:namedview
     id="namedview1"
     pagecolor="#ffffff"
     bordercolor="#999999"
     borderopacity="1"
     inkscape:showpageshadow="0"
     inkscape:pageopacity="0"
     inkscape:pagecheckerboard="0"
     inkscape:deskcolor="#d1d1d1"
     inkscape:document-units="px"
     inkscape:zoom="1.1269514"
     inkscape:cx="282.17721"
     inkscape:cy="244.90852"
     inkscape:window-width="1850"
     inkscape:window-height="1016"
     inkscape:window-x="0"
     inkscape:window-y="0"
     inkscape:window-maximized="1"
     inkscape:current-layer="layer1" />
  <defs
     id="defs1" />
  <g
     inkscape:label="Lager 1"
     inkscape:groupmode="layer"
     id="layer1">
    <path
       id="path3"
       style="fill:#000000"
       d="M 247.97656 62.824219 C 236.20312 62.752808 224.42869 62.951845 212.67969 63.517578 C 207.50671 63.803053 202.35597 64.323195 197.26367 65.279297 C 192.08111 66.237647 186.86538 67.006958 181.70703 68.091797 C 176.12789 69.373095 170.91897 71.76878 165.70312 74.058594 C 159.82584 76.635854 153.86226 79.018778 148.26172 82.166016 C 142.65381 85.562773 137.27192 89.324615 131.86523 93.03125 C 127.22766 96.002012 122.84893 99.299803 118.89844 103.13672 C 114.41202 107.62762 110.38178 112.54019 106.30664 117.39844 C 101.7706 122.63571 97.997774 128.38417 94.574219 134.38867 C 91.073556 140.85417 86.857303 146.86512 82.621094 152.85742 C 78.94219 157.96852 76.358901 163.65613 74.332031 169.58594 C 72.175543 176.28419 70.943713 183.23024 69.367188 190.07812 C 67.695109 196.60106 66.222443 203.15921 64.980469 209.77734 C 63.595405 217.65482 62.435758 225.56144 61.423828 233.49414 C 60.379774 240.74965 59.652735 248.01624 59.519531 255.3457 C 59.169079 263.40669 59.508115 271.44121 60.125 279.47656 C 60.933774 288.30224 62.698202 296.96959 64.917969 305.53516 C 67.30875 315.14997 69.926874 324.69609 72.943359 334.13281 C 76.121052 342.75995 79.527572 351.34625 83.972656 359.41406 C 84.893502 361.08539 85.912421 362.69874 86.882812 364.3418 C 92.267648 373.58577 99.086244 381.84619 105.79688 390.13477 C 110.71821 396.24535 116.04053 401.98702 121.77539 407.33594 C 125.91849 411.20394 130.45112 414.60281 135.07422 417.86719 C 139.19308 420.873 143.63283 423.25088 148.3418 425.17383 C 153.49871 427.12761 158.83687 428.52446 164.17578 429.875 C 170.41745 431.37784 176.66638 432.83313 182.85547 434.54297 C 188.44017 436.21366 194.01109 437.87311 199.74023 438.9707 C 208.40072 440.51287 217.1845 440.96316 225.95703 441.31055 C 253.40616 442.46896 280.8995 442.49222 308.36523 441.83594 C 318.1509 441.40496 327.7945 439.50077 337.19922 436.84375 C 345.40277 434.31039 353.36905 431.08996 361.26562 427.73828 C 366.59045 425.35502 372.04642 423.25653 377.26367 420.63477 C 379.60535 419.45803 382.32204 417.88875 384.60938 416.5957 C 390.47533 413.16658 395.7252 408.87076 400.57422 404.13867 C 404.435 400.32019 408.14315 396.35251 411.95117 392.48242 C 416.31303 388.23356 420.62112 383.95355 424.6875 379.41797 C 429.13879 374.41158 432.54515 368.64126 435.89453 362.875 C 439.18102 356.82976 442.5642 350.84163 445.95312 344.85352 C 448.55259 340.59493 450.54362 336.04414 452.33398 331.40234 C 454.21923 326.20797 456.07846 321.0079 457.88477 315.78516 C 459.7385 310.23454 461.96766 304.83944 463.46094 299.17578 C 464.69461 294.37398 465.14207 289.45345 465.26562 284.51367 C 465.48656 278.95167 465.61144 273.38742 465.79883 267.82422 C 466.05346 263.34462 466.18706 258.89242 465.87305 254.41602 C 465.80265 249.47297 465.39829 244.58044 464.54297 239.71289 C 463.12922 233.26312 460.61987 227.10921 458.28711 220.94922 C 456.15287 214.891 453.79314 208.95429 450.74023 203.29883 C 447.96287 198.42814 444.76565 193.80827 441.50195 189.25391 C 438.147 185.02807 434.45528 181.13107 431.34375 176.71289 C 428.69106 172.78774 426.57036 168.58119 424.69922 164.24219 L 424.32422 164.25781 C 423.34258 160.93945 422.27408 157.64755 421.07227 154.40039 C 418.74923 148.28651 415.99653 142.36262 412.99219 136.55859 C 409.80346 130.578 406.0819 124.91298 401.9707 119.53125 C 398.52153 115.31491 394.87334 111.27044 391.39648 107.07617 C 388.00252 103.25738 385.05977 99.073779 381.84375 95.113281 C 379.0432 91.496859 375.21094 89.228833 371.1875 87.232422 C 366.57318 85.079216 361.68149 83.626438 356.9375 81.796875 C 352.4045 79.878515 348.00891 77.660221 343.44727 75.808594 C 338.44795 73.952298 333.3096 72.5292 328.10742 71.376953 C 322.74239 70.423 317.37525 69.523965 312.04102 68.404297 C 307.23959 67.423967 302.40982 66.598428 297.60156 65.652344 C 292.88421 64.612263 288.0822 64.13482 283.27539 63.753906 C 271.52369 63.238067 259.75 62.895629 247.97656 62.824219 z M 293.21875 433.56641 C 298.26464 433.56799 292.67532 433.56785 298.7207 433.57422 C 300.3266 433.57622 295.50813 433.60474 293.90234 433.58594 C 293.76381 433.58431 293.39211 433.5696 293.21875 433.56641 z " />
  </g>
</svg>
