<?xml version="1.0" encoding="UTF-8" standalone="no"?>
<!-- Created with Inkscape (http://www.inkscape.org/) -->

<svg
   width="512"
   height="512"
   viewBox="0 0 512 512"
   version="1.1"
   id="svg1"
   sodipodi:docname="circle_cross.svg"
   inkscape:version="1.3.1 (9b9bdc1480, 2023-11-25, custom)"
   xmlns:inkscape="http://www.inkscape.org/namespaces/inkscape"
   xmlns:sodipodi="http://sodipodi.sourceforge.net/DTD/sodipodi-0.dtd"
   xmlns="http://www.w3.org/2000/svg"
   xmlns:svg="http://www.w3.org/2000/svg">
  <sodipodi:namedview
     id="namedview1"
     pagecolor="#ffffff"
     bordercolor="#999999"
     borderopacity="1"
     inkscape:showpageshadow="0"
     inkscape:pageopacity="0"
     inkscape:pagecheckerboard="0"
     inkscape:deskcolor="#d1d1d1"
     inkscape:document-units="px"
     inkscape:zoom="1.1269514"
     inkscape:cx="283.06456"
     inkscape:cy="244.90852"
     inkscape:window-width="1850"
     inkscape:window-height="1016"
     inkscape:window-x="0"
     inkscape:window-y="0"
     inkscape:window-maximized="1"
     inkscape:current-layer="layer1" />
  <defs
     id="defs1" />
  <g
     inkscape:label="Lager 1"
     inkscape:groupmode="layer"
     id="layer1">
    <path
       style="fill:#000000"
       id="path3"
       d="m 426.98704,246.74127 c -0.66861,-5.57548 -0.31851,-11.20613 -0.0942,-16.79828 0.37045,-7.06439 0.86184,-14.1226 1.41238,-21.17501 0.38863,-5.54538 0.7454,-11.09411 0.78434,-16.65435 0.20231,-6.57187 -1.01971,-13.00498 -2.47823,-19.37504 -1.49019,-6.21628 -3.32067,-12.34418 -5.53925,-18.33852 -2.32304,-6.11389 -5.07651,-12.03679 -8.08086,-17.84082 -3.18873,-5.9806 -6.90976,-11.64576 -11.02096,-17.0275 -3.44918,-4.21634 -7.09661,-8.26174 -10.57347,-12.45601 -3.39397,-3.8188 -6.33772,-8.001531 -9.55374,-11.962033 -2.80055,-3.616426 -6.63298,-5.884827 -10.65642,-7.88124 -4.61432,-2.153208 -9.50604,-3.606274 -14.25003,-5.435839 -4.533,-1.918362 -8.92776,-4.136225 -13.48941,-5.987854 -4.99932,-1.856298 -10.13729,-3.279415 -15.33947,-4.431663 -5.36504,-0.953954 -10.73209,-1.853827 -16.06633,-2.973496 -4.80143,-0.980331 -9.63145,-1.805883 -14.43971,-2.751968 -4.71736,-1.040082 -9.51998,-1.516805 -14.32679,-1.897719 -23.50342,-1.03168 -47.0965,-1.367216 -70.59453,-0.235749 -5.17298,0.285475 -10.32483,0.805409 -15.41713,1.761512 -5.18257,0.958351 -10.39745,1.726919 -15.5558,2.811759 -5.57915,1.281299 -10.78779,3.678068 -16.00364,5.967884 -5.87729,2.577263 -11.84239,4.959519 -17.44294,8.10676 -5.60791,3.396761 -10.98958,7.158903 -16.39627,10.865542 -4.63758,2.970765 -9.0166,6.267384 -12.9671,10.104304 -4.48642,4.49091 -8.51577,9.40473 -12.59091,14.26298 -4.53605,5.23728 -8.308584,10.98525 -11.732143,16.98976 -3.500666,6.4655 -7.716793,12.47707 -11.953006,18.46938 -3.678907,5.1111 -6.262241,10.79882 -8.289113,16.72863 -2.15649,6.69826 -3.38873,13.64261 -4.965257,20.4905 -1.67208,6.52294 -3.144235,13.08106 -4.38621,19.6992 -1.385065,7.87748 -2.544225,15.78502 -3.556156,23.71773 -1.044055,7.25552 -1.772566,14.52203 -1.90577,21.8515 -0.350453,8.06099 -0.01166,16.09626 0.605226,24.13162 0.808775,8.82569 2.573528,17.4923 4.793297,26.05787 2.390784,9.61482 5.009315,19.16055 8.025803,28.59728 3.177696,8.62715 6.583652,17.21307 11.028741,25.28089 0.920847,1.67133 1.940783,3.28613 2.911175,4.92919 5.384841,9.24398 12.203415,17.50311 18.914053,25.79169 4.92134,6.11059 10.24291,11.85383 15.97778,17.20275 4.1431,3.86801 8.67704,7.26687 13.30014,10.53125 4.11887,3.00582 8.55748,5.3823 13.26645,7.30525 5.15692,1.95378 10.49578,3.35201 15.8347,4.70255 6.24167,1.50284 12.4904,2.95682 18.67949,4.66666 5.58471,1.67069 11.15604,3.33086 16.88519,4.42845 8.66049,1.54217 17.44339,1.99181 26.21593,2.3392 27.44916,1.15841 54.94187,1.18224 82.40763,0.52596 9.78568,-0.43098 19.43077,-2.33639 28.8355,-4.99341 8.20356,-2.53336 16.16823,-5.75229 24.06481,-9.10397 5.32483,-2.38326 10.78254,-4.4815 15.9998,-7.10327 2.34168,-1.17674 5.05717,-2.74721 7.34451,-4.04026 5.86596,-3.42913 11.11626,-7.72456 15.96528,-12.45665 3.86079,-3.81849 7.56807,-7.787 11.3761,-11.65709 4.36186,-4.24887 8.67121,-8.52715 12.73759,-13.06274 4.45129,-5.00639 7.85634,-10.7777 11.20572,-16.54397 3.28649,-6.04525 6.67096,-12.03401 10.05989,-18.02213 2.59947,-4.25859 4.58893,-8.80788 6.3793,-13.44968 1.88525,-5.19438 3.74516,-10.39444 5.55147,-15.61719 1.85374,-5.55062 4.08308,-10.94629 5.57636,-16.60995 1.23367,-4.80181 1.682,-9.72157 1.80556,-14.66135 0.22094,-5.56201 0.34495,-11.12665 0.53234,-16.68986 0.25463,-4.4796 0.38821,-8.93283 0.0742,-13.40924 -0.0704,-4.94305 -0.47445,-9.83566 -1.32977,-14.70321 -1.41375,-6.44978 -3.92246,-12.6029 -6.25522,-18.7629 -2.13424,-6.05822 -4.49568,-11.99459 -7.54859,-17.65006 -2.77737,-4.87069 -5.97337,-9.49122 -9.23707,-14.04559 -3.35496,-4.22584 -7.04695,-8.12215 -10.15848,-12.54033 -2.65269,-3.92515 -4.77274,-8.13261 -6.64388,-12.47162 0,0 -54.64066,2.30445 -54.64066,2.30445 v 0 c 2.08488,4.49103 4.29943,8.92497 6.70286,13.25513 0.93538,1.63811 2.29556,4.10359 3.37818,5.69004 1.82063,2.66791 4.11644,4.94961 6.20601,7.39563 3.4896,4.19002 6.67194,8.62785 9.62096,13.21418 3.13259,5.36378 5.61368,11.02469 7.65401,16.8939 2.33239,5.73567 4.60004,11.53936 5.75043,17.64892 0.76078,4.61811 1.13699,9.28417 1.22076,13.96453 -0.008,4.37128 0.0559,8.7386 0.13486,13.1092 -0.0276,5.52794 -0.246,11.04829 -0.68778,16.55956 -0.28197,4.54126 -0.61067,9.09988 -1.7762,13.51892 -1.35135,5.49523 -3.27108,10.82788 -5.24184,16.12742 -1.86135,5.16794 -3.93611,10.25132 -5.92103,15.37235 -1.81633,4.3548 -3.84746,8.6145 -5.97933,12.82342 -3.12704,5.99593 -6.2555,11.99634 -9.72702,17.80289 -3.38848,5.44532 -7.01348,10.75704 -11.41172,15.45071 -4.12744,4.46691 -8.65822,8.50602 -12.9124,12.848 -3.74506,3.84486 -7.49985,7.68312 -11.32639,11.44662 -4.64889,4.24508 -9.57735,8.1693 -15.15036,11.15728 -7.43442,4.04346 -15.22364,7.33514 -23.05409,10.53096 -7.83083,3.08594 -15.65897,6.2665 -23.81384,8.40945 -9.33837,2.22165 -18.84562,3.74829 -28.47293,3.74175 -21.34954,0.14419 -4.29411,0.0167 43.46814,0.067 1.6059,0.002 -3.2119,0.0313 -4.81769,0.0125 -2.00365,-0.0235 -7.92204,-0.22193 -9.88769,-0.29233 -1.68808,-0.0605 -3.37583,-0.12969 -5.06374,-0.19454 -8.31397,-0.23015 -16.66259,-0.4515 -24.8807,-1.84884 -5.74391,-0.73523 -11.36968,-1.98272 -16.87003,-3.82083 -6.13456,-1.69288 -12.25448,-3.42221 -18.47294,-4.78814 -5.24426,-1.37863 -10.53872,-2.56893 -15.72066,-4.17591 -2.34601,-0.75037 -4.79843,-1.47922 -7.03159,-2.53563 -2.05951,-0.97425 -3.924,-2.357 -5.89023,-3.49335 -4.8049,-3.00435 -9.53077,-6.15907 -13.95702,-9.70412 -5.96344,-5.02287 -11.38511,-10.62907 -16.62662,-16.39553 -7.00651,-7.81875 -13.76376,-15.91005 -19.32837,-24.83989 -1.93105,-3.27125 -3.578,-5.95115 -5.31555,-9.32546 -3.26377,-6.33821 -6.00369,-12.95672 -8.32869,-19.69111 -2.94607,-9.29951 -5.43054,-18.72999 -7.62223,-28.23524 -1.89383,-8.32429 -4.02485,-16.64082 -4.59968,-25.19177 -0.62542,-7.82918 -0.61808,-15.66238 -0.26431,-23.50818 0.39859,-7.14673 0.81073,-14.29609 1.60151,-21.41278 0.85498,-7.8549 2.42685,-15.58442 4.04533,-23.31328 1.29804,-6.54123 2.70173,-13.06082 4.25007,-19.54778 1.42933,-6.65913 2.84342,-13.34036 5.19531,-19.75026 2.16096,-5.43549 4.80806,-10.63001 8.20856,-15.40979 3.96804,-6.16454 7.73557,-12.4463 11.53643,-18.71473 3.73428,-5.59184 7.62416,-11.08427 12.03323,-16.17265 3.99948,-4.73989 8.16243,-9.37186 12.83751,-13.46136 4.11909,-3.37085 8.45905,-6.43061 12.83896,-9.452084 5.16535,-3.667922 10.35872,-7.341776 16.04692,-10.170692 5.82032,-2.739351 11.75425,-5.216668 17.7079,-7.650729 5.12167,-2.075349 10.31469,-3.998352 15.81134,-4.820059 5.2741,-0.89683 10.55467,-1.7584 15.84009,-2.585318 5.00228,-0.613264 10.03038,-1.027611 15.07192,-1.103867 19.88313,-0.128598 5.64673,-0.02997 -48.8728,-0.04972 -0.92092,-3.34e-4 1.84183,0.0073 2.76273,0.01408 1.54351,0.01132 3.67051,0.03382 5.22266,0.06469 0.8294,0.01649 1.65862,0.04086 2.48793,0.06129 4.72336,0.187925 9.47246,0.42261 14.13663,1.223831 4.88601,0.867607 9.73964,1.90879 14.6503,2.638251 5.36017,1.050411 10.66699,2.38714 16.09955,3.033836 5.09434,0.810519 10.13688,1.919737 15.01988,3.608575 4.72798,1.469646 9.20582,3.498291 13.65684,5.661169 4.54283,2.079725 9.22622,3.733352 13.95295,5.342062 3.64342,1.461759 7.46044,2.864895 10.37272,5.588491 3.64082,3.640864 6.64605,7.824654 9.98977,11.730694 3.49742,4.15911 6.72907,8.545 10.5609,12.41493 4.32186,4.88151 8.31459,10.03933 11.29994,15.86887 2.92458,5.58415 5.53798,11.30461 7.76152,17.20675 2.23642,5.77102 4.33065,11.59807 5.78708,17.62405 1.45539,5.91264 2.39029,11.88872 2.02412,18.00375 -0.15737,5.48782 -0.195,10.98008 -0.50446,16.46308 -0.19271,7.05857 -0.55714,14.11117 -1.15422,21.14771 -0.43245,5.70712 -0.66431,11.44151 -1.44291,17.11461 z" />
    <path
       style="fill:#000000"
       id="path1"
       d="m 229.317,71.710573 c 0.13679,2.743953 -0.11807,5.485858 -0.14417,8.230138 -0.0212,1.980776 0.40055,3.917261 0.74589,5.855844 0.28758,1.442351 0.58667,2.878742 0.81741,4.331563 0.185,1.313535 0.10813,2.641597 0.10433,3.962685 -0.004,1.212437 0.0265,2.424741 0.0373,3.637293 0.11208,3.341714 0.4561,6.672734 0.77435,10.000074 0.92886,9.18914 1.36516,18.41232 1.54211,27.64369 0.10379,5.51803 -0.0288,11.03573 -0.23708,16.5494 -0.15139,3.72779 0.0996,7.45454 0.16389,11.18208 0.42105,7.52312 0.0134,15.04541 -0.32228,22.5607 -0.34734,8.26331 -0.87212,16.51733 -1.54247,24.7606 -0.61535,6.37825 -1.07858,12.76532 -1.38354,19.16565 -0.25792,5.70552 -0.55374,11.40671 -1.0204,17.09926 -0.28918,5.00853 -0.5452,10.01888 -0.84564,15.02675 -0.10058,2.53306 -0.28525,5.06382 -0.32908,7.59885 -0.11343,1.26863 0.19875,2.46872 0.35048,3.71293 0.23495,3.08703 0.40143,6.1879 0.43541,9.28402 0.19668,4.791 0.0109,9.581 -0.43053,14.35193 -0.35397,2.77692 -0.59209,5.56264 -0.76957,8.35534 -0.0549,2.99926 -0.24517,5.99572 -0.4747,8.98626 -0.35086,3.17928 -0.41971,6.37813 -0.50692,9.57247 -0.0659,2.81198 -0.0872,5.6246 -0.13442,8.43685 -0.0753,2.50304 0.0272,5.00558 0.0387,7.50861 0.0641,2.95303 0.0536,5.90649 0.008,8.8596 -0.0391,2.61542 0.13146,5.22847 0.1504,7.84391 0.049,1.98633 0.01,3.97344 -0.0127,5.95993 -0.0481,1.55865 -0.18248,3.10996 -0.19517,4.6702 -0.0975,2.85457 -0.0315,5.71232 -0.0485,8.56814 0.0237,3.07777 -0.1651,6.15127 -0.21496,9.22735 -0.0483,2.21228 0.10397,4.42187 0.11533,6.63433 -0.0182,1.54752 -0.22705,3.08146 -0.36974,4.62014 -0.30081,2.20131 -0.52571,4.41223 -0.71832,6.6262 -0.10504,2.04854 -0.25805,4.09478 -0.32531,6.14511 -0.0307,1.51513 -0.004,3.03045 -0.01,4.54557 0.002,1.43355 0.17859,2.86393 0.47539,4.26509 0.31853,1.44081 0.57755,2.89087 0.80134,4.3489 0.23851,1.78366 0.4353,3.57029 0.81397,5.33086 0.28756,1.16138 0.64035,2.31065 1.13817,3.40015 0.21704,0.47187 0.31693,0.9893 0.48279,1.48206 0.13991,0.58505 0.11385,1.19945 0.11983,1.7977 0.0347,0.93794 0.011,1.87519 0.0552,2.81296 0.007,0.13357 0.0146,0.26714 0.0219,0.4007 0,0 56.46165,-0.41922 56.46165,-0.41922 v 0 c -0.0118,-0.12279 -0.0235,-0.24558 -0.0353,-0.36837 -0.0804,-0.82184 -0.0764,-1.64577 -0.041,-2.47087 -0.006,-0.90615 -0.0231,-1.81285 -0.0863,-2.71705 -0.10408,-0.87316 -0.36048,-1.6963 -0.57853,-2.54549 -0.33299,-1.00696 -0.8887,-1.89824 -1.29543,-2.87547 -0.53411,-1.47271 -0.75228,-3.02122 -0.90365,-4.57619 -0.17532,-1.53977 -0.32646,-3.08272 -0.61632,-4.60639 -0.17099,-1.09282 -0.54967,-2.15085 -0.56925,-3.26729 -0.0102,-1.49387 0.007,-2.98788 -0.007,-4.48187 -0.0269,-1.90849 -0.0896,-3.82168 0.0913,-5.72541 0.18031,-2.17109 0.53825,-4.31568 0.88303,-6.46548 0.24034,-1.81218 0.41762,-3.64246 0.35284,-5.47242 -0.15181,-2.13443 -0.28275,-4.27173 -0.30446,-6.41204 -0.0429,-3.04593 -0.21372,-6.09151 -0.10473,-9.13861 0.0803,-2.82263 0.27555,-5.63656 0.57848,-8.44389 0.119,-1.63346 0.2647,-3.27254 0.20824,-4.91128 -0.0383,-2.03696 -0.11027,-4.07274 -0.17382,-6.10898 -0.13645,-2.55562 -0.25503,-5.11355 -0.27661,-7.67311 -0.0462,-2.95376 -0.0568,-5.90786 0.006,-8.86157 0.01,-2.50238 0.10848,-5.0044 0.0296,-7.50669 -0.0469,-2.77261 -0.0694,-5.54597 -0.0421,-8.31891 0.0454,-3.08202 0.20162,-6.16016 0.44763,-9.23269 0.26566,-3.03012 0.50339,-6.06216 0.74602,-9.09418 0.17171,-2.791 0.18184,-5.58091 0.20186,-8.37725 0.13027,-4.89643 0.22843,-9.79548 0.49037,-14.68679 0.0266,-3.18213 0.22574,-6.36094 0.27373,-9.54379 0.0165,-1.24107 0.0536,-2.43515 -0.34629,-3.60942 -0.20808,-2.44051 -0.21106,-4.89562 -0.30437,-7.34196 -0.13296,-4.91101 -0.0964,-9.82882 0.28939,-14.72921 0.34738,-5.74799 0.88799,-11.48615 0.96864,-17.24786 0.25876,-6.36572 0.46746,-12.73387 0.93769,-19.08929 0.29669,-8.25911 0.69196,-16.5146 1.15886,-24.76571 0.54145,-7.58427 0.9785,-15.17366 1.39395,-22.76502 0.21432,-3.78716 0.55846,-7.58357 0.27872,-11.37739 -0.37808,-5.57683 -0.87639,-11.14445 -1.30007,-16.71777 -0.68398,-9.13087 -1.22704,-18.29086 -0.83539,-27.44982 0.24895,-3.30951 0.57966,-6.61485 0.70955,-9.931176 0.0147,-1.23512 0.0557,-2.470238 0.0384,-3.705312 -0.0346,-1.512797 -0.192,-3.019041 -0.25514,-4.530698 -0.12652,-1.617379 -0.42329,-3.22107 -0.83467,-4.790309 -0.34496,-1.620245 -0.73562,-3.241156 -0.89811,-4.891348 -0.1442,-2.569037 -0.19544,-5.165595 0.22959,-7.712779 z" />
    <path
       style="fill:#000000"
       id="path2"
       d="m 125.13754,258.85957 c 3.76969,-1.10786 7.66334,-1.69444 11.53509,-2.31649 5.51128,-1.23359 11.14507,-1.36869 16.76637,-1.57308 1.75542,-0.0802 3.5107,-0.16372 5.26628,-0.24051 5.84593,-0.25572 6.68261,-0.31599 12.72096,-0.38101 2.39362,-0.0258 9.575,-0.0243 7.18125,-0.0213 -47.67734,0.0588 -59.06531,-0.15486 -36.97952,0.17965 29.6378,0.51387 59.30835,1.08148 88.9182,-0.42662 8.97886,-0.53048 17.93317,-1.3367 26.92135,-1.71146 18.99631,-0.0491 45.94151,-0.16266 -43.26109,0.0416 -1.12086,0.003 2.24142,0.0391 3.36189,0.0688 2.9677,0.0786 3.46753,0.11626 6.40228,0.25262 7.64667,0.22939 15.25145,1.02605 22.86424,1.72012 23.34111,1.09943 46.98085,0.37153 70.19862,0.37004 1.32124,-8e-5 5.28494,-0.008 3.9637,-0.007 -16.71516,0.007 -33.43031,0.0177 -50.14547,0.0266 5.76308,0.0501 11.52171,0.30349 17.28266,0.45184 5.58965,0.13155 11.17832,0.0532 16.76519,0.29102 6.99486,0.43277 13.96121,1.21543 20.95753,1.62293 19.09914,-0.14891 38.2001,-0.14354 57.29741,-0.44673 1.03551,-0.0164 2.04123,-0.35208 3.06451,-0.51155 0.98626,-0.15371 1.97266,-0.30935 2.96376,-0.4279 2.93386,-0.35095 5.8978,-0.45686 8.84489,-0.64178 7.17209,-0.78138 14.34912,-1.36445 21.55919,-1.65574 19.01479,-0.38647 45.58734,-0.21357 -44.0363,-0.0308 -0.89687,0.002 1.79368,0.0167 2.6904,0.0332 1.86589,0.0344 2.92609,0.0763 4.75963,0.1377 2.92198,0.19216 5.85248,0.13193 8.77547,0.25432 3.40251,0.41053 6.81752,0.70447 10.2346,0.96169 1.61084,0.11364 0.84769,0.061 2.2894,0.15869 0,0 55.38477,-8.57284 55.38477,-8.57284 v 0 c -1.6258,-0.0105 -0.77235,-10e-4 -2.56033,-0.0305 -3.33215,-0.0909 -6.66642,-0.22058 -9.97802,-0.62347 -3.14227,-0.60697 -6.29166,-0.65203 -9.48926,-0.63906 -23.96549,-0.62135 -47.97567,-1.17364 -71.9213,0.10671 -7.32909,0.46145 -14.6295,1.24078 -21.9577,1.71111 -20.73698,1.71143 -56.62985,8.13036 36.10699,1.67466 -1.11353,0.0591 -2.22549,0.18158 -3.34057,0.17719 -5.85043,-0.023 -11.67058,-1.09976 -17.49946,-1.45556 -5.45033,-0.51501 -10.90257,-0.71718 -16.37793,-0.62879 -5.98549,-0.0648 -11.96913,-0.20818 -17.95158,-0.41133 -19.13596,-0.007 -38.27192,-0.0186 -57.40788,-0.0211 -1.29352,-1.8e-4 -5.17407,0.0122 -3.88054,0.0129 16.49945,0.009 32.9989,0.006 49.49835,0.0131 1.40733,6.5e-4 -2.81466,4.9e-4 -4.22196,0.008 -1.38835,0.007 -2.77659,0.0315 -4.16496,0.0352 -1.33701,0.004 -2.67403,-0.009 -4.01104,-0.0134 -7.47676,-0.49637 -14.8961,-1.61813 -22.38755,-1.91714 -24.73767,-1.62617 -49.60055,-1.40546 -74.36139,-0.31322 -8.73604,0.54385 -17.44946,1.4032 -26.19434,1.81185 -4.8538,0.23701 -5.65043,0.30679 -10.60653,0.41843 -1.8784,0.0423 -7.5149,0.0755 -5.63604,0.0819 85.42316,0.29089 50.65744,0.13356 31.94287,-0.0413 -31.05903,-0.65944 -62.14618,-0.66948 -93.19765,0.32454 -6.182712,0.28388 -12.325849,0.78676 -18.393596,2.06712 -4.030868,0.76971 -8.024838,1.73169 -12.080482,2.36426 z" />
  </g>
</svg>
