<?xml version="1.0" encoding="UTF-8" standalone="no"?>
<!-- Created with Inkscape (http://www.inkscape.org/) -->

<svg
   width="512"
   height="512"
   viewBox="0 0 512 512"
   version="1.1"
   id="svg1"
   inkscape:version="1.3.1 (9b9bdc1480, 2023-11-25, custom)"
   sodipodi:docname="epsilon.svg"
   xmlns:inkscape="http://www.inkscape.org/namespaces/inkscape"
   xmlns:sodipodi="http://sodipodi.sourceforge.net/DTD/sodipodi-0.dtd"
   xmlns="http://www.w3.org/2000/svg"
   xmlns:svg="http://www.w3.org/2000/svg">
  <sodipodi:namedview
     id="namedview1"
     pagecolor="#ffffff"
     bordercolor="#999999"
     borderopacity="1"
     inkscape:showpageshadow="0"
     inkscape:pageopacity="0"
     inkscape:pagecheckerboard="0"
     inkscape:deskcolor="#d1d1d1"
     inkscape:document-units="px"
     inkscape:zoom="0.56347572"
     inkscape:cx="255.55671"
     inkscape:cy="314.12179"
     inkscape:window-width="1850"
     inkscape:window-height="1016"
     inkscape:window-x="0"
     inkscape:window-y="0"
     inkscape:window-maximized="1"
     inkscape:current-layer="layer1" />
  <defs
     id="defs1" />
  <g
     inkscape:label="Lager 1"
     inkscape:groupmode="layer"
     id="layer1">
    <path
       style="fill:#000000;stroke-width:1.25696"
       id="path1"
       d="m 385.04518,104.27804 c -10.86897,-5.756321 -21.46402,-11.926622 -32.2705,-17.77842 -9.9277,-5.586711 -20.69698,-9.626903 -31.64856,-13.184695 -11.5468,-3.517748 -23.29261,-6.459948 -35.2761,-8.420891 -36.87947,-3.693108 -74.35467,-3.459014 -111.33294,-1.394061 -12.42447,0.964717 -24.67083,3.128568 -36.90051,5.263407 -11.03446,1.321643 -20.91077,5.221393 -30.17292,10.676413 -9.115988,5.32436 -14.392248,13.128626 -17.947838,22.229757 -3.45848,10.73132 -3.99021,22.00187 -4.27029,33.11564 -0.13765,9.87308 0.9633,19.67213 3.4254,29.27742 2.91966,10.37141 8.99269,19.56051 15.648058,28.2547 6.49335,8.21563 14.80633,14.57795 24.36083,19.59328 8.91335,4.64461 18.81366,6.60688 28.88584,7.72775 34.21509,1.57499 69.14097,4.95372 102.94524,-0.79114 1.28952,-0.49247 7.21996,-1.17979 8.09824,-2.41597 0.60178,-0.84699 0.82409,-1.93904 0.76286,-2.94676 -1.74332,-28.69296 -48.46051,-6.85755 -77.25134,-7.31584 -10.44868,2.61123 -20.58278,5.86781 -30.36244,10.11566 -12.06183,5.59 -22.31124,13.37909 -31.55105,22.2867 -9.42858,9.4553 -16.72675,20.37912 -23.05249,31.72359 -5.6303,10.92621 -8.344048,22.78594 -10.234758,34.66078 -1.86278,14.31673 -1.48655,28.74782 -0.31894,43.09139 1.23028,14.42567 5.366178,28.1857 11.928358,41.29692 6.48547,11.93251 15.40173,22.47047 25.81565,31.73528 7.78938,6.59558 16.80257,11.72208 26.20564,16.15094 10.17102,4.39463 21.31274,7.66406 32.6864,7.76486 26.72465,0.23684 53.45184,0.0341 80.17776,0.051 19.58304,-1.23002 39.06138,-3.62078 58.48218,-6.17812 16.07722,-1.83537 31.66172,-5.6109 47.06531,-10.06403 13.96677,-3.7153 26.92667,-9.63957 39.16556,-16.71802 0,0 -72.62933,-6.7388 -72.62933,-6.7388 v 0 c -11.91344,6.63037 -24.68729,11.64386 -38.14432,15.08637 -15.30605,4.08769 -30.86765,7.18107 -46.69239,9.08516 -19.34591,2.47702 -38.75924,4.96228 -58.31992,5.33031 20.74156,0.0735 41.483,0.182 62.22466,0.22048 2.67507,0.005 -5.35451,0.0358 -8.02413,-0.11991 -6.22797,-0.36316 -12.57401,-1.51671 -18.47553,-3.37223 -1.66334,-0.52299 -3.26546,-1.19572 -4.89819,-1.79357 -9.3159,-3.83565 -18.21791,-8.46943 -26.30383,-14.20489 -10.55016,-8.23071 -19.56675,-17.7505 -25.9146,-29.10915 -6.41257,-12.35581 -11.19451,-25.15328 -12.29607,-38.91097 -1.13626,-13.87935 -1.11009,-27.7992 1.02315,-41.61318 1.90502,-11.16072 4.34532,-22.34267 10.04459,-32.48732 6.21539,-10.74998 13.42584,-21.03575 22.87098,-29.7009 9.31257,-8.05873 19.49685,-15.18979 31.39627,-19.82051 9.8928,-3.6385 20.3288,-7.19974 31.1067,-7.38587 -23.60527,-0.43915 -47.33055,0.89446 -70.81582,-1.31745 -7.17043,-0.67535 6.53805,-8.11069 -0.80277,-6.7741 -0.80652,0.14684 -1.61088,0.3048 -2.42143,0.43183 -1.06246,0.1665 -2.13098,0.29906 -3.19647,0.44859 -24.52618,2.33551 -60.478,0.3428 58.41821,0.64682 1.82283,0.005 -3.64466,0.0975 -5.46751,0.0974 -3.12864,-2.7e-4 -7.86137,-0.17158 -10.9886,-0.26878 -9.68592,-0.52744 -19.44477,-1.37644 -28.37623,-5.13851 -9.35043,-4.07251 -17.95858,-8.97817 -24.47491,-16.52716 -6.47857,-7.79923 -12.15917,-16.19584 -15.15658,-25.67768 -2.50684,-9.02408 -3.77207,-18.24068 -3.70936,-27.56538 0.14966,-10.33679 0.65389,-20.86374 4.44699,-30.70739 4.1047,-8.311794 8.87143,-13.343087 17.70529,-17.839452 9.26671,-4.4795 19.16436,-7.022028 29.54174,-8.423267 12.08624,-2.035761 24.24563,-3.891576 36.54748,-4.365898 27.6965,-0.721584 13.00235,-0.277823 -58.25277,-0.292515 -2.29392,-4.8e-4 4.58746,0.06002 6.88073,0.110193 6.27146,0.137177 12.54901,0.337217 18.79306,0.919523 11.97274,1.312256 23.57919,3.985912 35.09411,7.232379 10.81606,3.233335 21.56563,6.704473 31.47602,11.902615 10.7012,5.486589 21.26653,11.203742 31.38731,17.551302 z" />
  </g>
</svg>
