<?xml version="1.0" encoding="UTF-8" standalone="no"?>
<!-- Created with Inkscape (http://www.inkscape.org/) -->

<svg
   width="512"
   height="512"
   viewBox="0 0 512 512"
   version="1.1"
   id="svg1"
   sodipodi:docname="K.svg"
   inkscape:version="1.3.1 (9b9bdc1480, 2023-11-25, custom)"
   xmlns:inkscape="http://www.inkscape.org/namespaces/inkscape"
   xmlns:sodipodi="http://sodipodi.sourceforge.net/DTD/sodipodi-0.dtd"
   xmlns="http://www.w3.org/2000/svg"
   xmlns:svg="http://www.w3.org/2000/svg">
  <sodipodi:namedview
     id="namedview1"
     pagecolor="#ffffff"
     bordercolor="#999999"
     borderopacity="1"
     inkscape:showpageshadow="0"
     inkscape:pageopacity="0"
     inkscape:pagecheckerboard="0"
     inkscape:deskcolor="#d1d1d1"
     inkscape:document-units="px"
     inkscape:zoom="0.796875"
     inkscape:cx="256"
     inkscape:cy="301.17647"
     inkscape:window-width="1850"
     inkscape:window-height="1016"
     inkscape:window-x="0"
     inkscape:window-y="0"
     inkscape:window-maximized="1"
     inkscape:current-layer="layer1" />
  <defs
     id="defs1" />
  <g
     inkscape:label="Lager 1"
     inkscape:groupmode="layer"
     id="layer1">
    <path
       id="path2"
       style="fill:#000000"
       d="M 68.738281 53.017578 C 67.297466 61.550708 66.402854 70.1568 65.720703 78.779297 C 64.967785 88.232625 65.021125 97.700158 65.330078 107.16797 C 65.728234 115.31414 66.440633 123.44455 67.158203 131.56836 C 67.754426 138.8767 68.410896 146.17952 69.087891 153.48047 C 69.818169 160.095 70.561484 166.7065 71.246094 173.32617 C 71.820342 179.3161 72.351151 185.31276 72.675781 191.32227 C 72.819319 198.53928 73.333962 205.73529 74.005859 212.91992 C 74.835114 220.50821 75.070396 228.13585 75.289062 235.75977 C 75.380078 241.43327 75.402605 247.10733 75.392578 252.78125 C 75.218997 252.89178 75.042652 252.99876 74.869141 253.10938 L 75.394531 253.15234 C 75.392086 254.2064 75.421768 255.26036 75.414062 256.31445 C 75.374464 262.57047 75.610069 268.82527 75.787109 275.07812 C 75.987815 281.77798 75.824393 288.47887 75.667969 295.17773 C 75.668548 302.90596 75.060579 310.61538 74.648438 318.32812 C 73.995999 326.15399 73.545136 333.99301 73.25 341.83984 C 73.052401 348.50834 72.996677 355.1805 72.984375 361.85156 C 72.800444 368.15261 73.256566 374.43424 73.576172 380.7207 C 73.846427 386.46271 74.121251 392.20234 74.423828 397.94336 C 74.682182 404.21972 74.732577 410.50414 74.742188 416.78516 C 74.730668 422.55185 74.751299 428.3173 74.724609 434.08398 C 74.728009 439.29382 74.713282 444.50546 74.638672 449.71484 C 74.554012 453.36402 74.585672 457.01408 74.544922 460.66406 C 74.513832 462.57765 74.530264 461.64885 74.496094 463.45117 L 130.79883 463.45117 C 130.76463 461.64887 130.781 462.57761 130.75 460.66406 C 130.7093 457.01434 130.74376 453.36378 130.66016 449.71484 C 130.58706 444.50579 130.57443 439.29541 130.58203 434.08594 C 130.55903 428.30785 130.59125 422.52984 130.53125 416.75195 C 130.46745 410.4053 130.3985 404.05842 130.17383 397.71484 C 130.00222 391.92351 129.72865 386.13484 129.41406 380.34961 C 128.90929 374.19588 128.58234 368.03465 128.73828 361.85742 C 128.74028 355.24322 128.70467 348.62869 128.85742 342.01562 C 129.0538 334.22042 129.45934 326.43475 130.14453 318.66602 C 130.67943 310.88786 131.10943 303.0976 131.28711 295.30273 C 131.34202 292.78984 131.4227 290.27678 131.49414 287.76367 C 138.7939 291.75652 146.17529 295.60132 153.60938 299.34375 C 169.07376 306.70906 184.386 314.33858 199.23047 322.89062 C 209.71811 329.13517 219.78496 336.04974 229.88867 342.88867 C 237.72475 348.29073 245.7629 353.38809 253.83594 358.42578 C 262.33286 363.63175 270.82433 368.84407 279.27734 374.12109 C 286.49132 378.39697 293.34026 383.19991 299.84375 388.48438 C 304.43252 392.23426 308.4821 396.57475 312.86133 400.55273 C 317.54418 404.60695 322.80004 407.89265 328.20312 410.88477 C 334.31786 413.87914 340.27862 417.15967 346.23828 420.44727 C 351.52829 423.32197 356.48347 426.75559 361.30078 430.35352 C 365.12444 433.12347 368.84118 436.03575 372.55859 438.94531 C 375.09725 440.94574 377.70219 442.86904 380.48242 444.52148 C 381.99362 445.50629 383.4638 446.54466 384.96875 447.53906 C 386.3911 448.37311 387.09944 449.93875 388.00391 451.25195 C 389.08654 452.84059 390.7532 453.83691 392.11719 455.14648 C 393.38862 456.40597 394.23041 458.01687 395.14258 459.53906 L 451.43555 456.08984 C 450.19474 454.61514 449.29598 452.92011 448.37891 451.23242 C 447.24861 449.62114 446.07169 448.03786 444.2793 447.11328 C 442.82361 446.02654 442.18091 444.43259 441.23242 442.92773 C 439.90287 441.34618 438.2426 440.15539 436.54492 438.99219 C 433.94661 437.08429 430.94891 435.79248 428.38281 433.82422 C 424.57645 430.94156 420.81887 427.99834 417.01172 425.11719 C 411.95027 421.45679 406.93271 417.71039 401.53125 414.55469 C 395.61872 411.21753 389.73817 407.79748 383.65234 404.78516 C 378.3357 402.25387 373.17742 399.37248 368.55273 395.69727 C 363.81762 392.01089 359.80549 387.51145 355.23438 383.62695 C 348.67496 378.00232 341.67436 372.93373 334.23633 368.52344 C 325.77421 363.2925 317.31282 358.0571 308.84961 352.82812 C 300.75692 347.80247 292.67741 342.76022 284.73438 337.49805 C 274.34585 330.58019 263.99242 323.5926 253.24805 317.23242 C 238.36595 308.48746 222.96549 300.71435 207.3457 293.37305 C 192.78876 286.12548 178.38519 278.56476 164.61914 269.88281 C 156.41083 265.0823 148.10154 260.44411 139.95312 255.54102 C 152.85544 246.42517 166.42989 238.10207 179.89258 229.6875 C 195.99417 219.89727 210.80965 208.5424 226.19336 197.88281 C 233.4509 192.83355 241.36955 188.64172 248.52148 183.4707 C 251.80987 180.78838 255.18585 178.22733 258.8418 175.96875 C 262.86397 173.49374 267.11061 171.31339 271.26953 169.02734 C 278.07879 165.53617 284.78334 161.87201 291.66016 158.47852 C 297.98199 155.22172 304.30957 151.98251 310.55469 148.60547 C 316.57314 145.51721 322.86707 142.90445 329.00977 140.03125 C 334.33593 137.70164 339.35846 134.85792 344.31641 131.94531 C 348.76859 129.2867 353.17416 126.57666 357.40234 123.63281 C 362.4362 120.49882 367.83763 117.91218 372.79297 114.67578 C 377.47749 111.34577 381.76387 107.6211 386.58398 104.44531 C 390.68004 101.97954 394.84309 99.703754 398.61523 96.832031 C 402.09285 94.260297 405.18228 91.299737 408.48828 88.556641 C 411.65894 85.711709 415.14596 83.246993 418.97656 81.183594 C 422.06397 79.456958 425.07048 77.607632 427.9668 75.626953 C 430.17789 74.033928 432.23991 72.274118 434.125 70.369141 L 372.12695 65.972656 C 370.22433 67.521765 368.2731 69.025701 366.14258 70.316406 C 363.23386 72.134049 360.30087 73.915457 357.36523 75.697266 C 353.62955 78.223249 350.19128 81.066071 346.79883 83.958984 C 343.65496 86.660515 340.51984 89.380732 337.0332 91.724609 C 333.05508 94.270202 328.84309 96.523546 325.08984 99.353516 C 320.59652 102.71188 316.33522 106.34929 311.43945 109.23828 C 306.22766 112.23712 300.87701 115.05109 295.92578 118.40625 C 291.65102 121.14358 287.29187 123.77584 282.86328 126.30469 C 277.956 129.01489 273.00853 131.65076 267.82422 133.91211 C 261.58704 136.76003 255.31032 139.5611 249.33008 142.83984 C 243.14774 146.14022 236.91118 149.3561 230.6875 152.5918 C 223.78141 156.17937 216.8257 159.69169 209.92578 163.2832 C 205.56186 165.63814 201.11154 167.89114 197.09766 170.73047 C 193.68378 173.20046 190.5626 175.97683 187.11133 178.40625 C 180.12405 183.24786 172.94371 187.8632 166.17578 192.96289 C 154.28829 201.75764 142.42861 210.60332 129.97266 218.72852 C 129.80946 216.62484 129.66196 214.52019 129.48242 212.41797 C 128.86035 205.30118 128.58206 198.17838 128.45312 191.03711 C 128.15668 184.91207 127.62837 178.8078 126.98828 172.70898 C 126.20399 166.1203 125.56721 159.5148 124.75 152.92969 C 123.98042 145.6454 123.29686 138.35368 122.72852 131.05078 C 121.93828 123.03078 121.18456 115.00474 120.67969 106.96094 C 120.28811 97.712838 120.24449 88.458004 120.99609 79.222656 C 121.67713 70.865441 122.47436 62.429773 124.79297 54.341797 L 68.738281 53.017578 z " />
  </g>
</svg>
