<?xml version="1.0" encoding="UTF-8" standalone="no"?>
<!-- Created with Inkscape (http://www.inkscape.org/) -->

<svg
   width="512"
   height="512"
   viewBox="0 0 512 512"
   version="1.1"
   id="svg1"
   sodipodi:docname="N.svg"
   inkscape:version="1.3.1 (9b9bdc1480, 2023-11-25, custom)"
   xmlns:inkscape="http://www.inkscape.org/namespaces/inkscape"
   xmlns:sodipodi="http://sodipodi.sourceforge.net/DTD/sodipodi-0.dtd"
   xmlns="http://www.w3.org/2000/svg"
   xmlns:svg="http://www.w3.org/2000/svg">
  <sodipodi:namedview
     id="namedview1"
     pagecolor="#ffffff"
     bordercolor="#999999"
     borderopacity="1"
     inkscape:showpageshadow="0"
     inkscape:pageopacity="0"
     inkscape:pagecheckerboard="0"
     inkscape:deskcolor="#d1d1d1"
     inkscape:document-units="px"
     inkscape:zoom="0.56347572"
     inkscape:cx="255.55671"
     inkscape:cy="314.12179"
     inkscape:window-width="1850"
     inkscape:window-height="1016"
     inkscape:window-x="0"
     inkscape:window-y="0"
     inkscape:window-maximized="1"
     inkscape:current-layer="layer1" />
  <defs
     id="defs1" />
  <g
     inkscape:label="Lager 1"
     inkscape:groupmode="layer"
     id="layer1">
    <path
       style="fill:#000000"
       id="path1"
       d="m 116.65646,461.50593 c 0.2901,-7.95196 0.76446,-15.89596 1.09278,-23.8469 0.31438,-7.8711 0.26124,-15.73685 -0.17221,-23.6003 -0.48625,-10.70633 -0.95489,-21.41079 -1.75261,-32.09912 -0.64732,-7.36729 -0.98426,-14.75233 -1.23845,-22.14148 -0.12467,-6.40414 -0.13219,-12.80997 -0.13531,-19.21511 0.0319,-5.91198 0.61825,-11.79578 0.92891,-17.69424 0.32726,-6.39067 0.22158,-12.78951 0.19409,-19.18485 0.0748,-7.80495 0.68875,-15.58915 0.90086,-23.39117 0.23032,-6.78542 0.3189,-13.57389 0.41408,-20.36202 -0.0384,-5.50867 0.2312,-11.01084 0.36898,-16.51645 0.17477,-6.0008 0.16905,-12.00494 0.18601,-18.00776 -0.007,-7.11681 -0.0561,-14.23302 -0.13133,-21.34952 -0.10595,-7.99208 0.39468,-15.9777 0.87217,-23.95176 0.54206,-7.53193 0.76623,-15.08154 0.88353,-22.63049 -0.005,-6.75357 0.55147,-13.48717 0.94973,-20.2241 0.33012,-5.51631 0.47374,-11.04736 0.36307,-16.57252 -0.24497,-5.42879 -0.78482,-10.83622 -1.1932,-16.25312 -0.24352,-4.794264 -0.58677,-9.58324 -0.95665,-14.369262 -0.20922,-3.041992 -0.45523,-6.088434 -0.39889,-9.139413 0.2112,-2.663095 1.45344,-4.662471 3.84062,-5.824748 1.28102,-0.42699 0.66566,-0.50295 1.82618,0.353479 -18.26627,0.213815 -36.531394,0.57765 -54.7988,0.641445 -0.358939,0.0013 0.619879,-0.414345 0.97668,-0.453483 1.100273,-0.120689 1.848126,0.699041 2.656363,1.259559 5.654034,6.222365 9.855,13.64042 13.957735,20.935833 4.653497,8.51105 9.148499,17.10855 13.682148,25.68415 4.152114,8.58086 9.062444,16.69524 14.702374,24.36899 7.75181,10.13789 17.25571,18.72424 26.59109,27.35705 14.22332,12.94254 28.17103,26.16843 41.82927,39.70505 13.73474,13.54544 26.99384,27.54865 40.03488,41.75839 10.4748,11.70776 21.05841,23.31554 31.40185,35.13997 8.21661,10.18468 16.50651,20.30293 25.01686,30.24326 6.53739,7.88742 13.08048,15.75517 20.06561,23.25291 7.57451,8.1417 15.77428,15.65953 23.91168,23.22622 9.58041,8.50259 18.40979,17.73781 26.67766,27.50654 6.02105,7.67674 12.35944,15.07014 19.15758,22.06508 4.74939,4.6833 9.37572,9.48775 13.97585,14.31689 2.81598,2.96525 5.58823,5.97416 8.64883,8.6907 2.42648,2.04812 4.97486,3.97725 7.20194,6.24811 1.09313,1.24379 0.76027,0.60591 0.38522,-0.45126 18.44277,-0.73518 36.88553,-1.47035 55.32829,-2.20552 -0.56863,0.0779 -1.20524,0.51429 -1.70589,0.23364 -1.10397,-0.61885 -1.91107,-1.68463 -2.6782,-2.69122 -3.41009,-4.4746 -5.33497,-10.00198 -7.3432,-15.17349 -3.56835,-10.37743 -5.23632,-21.2448 -5.98789,-32.15428 -0.52918,-8.6362 -0.53207,-17.29296 -0.46011,-25.94147 0.0117,-7.85798 0.12725,-15.71633 0.50247,-23.56571 0.61919,-9.64418 0.75474,-19.30911 1.21244,-28.9615 0.4107,-10.58375 0.42963,-21.17605 0.62484,-31.76428 0.14153,-9.34362 -0.26855,-18.68385 -0.94162,-28.00084 -0.48316,-6.65846 -0.95094,-13.31904 -1.31453,-19.98529 -0.45574,-6.49006 -0.75779,-12.98963 -1.04842,-19.4887 -0.26421,-5.74265 -0.45416,-11.49045 -0.45604,-17.23943 0.0285,-6.89759 0.63208,-13.77049 1.10254,-20.64581 0.44631,-5.37035 0.85933,-10.73975 1.42283,-16.09941 0.29369,-4.32537 0.58272,-8.64936 0.95503,-12.96934 0.47311,-4.90277 0.96656,-9.80458 1.37389,-14.71334 0.37361,-5.07932 0.35414,-10.17231 0.4587,-15.26073 -0.0244,-5.09409 0.0729,-10.18426 0.22926,-15.27552 0.12275,-6.024117 0.24851,-12.049562 0.27742,-18.074882 0.049,-4.666384 0.0816,-9.333281 0.20186,-13.99856 0.0644,-2.294453 0.0961,-4.58961 0.11806,-6.884816 0.0169,-0.257989 0.0338,-0.515978 0.0507,-0.773967 0,0 -56.41127,-0.331501 -56.41127,-0.331501 v 0 c -0.02,0.369123 -0.04,0.738245 -0.06,1.107367 0.0234,2.294999 0.0581,4.589919 0.12447,6.88412 0.12207,4.653142 0.15355,9.308141 0.15661,13.962701 -0.0456,5.972695 -0.0337,11.946975 -0.31602,17.915318 -0.19978,5.13954 -0.42722,10.275 -0.33662,15.4203 0.0149,4.95508 -0.1139,9.91431 -0.46836,14.85732 -0.38739,4.89646 -0.86163,9.78639 -1.39183,14.66933 -0.39704,4.32715 -0.79672,8.65257 -0.99047,12.9953 -0.34187,5.40679 -0.78263,10.80633 -1.19907,16.20774 -0.43033,6.97499 -0.52931,13.96569 -1.0367,20.93718 -0.14839,5.87902 0.0209,11.75535 0.42036,17.62317 0.43843,6.49132 0.62308,12.99633 1.08764,19.48639 0.38234,6.72264 0.8393,13.44537 1.53647,20.14321 0.88755,9.13908 1.49801,18.30638 1.24122,27.49596 0.0544,10.52673 -0.1328,21.05535 -0.55721,31.57388 -0.33784,9.65411 -0.82054,19.30106 -1.63607,28.92776 -0.36644,7.93574 -0.37617,15.87012 -0.31653,23.8132 0.0306,8.81384 -0.1715,17.6434 0.40841,26.44338 1.21834,11.38131 3.37003,22.60279 6.65946,33.582 2.49073,7.26875 5.38106,14.15492 8.96242,20.9566 0.52648,0.99988 0.5464,2.92873 1.67628,2.94662 18.99316,0.30086 37.96726,-1.34529 56.95089,-2.01794 0.62856,-2.53627 0.84921,-5.09806 -0.61966,-7.40962 -2.07472,-2.84379 -4.72932,-5.07636 -7.46382,-7.27299 -3.18031,-2.45821 -6.08892,-5.18825 -8.87071,-8.09257 -4.78805,-4.76878 -9.48794,-9.62563 -14.32612,-14.34355 -6.99196,-6.83108 -13.85962,-13.80771 -19.90086,-21.51377 -8.18944,-9.99639 -16.9705,-19.45649 -26.48566,-28.21575 -8.03859,-7.51039 -16.18263,-14.92388 -23.80729,-22.86034 -6.97234,-7.40072 -13.55243,-15.13439 -19.89599,-23.08068 -8.83094,-9.86025 -17.87598,-19.54355 -25.97809,-30.03076 -9.82682,-12.47701 -21.15041,-23.60603 -31.79443,-35.37768 -13.10207,-14.30206 -26.38297,-28.43813 -40.26837,-41.98891 -13.54843,-13.52018 -27.20226,-26.92105 -41.30025,-39.87214 -8.77362,-8.56399 -17.71868,-17.01792 -25.47528,-26.54142 -5.6982,-7.30895 -10.57072,-15.11567 -14.5977,-23.477 -4.54838,-8.63625 -9.21678,-17.20635 -13.8458,-25.799434 -4.16744,-7.565356 -8.37159,-15.126786 -13.13361,-22.339026 -0.23308,-0.345176 -3.40422,-4.979968 -3.78037,-4.985822 -60.04286,-0.93443 -44.140904,-13.302934 -58.890163,2.719596 -2.289287,3.050135 -3.750592,6.506643 -3.978177,10.35556 -0.09546,3.275176 0.200368,6.535206 0.574253,9.787742 0.501129,4.738383 0.820074,9.492964 1.16701,14.244694 0.337873,5.33013 0.885254,10.6431 1.161632,15.97705 0.105089,5.39335 -0.07198,10.78572 -0.245019,16.17629 -0.295104,6.80547 -0.823398,13.60435 -0.768697,20.42052 -0.124115,7.46923 -0.323342,14.93669 -0.810531,22.39271 -0.469839,8.08448 -0.8999,16.17871 -0.838828,24.27976 -0.07295,7.10939 -0.112704,14.21867 -0.152706,21.32814 -0.02698,5.95373 -0.08842,11.90711 -0.258935,17.85872 -0.198676,5.55404 -0.473994,11.10729 -0.34586,16.66694 0.04875,6.73375 0.04707,13.46866 -0.121215,20.20099 -0.296562,7.85054 -0.715701,15.6959 -0.949068,23.54849 -0.07902,6.30537 -0.215409,12.61194 -0.488951,18.91209 -0.319033,5.99356 -0.738222,11.98525 -0.782891,17.98931 -0.0042,6.46237 -0.03444,12.92612 0.147712,19.38675 0.203977,7.50788 0.886645,14.98479 1.739841,22.44547 1.038379,10.57954 1.529814,21.18748 1.675887,31.81668 0.109636,7.74507 0.0565,15.48976 -0.10306,23.23409 -0.165168,7.84825 -0.404807,15.72498 -1.558192,23.50093 z" />
  </g>
</svg>
