<?xml version="1.0" encoding="UTF-8" standalone="no"?>
<!-- Created with Inkscape (http://www.inkscape.org/) -->

<svg
   width="512"
   height="512"
   viewBox="0 0 512 512"
   version="1.1"
   id="svg1"
   sodipodi:docname="parenthesis_left.svg"
   inkscape:version="1.3.1 (9b9bdc1480, 2023-11-25, custom)"
   xmlns:inkscape="http://www.inkscape.org/namespaces/inkscape"
   xmlns:sodipodi="http://sodipodi.sourceforge.net/DTD/sodipodi-0.dtd"
   xmlns="http://www.w3.org/2000/svg"
   xmlns:svg="http://www.w3.org/2000/svg">
  <sodipodi:namedview
     id="namedview1"
     pagecolor="#ffffff"
     bordercolor="#999999"
     borderopacity="1"
     inkscape:showpageshadow="0"
     inkscape:pageopacity="0"
     inkscape:pagecheckerboard="0"
     inkscape:deskcolor="#d1d1d1"
     inkscape:document-units="px"
     inkscape:zoom="0.79687498"
     inkscape:cx="294.90197"
     inkscape:cy="278.58824"
     inkscape:window-width="1850"
     inkscape:window-height="1016"
     inkscape:window-x="0"
     inkscape:window-y="0"
     inkscape:window-maximized="1"
     inkscape:current-layer="layer1" />
  <defs
     id="defs1" />
  <g
     inkscape:label="Lager 1"
     inkscape:groupmode="layer"
     id="layer1">
    <path
       style="fill:#000000"
       id="path35"
       d="m 334.56102,474.87871 c -4.95532,-2.90104 -9.7074,-6.11905 -14.45051,-9.34901 -6.2899,-4.43269 -12.83398,-8.48722 -19.30562,-12.64579 -7.56685,-5.02218 -15.28302,-9.8129 -22.84874,-14.8363 -9.17172,-6.1102 -18.11447,-12.54726 -26.92674,-19.1624 -8.65683,-6.66915 -16.81703,-13.94091 -24.34337,-21.85994 -5.34718,-5.68327 -10.10422,-11.86718 -14.67825,-18.17682 -5.11022,-6.96472 -9.92989,-14.13811 -14.34263,-21.56392 -3.56992,-6.17783 -6.53133,-12.66811 -8.99138,-19.35816 -2.04275,-6.80791 -4.5759,-13.44124 -7.13767,-20.06593 -2.76992,-7.09359 -5.41904,-14.22835 -7.71741,-21.48914 -2.21784,-7.32117 -2.65874,-14.96526 -2.94685,-22.55828 -0.28429,-7.3268 0.0881,-14.6301 1.07571,-21.88892 1.27554,-6.37395 2.66566,-12.72108 3.89929,-19.10468 0.87046,-6.95042 3.00204,-13.58374 5.33003,-20.15546 3.06411,-8.46655 6.01407,-16.97117 9.18857,-25.39783 2.66183,-7.27298 6.02392,-14.25641 9.27693,-21.27584 3.50894,-7.36054 6.66484,-14.86964 10.41579,-22.11346 3.69693,-6.76252 7.64898,-13.38697 11.74438,-19.91532 3.97551,-6.27145 8.70836,-11.97767 13.8243,-17.33838 6.37232,-6.40589 13.11145,-12.432905 20.02691,-18.243163 6.39428,-5.400879 13.47366,-9.873313 20.44911,-14.4652 5.93364,-4.256391 12.30407,-7.812121 18.73525,-11.243061 5.50784,-3.062538 11.22722,-5.693513 17.00377,-8.200795 5.27573,-2.254527 10.68389,-4.192915 16.11114,-6.048502 4.32803,-1.294531 8.54113,-2.789822 12.63972,-4.687415 3.60918,-1.715071 7.03068,-3.788647 10.52975,-5.711855 2.41413,-1.347088 4.95451,-2.431576 7.5519,-3.359247 0.2851,-0.06901 0.5702,-0.138026 0.8553,-0.207039 0,0 -55.90386,-6.785855 -55.90386,-6.785855 v 0 c -0.27524,0.143734 -0.55048,0.287468 -0.82572,0.431203 -2.48063,1.229851 -4.88524,2.608218 -7.28874,3.981901 -3.36183,1.8857 -6.74279,3.757959 -10.34885,5.146001 -4.10196,1.591702 -8.33612,2.80828 -12.44009,4.398501 -5.34165,2.038985 -10.689,4.075333 -15.87596,6.489753 -5.78403,2.665795 -11.48367,5.505139 -17.01059,8.675661 -6.33064,3.646159 -12.50919,7.539666 -18.50659,11.714305 -6.97704,4.688533 -13.86223,9.518273 -20.12881,15.146719 -7.02324,6.056779 -14.00338,12.198481 -20.48103,18.841278 -5.18059,5.68568 -9.85591,11.77123 -13.83692,18.36682 -4.22095,6.63282 -8.13144,13.4576 -11.725,20.45166 -3.60247,7.36265 -6.98816,14.82274 -10.44206,22.2559 -3.40644,7.11694 -6.7725,14.27393 -9.2375,21.78447 -2.96057,8.48576 -5.88159,16.99053 -9.15074,25.36353 -2.63344,6.83326 -4.90805,13.75278 -5.82236,21.05413 -1.22684,6.47466 -2.7093,12.89998 -3.72946,19.41246 -1.0096,7.56477 -1.22673,15.21212 -0.88365,22.83621 0.30543,8.05199 0.62338,16.18862 2.80927,23.99518 2.22232,7.42891 5.10572,14.63026 7.87637,21.86794 2.52248,6.55639 4.76978,13.20436 6.73338,19.95048 2.49966,7.12316 5.96182,13.83987 9.7267,20.37401 4.42553,7.49163 8.9418,14.94018 13.86562,22.11737 4.80099,6.53903 9.68076,13.03989 15.35784,18.85911 7.76871,8.08037 15.92703,15.78106 24.80138,22.65066 8.62934,6.80772 17.50065,13.31018 26.56929,19.52171 7.42561,5.15275 14.97121,10.11768 22.60087,14.96319 6.26863,4.14699 12.59005,8.2206 18.75217,12.52405 4.53803,3.24811 9.16779,6.36085 13.75924,9.53181 z" />
  </g>
</svg>
