<?xml version="1.0" encoding="UTF-8" standalone="no"?>
<!-- Created with Inkscape (http://www.inkscape.org/) -->

<svg
   width="512"
   height="512"
   viewBox="0 0 512 512"
   version="1.1"
   id="svg1"
   sodipodi:docname="phi.svg"
   inkscape:version="1.3.1 (9b9bdc1480, 2023-11-25, custom)"
   xmlns:inkscape="http://www.inkscape.org/namespaces/inkscape"
   xmlns:sodipodi="http://sodipodi.sourceforge.net/DTD/sodipodi-0.dtd"
   xmlns="http://www.w3.org/2000/svg"
   xmlns:svg="http://www.w3.org/2000/svg">
  <sodipodi:namedview
     id="namedview1"
     pagecolor="#ffffff"
     bordercolor="#999999"
     borderopacity="1"
     inkscape:showpageshadow="0"
     inkscape:pageopacity="0"
     inkscape:pagecheckerboard="0"
     inkscape:deskcolor="#d1d1d1"
     inkscape:document-units="px"
     inkscape:zoom="1.1269514"
     inkscape:cx="282.1772"
     inkscape:cy="244.90851"
     inkscape:window-width="1850"
     inkscape:window-height="1016"
     inkscape:window-x="0"
     inkscape:window-y="0"
     inkscape:window-maximized="1"
     inkscape:current-layer="layer1" />
  <defs
     id="defs1" />
  <g
     inkscape:label="Lager 1"
     inkscape:groupmode="layer"
     id="layer1">
    <path
       style="fill:#000000"
       id="path12"
       d="m 221.68756,55.720183 c 0.64738,6.55139 0.4304,13.156077 0.47339,19.731215 0.0126,7.194858 0.0424,14.389626 -0.0146,21.584382 -0.0141,4.62099 0.55145,9.20972 1.01002,13.79994 0.38073,3.71241 0.79535,7.4177 1.05859,11.14105 0.17693,3.9453 0.41588,7.88803 0.46584,11.83753 0.0161,3.45851 -0.0958,6.9111 0.0894,10.36618 0.48374,4.01864 0.64527,8.05928 0.88048,12.09635 0.222,4.60612 0.40259,9.21256 0.76109,13.81053 0.5334,4.52152 0.92353,9.05079 1.2263,13.59266 0.3143,4.09007 0.50069,8.18473 0.57354,12.28567 0.13157,3.89127 0.0326,7.78649 0.26944,11.67356 0.24129,3.32657 0.57212,6.64459 0.74213,9.97656 0.28216,4.12792 0.74623,8.23764 1.08021,12.36138 0.49632,5.68708 0.67278,11.39696 0.36681,17.09762 -0.26638,4.62421 -0.76226,9.22852 -1.00265,13.85494 -0.19192,3.79777 -0.23207,7.60417 -0.19725,11.40627 -0.0114,4.10011 -0.33842,8.19103 -0.73295,12.26957 -0.34291,3.75481 -0.74862,7.50339 -1.13345,11.25431 -0.28835,2.84644 -0.32708,5.7095 -0.43491,8.56642 0.0299,3.4632 -0.16842,6.92123 -0.26445,10.38153 -0.12732,3.2686 -0.19475,6.53845 -0.20477,9.80944 0.0516,3.15405 -0.008,6.30775 -0.0235,9.4615 6.9e-4,2.53074 -0.0599,5.06416 -0.31776,7.58279 -0.2002,1.9553 -0.50372,3.89822 -0.7817,5.84352 -0.17514,1.2153 -0.3699,2.42677 -0.51869,3.64602 0.0884,2.13486 0.16614,4.26944 0.23426,6.40526 0.0859,3.40687 0.11379,6.8142 0.0932,10.22205 0.006,3.24741 -0.0228,6.49499 -0.0893,9.74172 -0.17241,0.59136 0.34993,3.54642 -0.74878,3.65382 -0.76538,1.16395 -0.91306,2.55281 -1.21705,3.8937 -0.37935,1.61451 -0.63528,3.25096 -0.92458,4.88216 -0.3703,2.6304 -0.64092,5.28312 -0.8696,7.93169 -0.30908,2.81317 -0.39811,5.64129 -0.52015,8.46639 -0.052,2.1549 -0.0467,4.31051 -0.0586,6.46594 0.004,2.1494 0.18791,4.29567 0.39043,6.43459 0.15731,1.70389 0.1217,3.41463 0.1286,5.12277 -0.004,1.26294 -0.0317,2.52528 -0.0631,3.78776 -0.0139,1.06245 -0.0209,2.12275 0.022,3.18463 0.0728,1.36548 -0.0515,2.72705 -0.13803,4.08864 -0.0614,1.31316 -0.25453,2.61344 -0.325,3.92621 -0.0612,1.29842 -0.081,2.59827 -0.0589,3.89787 0.0205,1.33733 0.006,2.67417 -0.0262,4.01111 -0.005,1.03593 -0.0372,2.07034 -0.0203,3.10627 0.004,0.99946 -0.002,1.99899 -0.0115,2.99841 -0.0295,1.07322 0.14228,2.13513 0.19161,3.2055 0.0166,0.63374 0.0213,1.26778 0.0264,1.90174 0,0 56.41047,-0.0849 56.41047,-0.0849 v 0 c -0.0149,-0.69758 -0.037,-1.39425 -0.0827,-2.09063 -0.0497,-0.97728 -0.0897,-1.95537 -0.13491,-2.93173 -0.009,-0.99968 -0.015,-1.99946 -0.0116,-2.99918 0.0166,-1.03702 -0.0163,-2.07248 -0.0226,-3.10949 -0.034,-1.3282 -0.0521,-2.6564 -0.0258,-3.98504 0.0305,-1.19414 0.0239,-2.3883 0.0919,-3.58131 0.089,-1.31203 0.19925,-2.62291 0.26255,-3.93639 0.0782,-1.47131 0.20642,-2.94074 0.20077,-4.41541 0.0435,-1.06 0.0379,-2.11855 0.0272,-3.17917 -0.0287,-1.28761 -0.0518,-2.57508 -0.0777,-3.86274 -0.0362,-1.83942 -0.1541,-3.67723 -0.26283,-5.51357 -0.14021,-1.99349 -0.51135,-3.97638 -0.4063,-5.98385 -0.0177,-2.12383 -0.0255,-4.24752 -0.0319,-6.37133 -0.0353,-2.66014 0.0325,-5.32405 0.26547,-7.97504 0.30945,-2.50618 0.75548,-4.98584 1.27386,-7.45637 0.30434,-1.50647 0.65038,-3.00624 1.01027,-4.49985 0.31962,-1.07971 0.91841,-1.96652 1.33773,-3.00879 0.4505,-1.97979 0.38821,-3.95683 0.23326,-5.97466 -0.0667,-3.24718 -0.0955,-6.49518 -0.0916,-9.74303 -0.0224,-3.40536 0.001,-6.8103 0.0893,-10.21468 0.0677,-1.97887 0.0819,-3.96952 0.36415,-5.93251 0.0466,-1.15801 0.19172,-2.30828 0.26106,-3.46494 0.18648,-2.03824 0.45626,-4.06929 0.62836,-6.10953 0.11377,-2.65776 0.15689,-5.31849 0.10318,-7.97848 -0.0179,-3.14614 -0.0823,-6.29244 -0.0164,-9.43879 0.014,-3.21756 -0.009,-6.43508 0.0586,-9.65217 0.12511,-3.44133 0.26474,-6.88211 0.4923,-10.31824 0.13573,-2.78983 0.18728,-5.58113 0.30857,-8.37169 0.19962,-3.73538 0.55257,-7.46147 0.81982,-11.19239 0.35499,-4.24594 0.82764,-8.48876 0.87576,-12.75316 0.0537,-3.72883 0.0378,-7.45863 0.13031,-11.18719 0.14778,-4.63177 0.38728,-9.25922 0.56153,-13.89005 0.11401,-5.87884 -0.0746,-11.74994 -0.25236,-17.62642 -0.15998,-4.11133 -0.22841,-8.2248 -0.49672,-12.33111 -0.1902,-3.35807 -0.54719,-6.69754 -0.89258,-10.04265 -0.27345,-3.81629 -0.29195,-7.63853 -0.30983,-11.46328 -0.15906,-4.17163 -0.38848,-8.34189 -0.79252,-12.49775 -0.30469,-4.57548 -0.67187,-9.14346 -1.21321,-13.69749 -0.4233,-4.51492 -0.5691,-9.04801 -0.75236,-13.57783 -0.1153,-4.05301 -0.25728,-8.10588 -0.51051,-12.15281 -0.17977,-3.39497 -0.18292,-6.79616 -0.3124,-10.19329 -0.12777,-4.01774 -0.20852,-8.03668 -0.44542,-12.05047 -0.19658,-3.83194 -0.57233,-7.65233 -1.04443,-11.45967 -0.60717,-4.41918 -1.31055,-8.83241 -1.59565,-13.28778 -0.42822,-7.122211 -0.71037,-14.251716 -0.63577,-21.388965 0.16723,-6.467862 0.0573,-13.029555 1.33575,-19.397042 z" />
    <path
       style="fill:#000000"
       id="path13"
       d="m 124.29585,232.99414 c -1.22715,-6.19913 -0.70496,-12.55846 -0.34694,-18.817 0.2419,-5.41717 0.97022,-10.78077 1.87649,-16.12057 0.80535,-4.91195 1.98248,-9.74999 3.34088,-14.53532 1.38557,-4.40299 2.71565,-8.83132 4.41061,-13.12758 1.0713,-2.68128 2.33977,-5.27693 3.48972,-7.92522 1.00761,-2.73832 2.61074,-5.12858 4.4016,-7.40461 2.10712,-2.40821 3.9839,-5.00143 5.95053,-7.52256 1.88911,-2.56005 3.8914,-5.01907 6.03104,-7.37296 3.06065,-2.93512 6.39602,-5.5664 9.62556,-8.31191 3.14638,-2.82902 6.56987,-5.31036 9.97943,-7.80388 2.56115,-1.77148 5.15591,-3.5146 8.11726,-4.52985 3.23924,-1.19518 6.51314,-2.27173 9.81259,-3.28579 3.77993,-1.28981 7.59978,-2.46649 11.3642,-3.80203 3.78944,-1.19589 7.64095,-2.1863 11.43666,-3.36218 4.80352,-1.51011 9.60151,-2.95673 14.53363,-3.97898 4.90322,-1.10968 9.86336,-1.79502 14.87975,-2.06896 1.94875,-0.0864 3.89969,-0.0948 5.84995,-0.0959 0.62903,-3.5e-4 2.51611,0.003 1.88708,0.004 -52.72323,0.0404 -70.58134,-0.0565 -50.95844,0.0457 4.70989,0.11998 9.42104,0.16534 14.1315,0.25199 6.932,0.23794 13.82696,1.06584 20.65933,2.23063 5.30762,0.92085 10.49601,2.37344 15.66711,3.85678 3.87646,1.06971 7.71523,2.26264 11.51524,3.57723 4.19893,1.48234 8.20408,3.4479 12.27765,5.23436 3.67877,1.61127 7.22964,3.49059 10.81102,5.30332 2.88786,1.43768 5.79625,2.83484 8.66688,4.30673 2.00307,1.17819 3.86558,2.59007 5.65732,4.06626 1.88114,1.5185 3.74158,3.06025 5.5975,4.60956 2.8753,2.4011 5.67576,4.88931 8.52917,7.31664 2.69622,2.32921 5.38171,4.6721 8.12025,6.95162 3.57785,2.812 6.95328,5.84708 10.17411,9.05926 3.86547,3.84571 7.26719,8.1001 10.45864,12.51002 4.2501,5.62793 7.16826,12.02816 9.92864,18.47156 3.53561,9.03901 6.46811,18.29773 9.01022,27.66029 1.84568,6.95346 3.37054,13.98544 5.07844,20.97348 0.93158,3.75486 1.69343,7.54396 2.12228,11.38931 0.60236,4.48327 0.6816,9.0017 0.45928,13.51234 -0.24338,4.07192 -0.98511,8.08912 -1.81542,12.07572 -0.70937,3.42926 -1.65909,6.79942 -2.70559,10.13899 -1.22116,3.42523 -2.40513,6.85269 -3.96849,10.13953 -2.10519,4.10529 -4.66382,7.94964 -7.0943,11.86355 -2.59114,4.01503 -5.567,7.76059 -8.47062,11.54982 -2.79591,3.90846 -5.57197,7.82133 -8.59163,11.56293 -2.6545,3.46843 -5.50733,6.7824 -8.89821,9.54726 -2.45028,1.97827 -5.01452,3.7739 -7.74093,5.34679 -3.1796,1.61064 -6.41737,3.12535 -9.79883,4.2623 -3.62401,1.3284 -7.48503,1.76568 -11.25169,2.5151 -4.44842,0.92614 -8.97224,1.35178 -13.46339,2.01144 -4.01378,0.47965 -8.00479,1.13062 -12.03202,1.49136 -3.94623,0.33475 -7.86508,0.96968 -11.74735,1.74316 -3.77041,1.01985 -7.63257,1.43978 -11.52115,1.60799 -2.21981,0.0686 -4.4406,0.0947 -6.66133,0.10865 -0.77904,0.005 -3.1162,0.0102 -2.33715,0.01 56.57028,-0.0268 69.33803,0.002 49.39568,-0.0391 -6.62348,-0.28876 -13.24127,-0.65821 -19.86814,-0.86878 -7.25291,-0.0793 -14.49377,-0.36046 -21.72777,-0.88351 -6.08728,-0.51018 -12.14094,-1.3394 -18.19375,-2.1491 -7.4373,-0.7967 -14.75906,-2.20654 -21.97735,-4.14447 -7.20319,-2.05049 -14.01393,-5.04085 -20.33311,-9.03925 -5.62613,-3.99009 -10.43939,-8.9908 -15.02578,-14.10892 -5.301,-5.98327 -10.31373,-12.2094 -15.27952,-18.47092 -3.76469,-4.72103 -7.39894,-9.54128 -10.85467,-14.49277 -2.09855,-3.06665 -4.07744,-6.2095 -6.18401,-9.27122 -1.90391,-2.63063 -3.61828,-5.33946 -5.0205,-8.26825 -2.10338,-4.30833 -3.57244,-8.83851 -4.82633,-13.45268 -1.02468,-4.23474 -1.81993,-8.52292 -2.42855,-12.83626 -0.4569,-3.04254 -0.62663,-6.11598 -0.97445,-9.17043 -0.27572,-2.83239 -0.44112,-5.67429 -0.85362,-8.49095 -0.61298,-3.35517 -0.92527,-6.74037 -1.16722,-10.1388 -0.25594,-3.33951 -0.78738,-6.64813 -1.09193,-9.98226 -0.20653,-2.35193 -0.41437,-4.701 -0.67398,-7.04778 -0.12932,-1.25401 -0.29274,-2.50309 -0.31536,-3.76471 -0.0181,-0.77862 0.0164,-1.55719 0.032,-2.33562 0,0 -56.44795,-1.2e-4 -56.44795,-1.2e-4 v 0 c 0.01633,0.85343 0.05695,1.7057 0.08951,2.55861 0.08592,1.47853 0.133882,2.96779 0.523392,4.40708 0.462932,2.27013 0.699172,4.56867 0.913171,6.87401 0.501517,3.22266 1.119806,6.43108 1.381445,9.68607 0.249841,3.50621 0.425055,7.02354 0.935681,10.5045 0.350092,2.76737 0.560636,5.54755 0.874417,8.31885 0.310203,3.17502 0.654832,6.34475 1.183117,9.49257 0.845321,4.47473 1.81912,8.91779 2.982496,13.32232 1.203141,4.8588 2.424951,9.74224 4.366448,14.36565 1.335628,3.27262 2.67838,6.5447 4.886681,9.34861 2.204055,3.12373 4.528063,6.16222 6.670834,9.32996 3.751949,5.04935 7.762249,9.89792 11.796218,14.72321 5.05654,6.1884 10.07765,12.40855 14.99418,18.7085 4.68571,5.50451 9.6573,10.75247 15.20252,15.40891 0.98406,0.76088 1.93249,1.57022 2.95219,2.28264 5.4558,3.81171 11.71383,6.24323 17.95412,8.42154 6.97496,2.40418 14.12235,4.24884 21.46366,5.12238 6.15082,0.81063 12.28088,1.79174 18.46043,2.37058 7.25066,0.70777 14.53047,1.18389 21.81843,1.19494 6.44613,0.12927 12.88849,0.34958 19.31662,0.87009 22.88489,1.87395 46.00239,1.21284 68.91212,-0.2741 3.9018,-0.50647 7.72551,-1.40075 11.60115,-2.06161 3.95042,-0.57058 7.91096,-1.01685 11.88133,-1.42278 3.86687,-0.56075 7.73238,-1.12903 11.60153,-1.67428 4.61999,-0.60611 9.21957,-1.33679 13.77834,-2.30895 3.92308,-0.80372 7.79691,-1.81843 11.45404,-3.48782 3.45501,-1.57765 6.93824,-3.15864 10.082,-5.31138 2.73983,-1.93554 5.40766,-3.99923 7.74935,-6.41135 3.01642,-3.31389 5.75195,-6.86595 8.52623,-10.38189 2.93982,-3.86703 5.84333,-7.76054 8.7439,-11.6568 2.89158,-3.90604 5.73925,-7.84639 8.28448,-11.99086 2.67442,-4.08211 5.33255,-8.19635 7.48281,-12.58529 1.59492,-3.52066 2.91274,-7.13883 4.0478,-10.8345 1.15121,-3.55706 2.1516,-7.16532 2.79318,-10.85293 0.66483,-4.2569 1.29856,-8.53086 1.46372,-12.84192 0.16974,-4.77116 0.18403,-9.54355 -0.12614,-14.31043 -0.39487,-4.21846 -1.29845,-8.33959 -2.6577,-12.35856 -2.27676,-6.93022 -4.30271,-13.93556 -6.27834,-20.95724 -2.88803,-9.39805 -5.62182,-18.84733 -8.8231,-28.14543 -2.40792,-6.86968 -5.08677,-13.68791 -8.96284,-19.88327 -3.27093,-4.64069 -6.69746,-9.18953 -10.61556,-13.31003 -3.07702,-3.32023 -6.05448,-6.76234 -9.51312,-9.69651 -2.75352,-2.33558 -5.59989,-4.56068 -8.36717,-6.88023 -2.76931,-2.38397 -5.56763,-4.73117 -8.15096,-7.32091 -1.78972,-1.60468 -3.56142,-3.22932 -5.40085,-4.77636 -1.96914,-1.60363 -3.91301,-3.23754 -5.95782,-4.74781 -2.77257,-2.04333 -5.89733,-3.41117 -9.0101,-4.85668 -3.70096,-1.74961 -7.32488,-3.65142 -10.995,-5.46292 -4.05282,-1.86903 -8.1971,-3.53897 -12.173,-5.57657 -3.82061,-1.58548 -7.7373,-2.92065 -11.7194,-4.04305 -5.47037,-1.5276 -10.9449,-3.053508 -16.4973,-4.259854 -6.73041,-1.34001 -13.50092,-2.417629 -20.34229,-3.018107 -4.54958,-0.374487 -9.10482,-0.351609 -13.66597,-0.476487 -22.12339,-0.852774 -44.39218,-1.5702 -66.45247,0.471416 -4.943,0.690039 -9.83158,1.700866 -14.68629,2.855472 -4.96849,1.322044 -9.88428,2.83537 -14.83231,4.23183 -3.90976,1.07881 -7.81509,2.19029 -11.62767,3.58037 -3.76603,1.22792 -7.50718,2.5308 -11.29139,3.70291 -3.48106,1.14998 -6.98392,2.32742 -10.24241,4.02589 -2.78076,1.71057 -5.41819,3.63124 -7.98615,5.64649 -3.3247,2.59598 -6.49683,5.372 -9.69673,8.11891 -3.47551,2.89012 -7.0857,5.67736 -10.063969,9.09994 -2.153556,2.50284 -4.213618,5.08192 -6.185816,7.73056 -1.959021,2.56065 -3.951177,5.09663 -5.875366,7.68287 -1.853916,2.72101 -3.439021,5.57901 -4.686352,8.63271 -1.176796,2.74368 -2.344236,5.49656 -3.19175,8.36424 -1.318746,4.47169 -2.593939,8.95571 -3.844978,13.44697 -1.424092,5.03636 -2.927823,10.06621 -3.694435,15.25692 -0.670687,5.5345 -1.031457,11.09068 -1.174696,16.66468 -0.228017,6.42807 -0.30391,12.8839 -1.117199,19.27115 z" />
    <path
       style="fill:#000000"
       id="path14"
       d="m 162.10289,58.120259 c 4.83168,-0.358674 9.60464,0.772425 14.22997,2.045866 4.68882,1.579886 9.45448,2.862024 14.30517,3.829112 4.18931,0.851021 8.4086,1.498367 12.66767,1.85869 24.02529,6.339418 44.12646,0.291025 66.48154,-0.534985 3.87655,-0.115396 7.75539,-0.112042 11.63328,-0.115221 32.17849,0.0067 -70.56976,-0.01422 -42.88126,0.01035 2.9486,0.0063 5.89714,0.0284 8.84574,0.0342 20.84262,-0.175605 41.95134,2.959835 62.55983,-0.306156 2.48077,-0.82075 4.90347,-1.795202 7.364,-2.674156 1.75427,-0.772097 3.61671,-1.253567 5.41264,-1.916021 1.87035,-0.730443 3.78615,-1.394618 5.72202,-1.940343 2.14791,-0.543839 4.25929,-1.170688 6.32897,-1.964307 0.25742,-0.0825 0.51484,-0.165001 0.77227,-0.247501 0,0 -55.79826,-6.960411 -55.79826,-6.960411 v 0 c -0.23196,0.08501 -0.46392,0.170014 -0.69588,0.255022 -2.05744,0.61069 -4.13604,1.149335 -6.15714,1.877766 -1.98019,0.708688 -3.97553,1.380306 -5.95715,2.080094 -1.74754,0.591413 -3.43932,1.335204 -5.20142,1.881078 -2.31016,0.752839 -4.68849,1.450632 -7.14787,1.235664 -21.03741,-0.522284 76.39236,-0.05114 48.04964,-0.07071 -3.07567,0.0048 -6.1513,0.02457 -9.22698,0.02776 -22.26877,-8.45e-4 -44.5378,-0.07384 -66.80631,0.02603 -3.89492,0.03902 -7.79074,0.102631 -11.67859,0.360746 -20.37452,1.297336 -50.56513,0.227112 43.29828,0.529617 -4.32184,-0.07746 -8.64842,-0.289988 -12.90586,-1.098129 -4.81418,-0.796056 -9.64588,-1.587637 -14.27623,-3.183509 -3.20655,-1.081575 -6.42712,-2.195599 -9.73592,-2.931792 -0.70681,-0.157263 -1.43016,-0.232693 -2.13717,-0.389091 -0.58192,-0.128728 -1.15087,-0.310367 -1.7263,-0.46555 z" />
    <path
       style="fill:#000000"
       id="path15"
       d="m 226.6469,465.59705 c 5.45874,-1.1485 11.07913,-1.21843 16.63153,-1.49955 6.95051,-0.47547 13.90308,-1.05952 20.77754,-2.20981 3.99444,-0.79565 7.99816,-1.46097 12.06973,-1.63484 29.72329,0.3911 -71.65763,-0.26112 -44.40682,0.13427 4.33549,0.0694 8.67117,0.0428 13.00513,0.18595 3.83883,0.1958 7.63479,0.83102 11.39144,1.61785 2.64972,0.65375 5.31909,1.21109 7.96314,1.88444 2.14631,0.44447 4.21529,1.16649 6.33639,1.70069 2.35519,0.29078 4.69506,0.66001 7.0384,1.03397 0.93679,0.1458 1.87838,0.25429 2.8205,0.35802 0,0 55.50441,-8.52377 55.50441,-8.52377 v 0 c -0.97058,0.0155 -1.94126,0.0225 -2.91128,-0.0268 -2.35047,-0.1119 -4.64141,-0.51101 -6.96942,-0.82178 -2.1765,-0.068 -4.2167,-0.47134 -6.29939,-1.1224 -2.77437,-0.68339 -5.52939,-1.40826 -8.33805,-1.94716 -3.8777,-0.96202 -7.78211,-1.84599 -11.74584,-2.3763 -4.27661,-0.54973 -8.5729,-0.5688 -12.87998,-0.57232 -21.85524,-0.36765 -43.82323,-1.92613 -65.57624,0.29752 -3.83741,0.57663 -7.6226,1.44306 -11.46089,2.01696 -6.68152,0.87969 -13.39857,1.47171 -20.1312,1.78209 -6.1648,0.35762 -12.34076,0.81665 -18.36872,2.24237 z" />
  </g>
</svg>
