<?xml version="1.0" encoding="UTF-8" standalone="no"?>
<!-- Created with Inkscape (http://www.inkscape.org/) -->

<svg
   width="512"
   height="512"
   viewBox="0 0 512 512"
   version="1.1"
   id="svg1"
   sodipodi:docname="psi.svg"
   inkscape:version="1.3.1 (9b9bdc1480, 2023-11-25, custom)"
   xmlns:inkscape="http://www.inkscape.org/namespaces/inkscape"
   xmlns:sodipodi="http://sodipodi.sourceforge.net/DTD/sodipodi-0.dtd"
   xmlns="http://www.w3.org/2000/svg"
   xmlns:svg="http://www.w3.org/2000/svg">
  <sodipodi:namedview
     id="namedview1"
     pagecolor="#ffffff"
     bordercolor="#999999"
     borderopacity="1"
     inkscape:showpageshadow="0"
     inkscape:pageopacity="0"
     inkscape:pagecheckerboard="0"
     inkscape:deskcolor="#d1d1d1"
     inkscape:document-units="px"
     inkscape:zoom="1.1269514"
     inkscape:cx="282.17721"
     inkscape:cy="244.90852"
     inkscape:window-width="1850"
     inkscape:window-height="1016"
     inkscape:window-x="0"
     inkscape:window-y="0"
     inkscape:window-maximized="1"
     inkscape:current-layer="layer1" />
  <defs
     id="defs1" />
  <g
     inkscape:label="Lager 1"
     inkscape:groupmode="layer"
     id="layer1">
    <path
       style="fill:#000000"
       id="path12"
       d="m 221.68756,55.720183 c 0.64738,6.55139 0.4304,13.156077 0.47339,19.731215 0.0126,7.194858 0.0424,14.389626 -0.0146,21.584382 -0.0141,4.62099 0.55145,9.20972 1.01002,13.79994 0.38073,3.71241 0.79535,7.4177 1.05859,11.14105 0.17693,3.9453 0.41588,7.88803 0.46584,11.83753 0.0161,3.45851 -0.0958,6.9111 0.0894,10.36618 0.48374,4.01864 0.64527,8.05928 0.88048,12.09635 0.222,4.60612 0.40259,9.21256 0.76109,13.81053 0.5334,4.52152 0.92353,9.05079 1.2263,13.59266 0.3143,4.09007 0.50069,8.18473 0.57354,12.28567 0.13157,3.89127 0.0326,7.78649 0.26944,11.67356 0.24129,3.32657 0.57212,6.64459 0.74213,9.97656 0.28216,4.12792 0.74623,8.23764 1.08021,12.36138 0.49632,5.68708 0.67278,11.39696 0.36681,17.09762 -0.26638,4.62421 -0.76226,9.22852 -1.00265,13.85494 -0.19192,3.79777 -0.23207,7.60417 -0.19725,11.40627 -0.0114,4.10011 -0.33842,8.19103 -0.73295,12.26957 -0.34291,3.75481 -0.74862,7.50339 -1.13345,11.25431 -0.28835,2.84644 -0.32708,5.7095 -0.43491,8.56642 0.0299,3.4632 -0.16842,6.92123 -0.26445,10.38153 -0.12732,3.2686 -0.19475,6.53845 -0.20477,9.80944 0.0516,3.15405 -0.008,6.30775 -0.0235,9.4615 6.9e-4,2.53074 -0.0599,5.06416 -0.31776,7.58279 -0.2002,1.9553 -0.50372,3.89822 -0.7817,5.84352 -0.17514,1.2153 -0.3699,2.42677 -0.51869,3.64602 0.0884,2.13486 0.16614,4.26944 0.23426,6.40526 0.0859,3.40687 0.11379,6.8142 0.0932,10.22205 0.006,3.24741 -0.0228,6.49499 -0.0893,9.74172 -0.17241,0.59136 0.34993,3.54642 -0.74878,3.65382 -0.76538,1.16395 -0.91306,2.55281 -1.21705,3.8937 -0.37935,1.61451 -0.63528,3.25096 -0.92458,4.88216 -0.3703,2.6304 -0.64092,5.28312 -0.8696,7.93169 -0.30908,2.81317 -0.39811,5.64129 -0.52015,8.46639 -0.052,2.1549 -0.0467,4.31051 -0.0586,6.46594 0.004,2.1494 0.18791,4.29567 0.39043,6.43459 0.15731,1.70389 0.1217,3.41463 0.1286,5.12277 -0.004,1.26294 -0.0317,2.52528 -0.0631,3.78776 -0.0139,1.06245 -0.0209,2.12275 0.022,3.18463 0.0728,1.36548 -0.0515,2.72705 -0.13803,4.08864 -0.0614,1.31316 -0.25453,2.61344 -0.325,3.92621 -0.0612,1.29842 -0.081,2.59827 -0.0589,3.89787 0.0205,1.33733 0.006,2.67417 -0.0262,4.01111 -0.005,1.03593 -0.0372,2.07034 -0.0203,3.10627 0.004,0.99946 -0.002,1.99899 -0.0115,2.99841 -0.0295,1.07322 0.14228,2.13513 0.19161,3.2055 0.0166,0.63374 0.0213,1.26778 0.0264,1.90174 0,0 56.41047,-0.0849 56.41047,-0.0849 v 0 c -0.0149,-0.69758 -0.037,-1.39425 -0.0827,-2.09063 -0.0497,-0.97728 -0.0897,-1.95537 -0.13491,-2.93173 -0.009,-0.99968 -0.015,-1.99946 -0.0116,-2.99918 0.0166,-1.03702 -0.0163,-2.07248 -0.0226,-3.10949 -0.034,-1.3282 -0.0521,-2.6564 -0.0258,-3.98504 0.0305,-1.19414 0.0239,-2.3883 0.0919,-3.58131 0.089,-1.31203 0.19925,-2.62291 0.26255,-3.93639 0.0782,-1.47131 0.20642,-2.94074 0.20077,-4.41541 0.0435,-1.06 0.0379,-2.11855 0.0272,-3.17917 -0.0287,-1.28761 -0.0518,-2.57508 -0.0777,-3.86274 -0.0362,-1.83942 -0.1541,-3.67723 -0.26283,-5.51357 -0.14021,-1.99349 -0.51135,-3.97638 -0.4063,-5.98385 -0.0177,-2.12383 -0.0255,-4.24752 -0.0319,-6.37133 -0.0353,-2.66014 0.0325,-5.32405 0.26547,-7.97504 0.30945,-2.50618 0.75548,-4.98584 1.27386,-7.45637 0.30434,-1.50647 0.65038,-3.00624 1.01027,-4.49985 0.31962,-1.07971 0.91841,-1.96652 1.33773,-3.00879 0.4505,-1.97979 0.38821,-3.95683 0.23326,-5.97466 -0.0667,-3.24718 -0.0955,-6.49518 -0.0916,-9.74303 -0.0224,-3.40536 0.001,-6.8103 0.0893,-10.21468 0.0677,-1.97887 0.0819,-3.96952 0.36415,-5.93251 0.0466,-1.15801 0.19172,-2.30828 0.26106,-3.46494 0.18648,-2.03824 0.45626,-4.06929 0.62836,-6.10953 0.11377,-2.65776 0.15689,-5.31849 0.10318,-7.97848 -0.0179,-3.14614 -0.0823,-6.29244 -0.0164,-9.43879 0.014,-3.21756 -0.009,-6.43508 0.0586,-9.65217 0.12511,-3.44133 0.26474,-6.88211 0.4923,-10.31824 0.13573,-2.78983 0.18728,-5.58113 0.30857,-8.37169 0.19962,-3.73538 0.55257,-7.46147 0.81982,-11.19239 0.35499,-4.24594 0.82764,-8.48876 0.87576,-12.75316 0.0537,-3.72883 0.0378,-7.45863 0.13031,-11.18719 0.14778,-4.63177 0.38728,-9.25922 0.56153,-13.89005 0.11401,-5.87884 -0.0746,-11.74994 -0.25236,-17.62642 -0.15998,-4.11133 -0.22841,-8.2248 -0.49672,-12.33111 -0.1902,-3.35807 -0.54719,-6.69754 -0.89258,-10.04265 -0.27345,-3.81629 -0.29195,-7.63853 -0.30983,-11.46328 -0.15906,-4.17163 -0.38848,-8.34189 -0.79252,-12.49775 -0.30469,-4.57548 -0.67187,-9.14346 -1.21321,-13.69749 -0.4233,-4.51492 -0.5691,-9.04801 -0.75236,-13.57783 -0.1153,-4.05301 -0.25728,-8.10588 -0.51051,-12.15281 -0.17977,-3.39497 -0.18292,-6.79616 -0.3124,-10.19329 -0.12777,-4.01774 -0.20852,-8.03668 -0.44542,-12.05047 -0.19658,-3.83194 -0.57233,-7.65233 -1.04443,-11.45967 -0.60717,-4.41918 -1.31055,-8.83241 -1.59565,-13.28778 -0.42822,-7.122211 -0.71037,-14.251716 -0.63577,-21.388965 0.16723,-6.467862 0.0573,-13.029555 1.33575,-19.397042 z" />
    <path
       style="fill:#000000"
       id="path14"
       d="m 162.10289,58.120259 c 4.83168,-0.358674 9.60464,0.772425 14.22997,2.045866 4.68882,1.579886 9.45448,2.862024 14.30517,3.829112 4.18931,0.851021 8.4086,1.498367 12.66767,1.85869 24.02529,6.339418 44.12646,0.291025 66.48154,-0.534985 3.87655,-0.115396 7.75539,-0.112042 11.63328,-0.115221 32.17849,0.0067 -70.56976,-0.01422 -42.88126,0.01035 2.9486,0.0063 5.89714,0.0284 8.84574,0.0342 20.84262,-0.175605 41.95134,2.959835 62.55983,-0.306156 2.48077,-0.82075 4.90347,-1.795202 7.364,-2.674156 1.75427,-0.772097 3.61671,-1.253567 5.41264,-1.916021 1.87035,-0.730443 3.78615,-1.394618 5.72202,-1.940343 2.14791,-0.543839 4.25929,-1.170688 6.32897,-1.964307 0.25742,-0.0825 0.51484,-0.165001 0.77227,-0.247501 0,0 -55.79826,-6.960411 -55.79826,-6.960411 v 0 c -0.23196,0.08501 -0.46392,0.170014 -0.69588,0.255022 -2.05744,0.61069 -4.13604,1.149335 -6.15714,1.877766 -1.98019,0.708688 -3.97553,1.380306 -5.95715,2.080094 -1.74754,0.591413 -3.43932,1.335204 -5.20142,1.881078 -2.31016,0.752839 -4.68849,1.450632 -7.14787,1.235664 -21.03741,-0.522284 76.39236,-0.05114 48.04964,-0.07071 -3.07567,0.0048 -6.1513,0.02457 -9.22698,0.02776 -22.26877,-8.45e-4 -44.5378,-0.07384 -66.80631,0.02603 -3.89492,0.03902 -7.79074,0.102631 -11.67859,0.360746 -20.37452,1.297336 -50.56513,0.227112 43.29828,0.529617 -4.32184,-0.07746 -8.64842,-0.289988 -12.90586,-1.098129 -4.81418,-0.796056 -9.64588,-1.587637 -14.27623,-3.183509 -3.20655,-1.081575 -6.42712,-2.195599 -9.73592,-2.931792 -0.70681,-0.157263 -1.43016,-0.232693 -2.13717,-0.389091 -0.58192,-0.128728 -1.15087,-0.310367 -1.7263,-0.46555 z" />
    <path
       style="fill:#000000"
       id="path15"
       d="m 226.6469,465.59705 c 5.45874,-1.1485 11.07913,-1.21843 16.63153,-1.49955 6.95051,-0.47547 13.90308,-1.05952 20.77754,-2.20981 3.99444,-0.79565 7.99816,-1.46097 12.06973,-1.63484 29.72329,0.3911 -71.65763,-0.26112 -44.40682,0.13427 4.33549,0.0694 8.67117,0.0428 13.00513,0.18595 3.83883,0.1958 7.63479,0.83102 11.39144,1.61785 2.64972,0.65375 5.31909,1.21109 7.96314,1.88444 2.14631,0.44447 4.21529,1.16649 6.33639,1.70069 2.35519,0.29078 4.69506,0.66001 7.0384,1.03397 0.93679,0.1458 1.87838,0.25429 2.8205,0.35802 0,0 55.50441,-8.52377 55.50441,-8.52377 v 0 c -0.97058,0.0155 -1.94126,0.0225 -2.91128,-0.0268 -2.35047,-0.1119 -4.64141,-0.51101 -6.96942,-0.82178 -2.1765,-0.068 -4.2167,-0.47134 -6.29939,-1.1224 -2.77437,-0.68339 -5.52939,-1.40826 -8.33805,-1.94716 -3.8777,-0.96202 -7.78211,-1.84599 -11.74584,-2.3763 -4.27661,-0.54973 -8.5729,-0.5688 -12.87998,-0.57232 -21.85524,-0.36765 -43.82323,-1.92613 -65.57624,0.29752 -3.83741,0.57663 -7.6226,1.44306 -11.46089,2.01696 -6.68152,0.87969 -13.39857,1.47171 -20.1312,1.78209 -6.1648,0.35762 -12.34076,0.81665 -18.36872,2.24237 z" />
    <path
       style="fill:#000000"
       id="path1"
       d="m 34.84942,102.42196 c 3.619163,4.52175 6.377292,9.62976 8.66835,14.92691 1.668466,3.85049 2.441912,7.98587 3.587023,11.99928 1.798982,5.44948 3.501175,10.92219 4.950518,16.47642 1.550572,6.34732 2.659977,12.79061 3.864665,19.20965 1.001878,4.92918 2.071877,9.84267 2.882863,14.80789 0.903766,5.13539 1.50281,10.31153 2.015142,15.49794 0.453336,5.11588 0.8367,10.23732 1.275597,15.35447 0.579241,4.62975 0.931202,9.28196 1.402112,13.92238 0.341944,4.08721 1.365788,8.05851 2.438848,12.00166 0.897842,3.38912 2.061907,6.69109 3.329809,9.95618 1.516527,3.80919 3.14969,7.57128 4.850729,11.30152 1.62373,3.65971 3.652848,7.0586 6.286399,10.07181 2.567628,2.76599 5.697409,4.87813 8.891956,6.84266 3.79465,2.16241 7.926326,3.63188 12.011649,5.13631 4.1358,1.57169 8.34446,2.92362 12.59825,4.1342 4.81253,1.58203 9.82214,2.18069 14.84883,2.54821 4.84739,0.30509 9.70593,0.25753 14.55832,0.41495 4.64905,0.27846 9.26634,0.91047 13.90016,1.36165 4.21254,0.38615 8.44218,0.51006 12.66962,0.5915 20.69943,0.1845 41.41884,0.14194 62.10463,0.0398 17.20873,-0.085 -68.83393,-0.2436 -51.62682,0.007 3.20057,0.0675 6.39757,0.1713 9.59422,0.34317 2.8346,0.16475 5.67382,0.20581 8.51236,0.23504 20.60192,0.19508 41.20578,-0.0778 61.80819,0.0421 0.84774,-0.10886 1.75211,0.14453 2.59588,0.0121 0.3575,-0.0561 0.69483,-0.20527 1.04889,-0.28007 1.30768,-0.57746 2.79285,-0.48827 4.18796,-0.7261 1.66086,-0.20013 3.33544,-0.1642 5.00433,-0.14302 0.90609,-0.1701 0.46378,-0.0494 1.32718,-0.36115 0,0 -55.73933,-8.11042 -55.73933,-8.11042 v 0 c -0.78314,-0.1073 -0.38186,-0.0674 -1.20421,-0.11581 -1.66348,0.15588 -3.314,0.40202 -4.96543,0.65321 -1.45715,0.12701 -2.93631,0.59789 -4.38731,0.41573 -1.12472,-0.0749 -2.2427,-0.24572 -3.38581,-0.13396 -22.81351,0.17671 75.213,-0.0826 48.87186,0.0343 -2.82725,0.005 -5.65482,0.0143 -8.48179,-0.0333 -3.26132,-0.0931 -6.51314,-0.33285 -9.77531,-0.38845 -22.83421,-0.93821 74.27357,3.02932 -58.36616,-0.15553 -17.74033,-0.42597 35.49087,8.8e-4 53.23631,0.003 0.59812,8e-5 -1.19625,0.002 -1.79437,0.004 -7.09986,0.0208 3.60106,-0.007 -3.6777,0.0114 -4.28936,0.01 -8.58077,0.01 -12.86676,-0.18316 -4.66261,-0.2513 -9.29799,-0.78365 -13.92784,-1.38198 -4.90033,-0.53725 -9.81303,-0.48957 -14.73748,-0.51312 -4.81265,-0.11652 -9.68094,-0.19539 -14.38073,-1.35061 -4.2253,-1.18486 -8.5002,-2.21846 -12.62589,-3.73198 -3.90761,-1.38436 -7.81501,-2.78013 -11.65485,-4.34376 -3.07599,-1.43351 -6.03443,-3.14266 -8.68002,-5.28116 -2.72426,-2.24957 -4.91394,-4.89344 -6.39815,-8.13379 -1.76648,-3.54319 -3.27311,-7.1899 -4.59307,-10.9227 -1.23616,-3.10208 -2.4385,-6.22239 -3.38417,-9.42753 -1.09934,-3.62153 -2.17938,-7.26025 -2.66829,-11.02597 -0.50777,-4.63533 -0.94709,-9.27708 -1.48746,-13.90871 -0.61558,-5.09187 -0.96115,-10.20691 -1.4687,-15.30967 -0.48829,-5.31978 -1.05439,-10.63499 -1.89108,-15.91247 -0.90389,-5.03569 -1.70019,-10.10086 -3.10329,-15.03018 -1.5508,-6.43222 -2.88426,-12.91332 -4.20348,-19.39643 -1.34669,-5.55922 -2.59801,-11.14484 -4.11329,-16.66044 -1.20903,-4.30932 -2.26277,-8.67749 -4.038884,-12.80306 -2.464457,-5.25712 -5.425098,-10.25669 -7.776051,-15.561326 z" />
    <path
       style="fill:#000000"
       id="path2"
       d="m 284.07297,290.48477 c 0.46285,-0.0207 0.92552,-0.0459 1.38855,-0.0622 1.25838,-0.0444 2.72797,-0.0721 3.97762,-0.0925 0.77669,-0.0127 3.10696,-0.0324 2.33016,-0.0323 -111.90762,0.008 -66.46699,0.0288 -49.46129,0.037 6.13584,0.18063 12.27108,0.41949 18.40523,0.6596 23.1975,0.88632 46.4782,1.57286 69.64302,-0.0711 4.04773,-0.0829 8.03414,-0.76404 12.0679,-1.03285 0.68838,-0.0304 1.3765,-0.0672 2.06514,-0.0911 1.2575,-0.0436 3.43491,-0.084 4.6714,-0.102 0.84744,-0.0124 3.38995,-0.0296 2.54242,-0.0291 -72.89281,0.0435 -68.3958,0.0456 -49.5964,0.0606 22.19477,0.2311 44.57257,2.65693 66.62906,-0.0761 3.87599,-0.45418 7.6031,-1.65874 11.403,-2.49915 3.4429,-0.68489 6.91599,-1.15189 10.41258,-1.44617 3.55375,-0.56454 7.12798,-0.96537 10.68765,-1.49087 3.34703,-0.35946 6.65933,-0.94594 9.94077,-1.6918 3.12393,-0.76933 6.11214,-1.9557 9.0564,-3.23321 4.26339,-1.60846 7.78065,-3.97417 11.32347,-6.79095 4.09484,-3.49114 7.42617,-7.69284 10.46352,-12.10229 2.1913,-3.221 4.13699,-6.59453 6.04186,-9.98909 1.95349,-3.16106 3.3037,-6.5895 4.33531,-10.14375 1.02031,-3.42239 1.19378,-6.97448 1.46925,-10.50783 0.24198,-4.42742 0.4584,-8.85765 0.5598,-13.2907 0.10257,-3.81123 0.15681,-7.62277 0.28637,-11.43332 0.10696,-3.93043 0.0444,-7.86286 0.0984,-11.79431 -0.15516,-4.4772 -0.20089,-8.9582 -0.40565,-13.43335 -0.4001,-5.23388 -1.40982,-10.40409 -2.34395,-15.56414 -0.83397,-4.6747 -1.6985,-9.33977 -2.35968,-14.04301 -0.5362,-3.95891 -0.69535,-7.95873 -0.70513,-11.95016 0.0551,-3.61785 -0.11713,-7.23359 -0.15594,-10.85043 -0.0318,-3.83911 0.0689,-7.67894 0.15318,-11.51719 0.0458,-2.89878 0.32338,-5.79723 0.76123,-8.66189 0.21202,-1.63705 0.62267,-3.23503 1.03199,-4.83046 0,0 -55.71811,-1.23648 -55.71811,-1.23648 v 0 c -0.34126,1.7344 -0.67186,3.47079 -1.01092,5.20563 -0.50007,3.15187 -0.9645,6.31578 -0.77873,9.52024 0.0802,3.83744 0.17336,7.67667 0.13218,11.51482 -0.0463,3.66771 -0.25554,7.3392 -0.0562,11.00596 0.21277,4.20218 0.46773,8.4009 1.04286,12.5728 0.67333,4.78485 1.50948,9.53443 2.56239,14.25232 0.88017,4.91079 1.79988,9.83211 2.14386,14.81609 0.17002,4.38903 0.15381,8.78342 0.19799,13.17511 0.0198,3.89108 -0.0849,7.779 -0.19245,11.66823 -0.0767,3.82406 -0.16632,7.64655 -0.10118,11.47188 -0.0746,4.29658 -0.12966,8.60293 -0.7054,12.86948 -0.3601,3.15881 -0.68412,6.34004 -1.5667,9.40595 -1.00417,3.1642 -2.57948,6.06695 -4.24586,8.92963 -1.80649,3.2065 -3.64663,6.40122 -5.71665,9.44665 -2.82379,3.92193 -6.00158,7.58885 -10.11231,10.22149 -3.6893,2.26328 -7.64355,3.96442 -11.73708,5.3664 -2.93283,0.97801 -5.91171,1.82473 -8.97596,2.28169 -3.2452,0.54001 -6.51227,0.93437 -9.76808,1.40089 -3.56672,0.46891 -7.12921,0.97144 -10.70393,1.37398 -3.48545,0.53451 -6.95527,1.16618 -10.37514,2.03563 -3.72,0.85903 -7.46804,1.59917 -11.30679,1.57778 -19.55034,-0.28256 -1.32264,-0.0106 51.15014,0.006 0.62834,2e-4 -1.25665,-0.01 -1.88496,-0.0165 -2.12642,-0.0235 -4.25264,-0.0624 -6.37874,-0.10519 -23.03047,-0.50721 -46.14256,-1.13054 -69.13029,0.52707 -3.96537,0.40848 -7.93157,0.72193 -11.9146,0.90706 -18.57802,0.8404 -44.00676,0.13241 47.55544,0.18278 0.86366,4.7e-4 -1.72723,-0.0184 -2.59079,-0.032 -2.51338,-0.0396 -3.13176,-0.0618 -5.68155,-0.12681 -6.04075,-0.19676 -12.086,-0.35345 -18.11672,-0.76564 -22.70304,-1.12048 -45.46279,-0.38958 -68.1836,0.0676 z" />
  </g>
</svg>
