<?xml version="1.0" encoding="UTF-8" standalone="no"?>
<!-- Created with Inkscape (http://www.inkscape.org/) -->

<svg
   width="512"
   height="512"
   viewBox="0 0 512 512"
   version="1.1"
   id="svg1"
   sodipodi:docname="square_filled.svg"
   inkscape:version="1.3.1 (9b9bdc1480, 2023-11-25, custom)"
   xmlns:inkscape="http://www.inkscape.org/namespaces/inkscape"
   xmlns:sodipodi="http://sodipodi.sourceforge.net/DTD/sodipodi-0.dtd"
   xmlns="http://www.w3.org/2000/svg"
   xmlns:svg="http://www.w3.org/2000/svg">
  <sodipodi:namedview
     id="namedview1"
     pagecolor="#ffffff"
     bordercolor="#999999"
     borderopacity="1"
     inkscape:showpageshadow="0"
     inkscape:pageopacity="0"
     inkscape:pagecheckerboard="0"
     inkscape:deskcolor="#d1d1d1"
     inkscape:document-units="px"
     inkscape:zoom="1.1269514"
     inkscape:cx="267.09226"
     inkscape:cy="237.80972"
     inkscape:window-width="1850"
     inkscape:window-height="1016"
     inkscape:window-x="0"
     inkscape:window-y="0"
     inkscape:window-maximized="1"
     inkscape:current-layer="layer1" />
  <defs
     id="defs1" />
  <g
     inkscape:label="Lager 1"
     inkscape:groupmode="layer"
     id="layer1">
    <path
       id="path13"
       style="fill:#000000"
       d="M 392.16016 66.669922 C 385.81873 66.831714 379.17672 68.152768 371.95312 71.632812 C 371.36351 71.740912 370.79979 71.936245 370.22852 72.099609 C 363.59239 72.146983 361.1119 72.207864 344.08008 72.199219 C 340.14192 72.197219 336.19391 72.456419 332.29883 73.039062 C 329.5022 73.54165 326.7272 73.889303 323.88477 73.863281 C 321.08448 74.145032 318.29091 74.486108 315.47461 74.578125 C 308.50337 75.108452 301.54341 75.783493 294.56055 76.148438 C 290.39127 76.326136 286.21806 76.434642 282.04688 76.564453 C 277.90444 76.224429 273.76029 75.894407 269.60742 75.695312 C 259.65146 75.326965 249.69396 74.95617 239.74609 74.410156 C 231.24146 73.960881 222.7303 73.836475 214.2207 73.519531 C 208.88118 73.24672 203.51835 72.750174 198.16992 72.726562 C 192.66024 72.702239 187.15035 72.707763 181.64062 72.693359 C 173.17368 72.660383 155.19682 72.590587 145.00391 72.417969 C 134.5325 72.241705 124.05073 72.070832 113.58789 71.564453 C 113.58383 70.62091 113.55782 69.676563 113.58984 68.732422 L 57.376953 68.732422 C 57.437293 70.516021 57.412802 72.298112 57.382812 74.082031 C 57.344006 75.513606 57.343428 76.944111 57.410156 78.375 L 49.488281 79.615234 C 52.137484 79.635309 54.786397 79.711533 57.435547 79.744141 C 57.489487 81.634594 57.530315 83.524894 57.548828 85.416016 C 57.604718 88.2939 57.538952 91.174702 57.513672 94.052734 C 57.446862 97.190277 57.315887 100.32628 57.304688 103.46484 C 57.226178 107.15115 56.966314 110.83032 56.414062 114.47852 C 55.858854 118.28816 55.339789 122.11214 55.115234 125.95703 C 54.90948 129.98478 54.96452 134.02328 54.695312 138.04883 C 54.372753 142.56982 54.216142 147.1086 53.638672 151.60742 C 53.233569 155.45658 52.621099 159.28313 52.308594 163.14258 C 51.985152 167.815 51.90662 172.49772 51.578125 177.16992 C 51.359211 182.22894 51.228743 187.29093 50.955078 192.34766 C 50.583173 197.57948 50.046438 202.79865 49.707031 208.0332 C 49.474628 212.79111 49.159104 217.5442 48.871094 222.29883 C 48.605786 227.10874 48.520175 231.92618 48.355469 236.74023 C 48.127181 241.98029 48.05779 247.22784 48.25 252.4707 C 48.478363 258.61256 48.599607 264.75875 48.916016 270.89648 C 49.224613 277.00353 49.091731 283.10339 48.986328 289.21484 C 49.008498 295.73424 48.98923 302.25235 48.9375 308.77148 C 48.85916 314.75286 48.777643 320.73405 48.662109 326.71484 C 48.585269 331.83634 48.384626 336.95359 48.308594 342.07422 C 48.357774 345.59657 48.527981 349.10611 49.140625 352.58398 C 49.734762 355.98414 50.262363 359.39962 50.986328 362.77539 C 51.814773 366.6839 52.728319 370.56922 53.638672 374.45898 C 54.865166 380.05269 55.655616 385.71238 56.568359 391.36328 C 57.523254 397.29546 58.268512 403.26192 58.851562 409.24219 C 59.418862 414.38126 59.891989 419.53337 59.738281 424.71094 C 59.743481 427.52244 59.905067 430.33014 59.890625 433.14258 C 59.90985 437.22114 59.777768 441.34254 58.916016 445.3418 C 58.796174 445.48441 58.688906 445.64075 58.591797 445.80664 C 58.508257 445.97966 58.519966 445.95557 58.566406 445.86133 C 58.542833 445.90528 58.524323 445.94866 58.503906 445.99219 C 57.058698 446.19029 57.870739 447.00855 58.203125 449.70898 C 58.216735 449.81954 58.419184 449.76826 58.529297 449.78516 C 58.659572 449.80516 58.790591 449.80861 58.921875 449.82031 C 59.267024 449.82001 59.59578 449.75339 59.912109 449.65039 C 60.061606 449.64005 60.211365 449.62735 60.361328 449.62305 C 60.595685 449.61155 60.829896 449.62244 61.064453 449.61914 L 61.621094 449.61914 C 61.816843 449.61915 62.013237 449.61906 62.208984 449.61914 C 62.452265 449.61925 62.694219 449.62091 62.9375 449.62109 C 63.182846 449.62115 63.428524 449.62082 63.673828 449.61523 C 63.85056 449.60997 64.027037 449.59946 64.203125 449.58398 C 65.118469 449.58279 65.914326 449.59166 67.330078 449.58594 C 67.374942 449.58989 67.420019 449.59113 67.464844 449.5957 C 67.90209 449.6352 68.339827 449.68269 68.779297 449.67969 C 69.103827 449.6797 69.427423 449.67962 69.751953 449.67969 C 70.152245 449.67978 70.552833 449.67975 70.953125 449.67969 C 71.30096 449.6795 71.650257 449.68024 71.998047 449.67383 C 72.235499 449.66783 72.472357 449.65822 72.708984 449.63672 C 72.907146 449.60272 73.118633 449.65481 73.318359 449.63281 C 73.594506 449.63277 73.870339 449.63301 74.146484 449.63281 C 74.493158 449.63257 74.840827 449.63197 75.1875 449.63281 C 75.23184 449.63296 75.275968 449.63457 75.320312 449.63477 C 75.488027 449.65106 75.6566 449.65853 75.824219 449.67578 C 76.239345 449.72713 76.653609 449.78188 77.068359 449.83594 C 77.406635 449.9626 77.747174 450.08305 78.105469 450.14062 C 78.643929 450.22842 79.186992 450.26226 79.732422 450.27148 C 80.175825 450.28933 80.62006 450.31265 81.0625 450.34766 C 81.268963 450.37245 81.47701 450.38265 81.683594 450.40625 C 81.725247 450.41099 81.766973 450.41485 81.808594 450.41992 C 81.905525 450.43189 81.998805 450.43801 82.089844 450.43945 C 83.627703 450.60827 85.166984 450.76559 86.71875 450.80469 C 91.729053 451.13173 96.746145 450.97676 101.76367 451.02539 C 126.71324 451.4378 151.04738 457.16733 176.40625 452.01562 C 181.58377 451.76438 186.73068 451.26297 191.74023 449.84766 C 195.89387 448.98245 200.09709 448.61474 204.28711 447.98242 C 209.6466 446.91851 214.90127 445.38944 220.29492 444.49023 C 225.82998 443.56131 231.39463 442.81758 237.01562 442.70898 C 242.56097 442.50315 248.10331 442.27719 253.64062 441.9043 C 258.41676 441.60024 263.19072 441.26118 267.96484 440.92969 C 273.58154 441.37051 279.18954 441.91205 284.78906 442.5625 C 293.3821 443.21515 301.98142 443.75168 310.57617 444.37109 C 319.90997 445.32188 329.18761 446.76634 338.55469 447.39648 C 348.31861 448.0197 358.12094 448.40011 367.79102 449.99609 C 373.79522 450.98024 369.5041 450.26361 375.27539 451.26562 C 378.18961 451.7716 381.17378 452.17757 384.03906 452.93164 C 384.65315 453.09325 385.24653 453.33052 385.84961 453.5293 L 415.50391 449.87305 L 443.62695 449.73047 C 443.54855 448.68557 443.45397 447.64152 443.39062 446.5957 C 443.30814 444.68986 443.33955 442.78384 443.31445 440.87695 C 443.28765 438.5228 443.27391 436.16951 443.18555 433.81641 C 443.03591 430.63959 442.9396 427.45932 442.74219 424.28516 C 442.60947 422.26782 442.45405 420.24524 442.54883 418.22266 C 442.56383 416.93886 442.55134 415.65478 442.52734 414.37109 C 442.52034 412.69249 442.45144 411.01448 442.43164 409.33594 C 442.40184 406.87056 442.33414 404.40662 442.29688 401.94141 C 442.26758 399.11493 442.23994 396.28078 441.97852 393.46484 C 441.73543 391.26571 441.35357 389.07949 440.95117 386.9043 C 440.59926 385.01955 440.33086 383.12033 439.98242 381.23438 C 439.88562 379.7749 439.94937 378.31515 439.95117 376.85352 C 439.94317 375.69721 439.98248 374.54334 440.02148 373.38867 C 440.01148 372.35469 439.98706 371.32119 440.00586 370.28711 C 440.06926 367.85145 440.24322 365.41956 440.23633 362.98242 C 440.24977 361.29686 440.21547 359.60874 440.19531 357.92188 L 440.3418 357.92188 C 440.2942 356.46897 440.29195 355.01601 440.31445 353.5625 C 440.30975 352.99077 440.30114 352.41942 440.29883 351.84766 C 440.33436 351.18249 440.35785 350.51764 440.42188 349.85352 L 440.28125 349.85352 C 440.27562 349.24208 440.27998 348.63084 440.26562 348.01953 C 440.23274 345.91122 440.20423 343.80198 440.06836 341.69727 C 439.89502 339.3512 439.64447 337.00932 439.57031 334.65625 C 439.46975 331.3303 439.55589 328.00031 439.58789 324.67383 C 439.68994 320.28947 439.87938 315.9075 440.16602 311.53125 C 440.43461 307.55005 440.71974 303.56586 440.6582 299.57227 C 440.6942 296.08611 440.63666 292.6012 440.59766 289.11523 C 440.54876 285.02031 440.54092 280.92525 440.54102 276.83008 C 440.59352 272.90834 440.61 268.98647 440.5957 265.06445 C 440.5717 260.80638 440.44816 256.55199 440.37109 252.29492 C 440.39359 245.54161 440.59759 238.77383 441.33008 232.05664 C 442.2225 224.53053 443.46088 217.04448 444.04102 209.48242 C 444.75351 202.13912 445.57746 194.80161 446.07812 187.44141 C 446.19849 183.53546 446.11777 179.62428 445.89453 175.72266 C 445.545 172.31237 445.0816 168.9198 444.69922 165.51367 C 444.42575 161.60342 444.41615 157.68526 444.52734 153.76758 C 444.63431 150.98661 444.66506 148.2047 444.63086 145.42188 C 444.64146 142.82304 444.66908 140.22526 444.58398 137.62695 C 444.53938 134.50261 444.55403 131.37837 444.54883 128.25391 C 444.56413 125.44865 444.67283 122.64348 444.67188 119.83789 C 444.67786 117.6644 444.63418 115.49809 444.4375 113.33203 C 444.26075 110.87935 444.16738 108.42474 444.0918 105.9668 C 444.0489 103.77943 443.99387 101.59388 443.78711 99.414062 C 443.62113 97.612664 443.55469 95.805302 443.59766 93.996094 C 443.62096 92.727713 443.58356 91.454239 443.43555 90.193359 C 443.33945 88.849124 443.41893 87.500344 443.36523 86.154297 C 443.37833 84.753197 443.44018 83.353279 443.53125 81.955078 C 443.77565 79.426549 444.11604 76.882298 444.99414 74.484375 C 445.60603 73.375732 445.04342 71.687474 443.26367 71.654297 C 443.15041 71.652297 443.20769 71.653397 443.0918 71.650391 C 442.82613 71.641191 442.56217 71.623542 442.29688 71.607422 C 441.96716 71.595742 441.63655 71.598809 441.30664 71.599609 C 441.05761 71.599837 440.80955 71.600164 440.56055 71.595703 C 440.27111 71.589303 439.98126 71.579155 439.69336 71.546875 C 439.22096 71.491755 438.74807 71.440648 438.27148 71.460938 C 437.82112 71.462636 437.37001 71.463829 436.91992 71.480469 C 436.50381 71.497239 436.08821 71.529046 435.67188 71.535156 C 435.26822 71.542556 434.8643 71.557526 434.46289 71.603516 C 434.13142 71.640406 433.79934 71.686441 433.46484 71.675781 C 433.09479 71.675775 432.72553 71.675851 432.35547 71.675781 C 431.93377 71.675693 431.51154 71.675822 431.08984 71.675781 C 430.96613 71.675804 430.84247 71.677667 430.71875 71.677734 C 417.47612 71.073795 405.47942 66.330099 392.16016 66.669922 z M 378.25977 71.734375 C 379.23894 71.733879 378.65575 71.734716 379.62891 71.734375 C 379.3408 71.762436 379.05285 71.806827 378.76562 71.792969 C 378.59603 71.784769 378.08996 71.734465 378.25977 71.734375 z M 363.60547 72.613281 C 367.09207 72.614811 365.13095 72.622501 368.28516 72.625 C 368.22843 72.641064 368.17212 72.656128 368.11523 72.671875 C 366.60789 72.731665 365.11274 72.626431 363.60547 72.613281 z " />
  </g>
</svg>
