<?xml version="1.0" encoding="UTF-8" standalone="no"?>
<!-- Created with Inkscape (http://www.inkscape.org/) -->

<svg
   width="512"
   height="512"
   viewBox="0 0 512 512"
   version="1.1"
   id="svg1"
   sodipodi:docname="triangle_filled.svg"
   inkscape:version="1.3.1 (9b9bdc1480, 2023-11-25, custom)"
   xmlns:inkscape="http://www.inkscape.org/namespaces/inkscape"
   xmlns:sodipodi="http://sodipodi.sourceforge.net/DTD/sodipodi-0.dtd"
   xmlns="http://www.w3.org/2000/svg"
   xmlns:svg="http://www.w3.org/2000/svg">
  <sodipodi:namedview
     id="namedview1"
     pagecolor="#ffffff"
     bordercolor="#999999"
     borderopacity="1"
     inkscape:showpageshadow="0"
     inkscape:pageopacity="0"
     inkscape:pagecheckerboard="0"
     inkscape:deskcolor="#d1d1d1"
     inkscape:document-units="px"
     inkscape:zoom="1.1269514"
     inkscape:cx="267.09226"
     inkscape:cy="237.80972"
     inkscape:window-width="1850"
     inkscape:window-height="1016"
     inkscape:window-x="0"
     inkscape:window-y="0"
     inkscape:window-maximized="1"
     inkscape:current-layer="layer1" />
  <defs
     id="defs1" />
  <g
     inkscape:label="Lager 1"
     inkscape:groupmode="layer"
     id="layer1">
    <path
       id="path28"
       style="fill:#000000"
       d="M 229.4082 62.125 C 228.94923 63.597494 228.39358 65.040673 227.82812 66.478516 L 223.49805 66.621094 C 223.56295 66.806871 223.62844 66.991959 223.69336 67.177734 C 224.20525 68.612217 224.70031 70.051767 225.25 71.472656 C 225.31725 71.674731 225.40594 71.869348 225.47656 72.070312 C 225.40828 72.222938 225.34579 72.378804 225.27734 72.53125 C 223.46702 76.356911 221.25609 79.966133 219.39648 83.765625 C 216.52207 89.750599 213.70092 95.760157 210.74023 101.70312 C 207.46089 108.47136 204.01911 115.14561 200.35547 121.71289 C 197.21263 127.48438 193.66724 132.99539 189.89844 138.37305 C 186.15081 143.42894 183.01685 148.8841 179.74414 154.24805 C 176.48337 159.2371 173.44606 164.36032 170.53711 169.56055 C 168.2436 173.9179 165.77049 178.17719 163.33008 182.45312 C 161.10268 186.35624 158.61103 190.09774 156.25977 193.92578 C 153.83622 197.64853 151.56095 201.46356 149.22656 205.24219 C 146.22512 210.07972 143.35729 214.99957 140.30664 219.80664 C 138.61028 222.56154 136.58226 225.09983 135.00586 227.93164 C 134.12573 229.5127 133.35691 231.15155 132.53125 232.76172 C 129.79825 238.36435 127.07921 243.9495 123.76172 249.23438 C 120.90153 253.51738 118.08103 257.82666 115.25391 262.13086 C 113.21318 265.07225 110.97602 267.86989 108.79688 270.70898 C 107.44343 272.46359 105.8986 274.0484 104.31445 275.5918 C 102.33653 277.17038 102.17288 278.52676 101.47266 280.88867 C 100.3574 284.77675 99.340965 288.6917 98.40625 292.62695 C 96.889611 298.24946 94.861041 303.73271 92.695312 309.13477 C 91.27897 312.85239 89.712428 316.51165 88.123047 320.1582 C 86.879515 323.21761 85.448621 326.19067 84.103516 329.20508 C 82.796902 332.23315 81.470566 335.24648 79.976562 338.1875 C 78.481773 341.30773 76.835646 344.34275 75.144531 347.35938 C 73.523444 349.85514 72.00591 352.41569 70.580078 355.02734 C 68.99587 358.08052 67.298398 361.06646 65.59375 364.05273 C 64.047519 367.07018 61.865635 369.67567 60.0625 372.52539 C 58.024243 376.08978 56.234752 379.78479 54.052734 383.26562 C 52.624521 385.47026 51.025181 387.56176 49.451172 389.66406 C 47.575687 392.25877 45.608985 394.78183 43.619141 397.28906 C 41.960968 399.37158 40.139612 401.31305 38.453125 403.37109 C 37.142814 404.93716 35.734334 406.42278 34.455078 408.01367 C 33.161187 409.25981 32.423092 410.88059 31.564453 412.42773 C 30.781155 413.67656 29.937272 414.87395 28.957031 415.97461 C 28.369103 416.79066 27.6754 417.51851 26.980469 418.24219 L 35.693359 418.86523 L 82.984375 425.60742 C 92.753392 424.55979 102.58939 424.29333 112.40039 423.86719 C 125.06474 423.09366 137.75909 423.32056 150.42969 422.78906 C 159.20002 422.2462 167.93684 421.40132 176.66211 420.37891 C 177.16362 420.31275 177.66978 420.30162 178.17188 420.24219 C 176.86793 420.15904 176.59972 420.07352 177.83203 420.00391 C 178.63618 420.01784 179.43996 420.04291 180.24414 420.05469 C 180.82238 419.99618 181.40162 419.9494 181.98047 419.89844 C 185.04408 419.87736 189.06326 419.96556 193.00195 420.16211 C 208.36667 420.20756 223.73582 420.01879 239.09961 419.94531 C 219.15803 420.28169 206.65773 420.37277 196.95312 420.39844 C 200.01608 420.63065 203.07615 420.91499 206.13477 421.19336 C 230.62532 423.28082 255.27059 422.67612 279.82422 421.99023 C 283.04331 421.85371 286.26351 421.76864 289.48242 421.64062 C 305.14466 423.79866 321.01526 423.70029 336.86133 423.12891 C 358.97968 425.46554 381.32663 423.91198 403.51758 423.89648 C 404.54513 423.795 405.64776 423.73426 406.71875 423.64844 C 415.3048 423.61574 423.8905 423.59258 432.47656 423.56445 C 432.54426 423.5572 432.6101 423.55018 432.67773 423.54297 C 452.02799 423.77461 471.38082 423.54143 490.73242 423.55078 L 457.0625 418.22656 L 491.67188 416.19922 C 488.63806 412.72621 486.73655 408.4717 484.5918 404.43359 C 481.53133 398.4669 477.44563 393.12833 473.59375 387.66797 C 467.33687 379.01918 461.72461 369.9344 456.45508 360.6582 C 452.24259 353.68777 448.613 346.39059 444.37891 339.43359 C 440.98258 333.85314 441.04257 334.10492 437.26367 328.58398 C 429.35868 317.57085 421.73504 306.37273 414.32812 295.01953 C 406.93167 284.1821 400.8916 272.53646 394.70117 260.99609 C 390.95111 253.66334 387.2801 246.2769 383.14648 239.14844 C 382.12268 237.38286 378.52419 231.5292 377.41797 229.72266 C 371.68894 220.55784 366.53565 211.04933 361.03906 201.74414 C 356.08617 192.8487 350.88149 184.10488 345.56445 175.42383 C 340.81687 167.76729 335.92444 160.2014 331.01172 152.65039 C 327.23443 146.73989 323.42634 140.84869 319.83203 134.82422 C 316.62935 129.63461 313.42233 124.44945 310.23242 119.25195 C 307.24261 114.31784 304.30313 109.35287 301.54492 104.28516 C 299.37822 100.20922 297.11735 96.197522 294.56836 92.347656 C 292.30213 89.116059 290.28931 85.720721 288.20703 82.371094 C 286.6341 79.904546 285.04283 77.45018 283.64844 74.876953 C 283.08593 73.767019 282.64339 72.60637 282.17383 71.457031 C 283.14675 69.019117 284.13522 66.587463 285.32031 64.246094 L 229.4082 62.125 z M 196.95312 420.39844 C 196.47881 420.36248 196.00583 420.30752 195.53125 420.27539 C 194.7019 420.21924 193.85039 420.20445 193.00195 420.16211 C 188.74898 420.14953 184.49627 420.11698 180.24414 420.05469 C 179.554 420.12452 178.86102 420.16062 178.17188 420.24219 C 180.10958 420.36575 186.50721 420.42606 196.95312 420.39844 z M 458.49414 420.85352 C 465.65852 421.1957 459.79042 421.26176 450.82617 421.25 C 453.37727 421.04264 455.93548 420.9115 458.49414 420.85352 z " />
  </g>
</svg>
